<svg width="24" height="24" viewBox="0 0 24 24" fill="none" xmlns="http://www.w3.org/2000/svg">
<path fill="currentColor" fill-rule="evenodd" clip-rule="evenodd" d="M17.6173 19.0322C16.0777 20.2637 14.1248 21 12 21C9.87516 21 7.92231 20.2637 6.3827 19.0322L8.88289 16.532C9.76885 17.1425 10.8427 17.5 12 17.5C13.1573 17.5 14.2311 17.1425 15.1171 16.532L17.6173 19.0322ZM7.46855 15.1179C6.85768 14.2318 6.5 13.1577 6.5 12C6.5 10.8425 6.85759 9.76843 7.46833 8.88237L4.96818 6.38222C3.7365 7.9219 3 9.87494 3 12C3 14.1252 3.7366 16.0783 4.96841 17.6181L7.46855 15.1179ZM19.0316 17.6181C20.2634 16.0783 21 14.1252 21 12C21 9.87494 20.2635 7.9219 19.0318 6.38222L16.5317 8.88237C17.1424 9.76843 17.5 10.8425 17.5 12C17.5 13.1577 17.1423 14.2318 16.5315 15.1179L19.0316 17.6181ZM12 3C14.125 3 16.0779 3.73644 17.6176 4.96802L15.1174 7.46819C14.2314 6.85754 13.1575 6.5 12 6.5C10.8425 6.5 9.7686 6.85754 8.88258 7.46819L6.38241 4.96802C7.92207 3.73644 9.87503 3 12 3ZM23 12C23 18.0751 18.0751 23 12 23C5.92487 23 1 18.0751 1 12C1 5.92487 5.92487 1 12 1C18.0751 1 23 5.92487 23 12ZM15.5 12C15.5 13.933 13.933 15.5 12 15.5C10.067 15.5 8.5 13.933 8.5 12C8.5 10.067 10.067 8.5 12 8.5C13.933 8.5 15.5 10.067 15.5 12Z" />
</svg>
