<svg width="24" height="24" viewBox="0 0 24 24" fill="none" xmlns="http://www.w3.org/2000/svg">
<g clip-path="url(#clip0_104_34)">
<path d="M10.1038 3.1185C10.4202 0.929426 13.5798 0.929426 13.8962 3.1185V3.1185C14.1041 4.55694 15.7752 5.24914 16.9394 4.37903V4.37903C18.711 3.05486 20.9451 5.28899 19.621 7.06064V7.06064C18.7509 8.22479 19.4431 9.8959 20.8815 10.1038V10.1038C23.0706 10.4202 23.0706 13.5798 20.8815 13.8962V13.8962C19.4431 14.1041 18.7509 15.7752 19.621 16.9394V16.9394C20.9451 18.711 18.711 20.9451 16.9394 19.621V19.621C15.7752 18.7509 14.1041 19.4431 13.8962 20.8815V20.8815C13.5798 23.0706 10.4202 23.0706 10.1038 20.8815V20.8815C9.8959 19.4431 8.22479 18.7509 7.06064 19.621V19.621C5.28899 20.9451 3.05486 18.711 4.37903 16.9394V16.9394C5.24914 15.7752 4.55694 14.1041 3.1185 13.8962V13.8962C0.929427 13.5798 0.929426 10.4202 3.1185 10.1038V10.1038C4.55694 9.8959 5.24914 8.22479 4.37903 7.06064V7.06064C3.05486 5.28899 5.28899 3.05486 7.06064 4.37903V4.37903C8.22479 5.24914 9.8959 4.55694 10.1038 3.1185V3.1185Z" stroke="currentColor" stroke-width="2"/>
<circle cx="12" cy="12" r="3" stroke="currentColor" stroke-width="2"/>
</g>
</svg>
