<svg width="2304" height="1536" viewBox="0 0 2304 1536" fill="none" xmlns="http://www.w3.org/2000/svg">
<line y1="815.5" x2="768" y2="815.5" stroke="black"/>
<line y1="47.5" x2="768" y2="47.5" stroke="black"/>
<line x1="768" y1="815.5" x2="1536" y2="815.5" stroke="black"/>
<line x1="1536" y1="815.5" x2="2304" y2="815.5" stroke="black"/>
<line x1="768" y1="47.5" x2="1536" y2="47.5" stroke="black"/>
<line x1="1536" y1="47.5" x2="2304" y2="47.5" stroke="black"/>
<line y1="863.5" x2="768" y2="863.5" stroke="black"/>
<line y1="95.5" x2="768" y2="95.5" stroke="black"/>
<line x1="768" y1="863.5" x2="1536" y2="863.5" stroke="black"/>
<line x1="1536" y1="863.5" x2="2304" y2="863.5" stroke="black"/>
<line x1="768" y1="95.5" x2="1536" y2="95.5" stroke="black"/>
<line x1="1536" y1="95.5" x2="2304" y2="95.5" stroke="black"/>
<line y1="911.5" x2="768" y2="911.5" stroke="black"/>
<line y1="143.5" x2="768" y2="143.5" stroke="black"/>
<line x1="768" y1="911.5" x2="1536" y2="911.5" stroke="black"/>
<line x1="1536" y1="911.5" x2="2304" y2="911.5" stroke="black"/>
<line x1="768" y1="143.5" x2="1536" y2="143.5" stroke="black"/>
<line x1="1536" y1="143.5" x2="2304" y2="143.5" stroke="black"/>
<line y1="959.5" x2="768" y2="959.5" stroke="black"/>
<line y1="191.5" x2="768" y2="191.5" stroke="black"/>
<line x1="768" y1="959.5" x2="1536" y2="959.5" stroke="black"/>
<line x1="1536" y1="959.5" x2="2304" y2="959.5" stroke="black"/>
<line x1="768" y1="191.5" x2="1536" y2="191.5" stroke="black"/>
<line x1="1536" y1="191.5" x2="2304" y2="191.5" stroke="black"/>
<line y1="1007.5" x2="768" y2="1007.5" stroke="black"/>
<line y1="239.5" x2="768" y2="239.5" stroke="black"/>
<line x1="768" y1="1007.5" x2="1536" y2="1007.5" stroke="black"/>
<line x1="1536" y1="1007.5" x2="2304" y2="1007.5" stroke="black"/>
<line x1="768" y1="239.5" x2="1536" y2="239.5" stroke="black"/>
<line x1="1536" y1="239.5" x2="2304" y2="239.5" stroke="black"/>
<line y1="1055.5" x2="768" y2="1055.5" stroke="black"/>
<line y1="287.5" x2="768" y2="287.5" stroke="black"/>
<line x1="768" y1="1055.5" x2="1536" y2="1055.5" stroke="black"/>
<line x1="1536" y1="1055.5" x2="2304" y2="1055.5" stroke="black"/>
<line x1="768" y1="287.5" x2="1536" y2="287.5" stroke="black"/>
<line x1="1536" y1="287.5" x2="2304" y2="287.5" stroke="black"/>
<line y1="1103.5" x2="768" y2="1103.5" stroke="black"/>
<line y1="335.5" x2="768" y2="335.5" stroke="black"/>
<line x1="768" y1="1103.5" x2="1536" y2="1103.5" stroke="black"/>
<line x1="1536" y1="1103.5" x2="2304" y2="1103.5" stroke="black"/>
<line x1="768" y1="335.5" x2="1536" y2="335.5" stroke="black"/>
<line x1="1536" y1="335.5" x2="2304" y2="335.5" stroke="black"/>
<line y1="1151.5" x2="768" y2="1151.5" stroke="black"/>
<line y1="383.5" x2="768" y2="383.5" stroke="black"/>
<line x1="768" y1="1151.5" x2="1536" y2="1151.5" stroke="black"/>
<line x1="1536" y1="1151.5" x2="2304" y2="1151.5" stroke="black"/>
<line x1="768" y1="383.5" x2="1536" y2="383.5" stroke="black"/>
<line x1="1536" y1="383.5" x2="2304" y2="383.5" stroke="black"/>
<line y1="1199.5" x2="768" y2="1199.5" stroke="black"/>
<line y1="431.5" x2="768" y2="431.5" stroke="black"/>
<line x1="768" y1="1199.5" x2="1536" y2="1199.5" stroke="black"/>
<line x1="1536" y1="1199.5" x2="2304" y2="1199.5" stroke="black"/>
<line x1="768" y1="431.5" x2="1536" y2="431.5" stroke="black"/>
<line x1="1536" y1="431.5" x2="2304" y2="431.5" stroke="black"/>
<line y1="1247.5" x2="768" y2="1247.5" stroke="black"/>
<line y1="479.5" x2="768" y2="479.5" stroke="black"/>
<line x1="768" y1="1247.5" x2="1536" y2="1247.5" stroke="black"/>
<line x1="1536" y1="1247.5" x2="2304" y2="1247.5" stroke="black"/>
<line x1="768" y1="479.5" x2="1536" y2="479.5" stroke="black"/>
<line x1="1536" y1="479.5" x2="2304" y2="479.5" stroke="black"/>
<line y1="1295.5" x2="768" y2="1295.5" stroke="black"/>
<line y1="527.5" x2="768" y2="527.5" stroke="black"/>
<line x1="768" y1="1295.5" x2="1536" y2="1295.5" stroke="black"/>
<line x1="1536" y1="1295.5" x2="2304" y2="1295.5" stroke="black"/>
<line x1="768" y1="527.5" x2="1536" y2="527.5" stroke="black"/>
<line x1="1536" y1="527.5" x2="2304" y2="527.5" stroke="black"/>
<line y1="1343.5" x2="768" y2="1343.5" stroke="black"/>
<line y1="575.5" x2="768" y2="575.5" stroke="black"/>
<line x1="768" y1="1343.5" x2="1536" y2="1343.5" stroke="black"/>
<line x1="1536" y1="1343.5" x2="2304" y2="1343.5" stroke="black"/>
<line x1="768" y1="575.5" x2="1536" y2="575.5" stroke="black"/>
<line x1="1536" y1="575.5" x2="2304" y2="575.5" stroke="black"/>
<line y1="1391.5" x2="768" y2="1391.5" stroke="black"/>
<line y1="623.5" x2="768" y2="623.5" stroke="black"/>
<line x1="768" y1="1391.5" x2="1536" y2="1391.5" stroke="black"/>
<line x1="1536" y1="1391.5" x2="2304" y2="1391.5" stroke="black"/>
<line x1="768" y1="623.5" x2="1536" y2="623.5" stroke="black"/>
<line x1="1536" y1="623.5" x2="2304" y2="623.5" stroke="black"/>
<line y1="1439.5" x2="768" y2="1439.5" stroke="black"/>
<line y1="671.5" x2="768" y2="671.5" stroke="black"/>
<line x1="768" y1="1439.5" x2="1536" y2="1439.5" stroke="black"/>
<line x1="1536" y1="1439.5" x2="2304" y2="1439.5" stroke="black"/>
<line x1="768" y1="671.5" x2="1536" y2="671.5" stroke="black"/>
<line x1="1536" y1="671.5" x2="2304" y2="671.5" stroke="black"/>
<line y1="1487.5" x2="768" y2="1487.5" stroke="black"/>
<line y1="719.5" x2="768" y2="719.5" stroke="black"/>
<line x1="768" y1="1487.5" x2="1536" y2="1487.5" stroke="black"/>
<line x1="1536" y1="1487.5" x2="2304" y2="1487.5" stroke="black"/>
<line x1="768" y1="719.5" x2="1536" y2="719.5" stroke="black"/>
<line x1="1536" y1="719.5" x2="2304" y2="719.5" stroke="black"/>
<line y1="1535.5" x2="768" y2="1535.5" stroke="black"/>
<line y1="767.5" x2="768" y2="767.5" stroke="black"/>
<line x1="768" y1="1535.5" x2="1536" y2="1535.5" stroke="black"/>
<line x1="1536" y1="1535.5" x2="2304" y2="1535.5" stroke="black"/>
<line x1="768" y1="767.5" x2="1536" y2="767.5" stroke="black"/>
<line x1="1536" y1="767.5" x2="2304" y2="767.5" stroke="black"/>
<line x1="720.5" y1="768" x2="720.5" y2="1536" stroke="black"/>
<line x1="720.5" y1="2.18557e-08" x2="720.5" y2="768" stroke="black"/>
<line x1="1488.5" y1="768" x2="1488.5" y2="1536" stroke="black"/>
<line x1="2256.5" y1="768" x2="2256.5" y2="1536" stroke="black"/>
<line x1="1488.5" y1="2.18557e-08" x2="1488.5" y2="768" stroke="black"/>
<line x1="1536.5" x2="1536.5" y2="1536" stroke="black"/>
<line x1="2256.5" y1="2.18557e-08" x2="2256.5" y2="768" stroke="black"/>
<line x1="672.5" y1="768" x2="672.5" y2="1536" stroke="black"/>
<line x1="672.5" y1="2.18557e-08" x2="672.5" y2="768" stroke="black"/>
<line x1="1440.5" y1="768" x2="1440.5" y2="1536" stroke="black"/>
<line x1="2208.5" y1="768" x2="2208.5" y2="1536" stroke="black"/>
<line x1="1440.5" y1="2.18557e-08" x2="1440.5" y2="768" stroke="black"/>
<line x1="2208.5" y1="2.18557e-08" x2="2208.5" y2="768" stroke="black"/>
<line x1="624.5" y1="768" x2="624.5" y2="1536" stroke="black"/>
<line x1="624.5" y1="2.18557e-08" x2="624.5" y2="768" stroke="black"/>
<line x1="1392.5" y1="768" x2="1392.5" y2="1536" stroke="black"/>
<line x1="2160.5" y1="768" x2="2160.5" y2="1536" stroke="black"/>
<line x1="1392.5" y1="2.18557e-08" x2="1392.5" y2="768" stroke="black"/>
<line x1="2160.5" y1="2.18557e-08" x2="2160.5" y2="768" stroke="black"/>
<line x1="576.5" y1="768" x2="576.5" y2="1536" stroke="black"/>
<line x1="576.5" y1="2.18557e-08" x2="576.5" y2="768" stroke="black"/>
<line x1="1344.5" y1="768" x2="1344.5" y2="1536" stroke="black"/>
<line x1="2112.5" y1="768" x2="2112.5" y2="1536" stroke="black"/>
<line x1="1344.5" y1="2.18557e-08" x2="1344.5" y2="768" stroke="black"/>
<line x1="2112.5" y1="2.18557e-08" x2="2112.5" y2="768" stroke="black"/>
<line x1="528.5" y1="768" x2="528.5" y2="1536" stroke="black"/>
<line x1="528.5" y1="2.18557e-08" x2="528.5" y2="768" stroke="black"/>
<line x1="1296.5" y1="768" x2="1296.5" y2="1536" stroke="black"/>
<line x1="2064.5" y1="768" x2="2064.5" y2="1536" stroke="black"/>
<line x1="1296.5" y1="2.18557e-08" x2="1296.5" y2="768" stroke="black"/>
<line x1="2064.5" y1="2.18557e-08" x2="2064.5" y2="768" stroke="black"/>
<line x1="480.5" y1="768" x2="480.5" y2="1536" stroke="black"/>
<line x1="480.5" y1="2.18557e-08" x2="480.5" y2="768" stroke="black"/>
<line x1="1248.5" y1="768" x2="1248.5" y2="1536" stroke="black"/>
<line x1="2016.5" y1="768" x2="2016.5" y2="1536" stroke="black"/>
<line x1="1248.5" y1="2.18557e-08" x2="1248.5" y2="768" stroke="black"/>
<line x1="2016.5" y1="2.18557e-08" x2="2016.5" y2="768" stroke="black"/>
<line x1="432.5" y1="768" x2="432.5" y2="1536" stroke="black"/>
<line x1="432.5" y1="2.18557e-08" x2="432.5" y2="768" stroke="black"/>
<line x1="1200.5" y1="768" x2="1200.5" y2="1536" stroke="black"/>
<line x1="1968.5" y1="768" x2="1968.5" y2="1536" stroke="black"/>
<line x1="1200.5" y1="2.18557e-08" x2="1200.5" y2="768" stroke="black"/>
<line x1="1968.5" y1="2.18557e-08" x2="1968.5" y2="768" stroke="black"/>
<line x1="384.5" y1="768" x2="384.5" y2="1536" stroke="black"/>
<line x1="384.5" y1="2.18557e-08" x2="384.5" y2="768" stroke="black"/>
<line x1="1152.5" y1="768" x2="1152.5" y2="1536" stroke="black"/>
<line x1="1920.5" y1="768" x2="1920.5" y2="1536" stroke="black"/>
<line x1="1152.5" y1="2.18557e-08" x2="1152.5" y2="768" stroke="black"/>
<line x1="1920.5" y1="2.18557e-08" x2="1920.5" y2="768" stroke="black"/>
<line x1="336.5" y1="768" x2="336.5" y2="1536" stroke="black"/>
<line x1="336.5" y1="2.18557e-08" x2="336.5" y2="768" stroke="black"/>
<line x1="1104.5" y1="768" x2="1104.5" y2="1536" stroke="black"/>
<line x1="1872.5" y1="768" x2="1872.5" y2="1536" stroke="black"/>
<line x1="1104.5" y1="2.18557e-08" x2="1104.5" y2="768" stroke="black"/>
<line x1="1872.5" y1="2.18557e-08" x2="1872.5" y2="768" stroke="black"/>
<line x1="288.5" y1="768" x2="288.5" y2="1536" stroke="black"/>
<line x1="288.5" y1="2.18557e-08" x2="288.5" y2="768" stroke="black"/>
<line x1="1056.5" y1="768" x2="1056.5" y2="1536" stroke="black"/>
<line x1="1824.5" y1="768" x2="1824.5" y2="1536" stroke="black"/>
<line x1="1056.5" y1="2.18557e-08" x2="1056.5" y2="768" stroke="black"/>
<line x1="1824.5" y1="2.18557e-08" x2="1824.5" y2="768" stroke="black"/>
<line x1="240.5" y1="768" x2="240.5" y2="1536" stroke="black"/>
<line x1="240.5" y1="2.18557e-08" x2="240.5" y2="768" stroke="black"/>
<line x1="1008.5" y1="768" x2="1008.5" y2="1536" stroke="black"/>
<line x1="1776.5" y1="768" x2="1776.5" y2="1536" stroke="black"/>
<line x1="1008.5" y1="2.18557e-08" x2="1008.5" y2="768" stroke="black"/>
<line x1="1776.5" y1="2.18557e-08" x2="1776.5" y2="768" stroke="black"/>
<line x1="192.5" y1="768" x2="192.5" y2="1536" stroke="black"/>
<line x1="192.5" y1="2.18557e-08" x2="192.5" y2="768" stroke="black"/>
<line x1="960.5" y1="768" x2="960.5" y2="1536" stroke="black"/>
<line x1="1728.5" y1="768" x2="1728.5" y2="1536" stroke="black"/>
<line x1="960.5" y1="2.18557e-08" x2="960.5" y2="768" stroke="black"/>
<line x1="1728.5" y1="2.18557e-08" x2="1728.5" y2="768" stroke="black"/>
<line x1="144.5" y1="768" x2="144.5" y2="1536" stroke="black"/>
<line x1="144.5" y1="2.18557e-08" x2="144.5" y2="768" stroke="black"/>
<line x1="912.5" y1="768" x2="912.5" y2="1536" stroke="black"/>
<line x1="1680.5" y1="768" x2="1680.5" y2="1536" stroke="black"/>
<line x1="912.5" y1="2.18557e-08" x2="912.5" y2="768" stroke="black"/>
<line x1="1680.5" y1="2.18557e-08" x2="1680.5" y2="768" stroke="black"/>
<line x1="96.5" y1="768" x2="96.5" y2="1536" stroke="black"/>
<line x1="96.5" y1="2.18557e-08" x2="96.5" y2="768" stroke="black"/>
<line x1="864.5" y1="768" x2="864.5" y2="1536" stroke="black"/>
<line x1="1632.5" y1="768" x2="1632.5" y2="1536" stroke="black"/>
<line x1="864.5" y1="2.18557e-08" x2="864.5" y2="768" stroke="black"/>
<line x1="1632.5" y1="2.18557e-08" x2="1632.5" y2="768" stroke="black"/>
<line x1="48.5" y1="768" x2="48.5" y2="1536" stroke="black"/>
<line x1="48.5" y1="2.18557e-08" x2="48.5" y2="768" stroke="black"/>
<line x1="816.5" y1="768" x2="816.5" y2="1536" stroke="black"/>
<line x1="1584.5" y1="768" x2="1584.5" y2="1536" stroke="black"/>
<line x1="816.5" y1="2.18557e-08" x2="816.5" y2="768" stroke="black"/>
<line x1="1584.5" y1="2.18557e-08" x2="1584.5" y2="768" stroke="black"/>
<line x1="0.5" y1="768" x2="0.499966" y2="1536" stroke="black"/>
<line x1="0.5" y1="2.18557e-08" x2="0.499966" y2="768" stroke="black"/>
<line x1="768.5" y1="768" x2="768.5" y2="1536" stroke="black"/>
<line x1="768.5" y1="2.18557e-08" x2="768.5" y2="768" stroke="black"/>
</svg>
