<svg width="2304" height="1536" viewBox="0 0 2304 1536" fill="none" xmlns="http://www.w3.org/2000/svg">
<line y1="815.5" x2="768" y2="815.5" stroke="black"/>
<line y1="47.5" x2="768" y2="47.5" stroke="black"/>
<line x1="768" y1="815.5" x2="1536" y2="815.5" stroke="black"/>
<line x1="1536" y1="815.5" x2="2304" y2="815.5" stroke="black"/>
<line x1="768" y1="47.5" x2="1536" y2="47.5" stroke="black"/>
<line x1="1536" y1="47.5" x2="2304" y2="47.5" stroke="black"/>
<line y1="863.5" x2="768" y2="863.5" stroke="black"/>
<line y1="95.5" x2="768" y2="95.5" stroke="black"/>
<line x1="768" y1="863.5" x2="1536" y2="863.5" stroke="black"/>
<line x1="1536" y1="863.5" x2="2304" y2="863.5" stroke="black"/>
<line x1="768" y1="95.5" x2="1536" y2="95.5" stroke="black"/>
<line x1="1536" y1="95.5" x2="2304" y2="95.5" stroke="black"/>
<line y1="911.5" x2="768" y2="911.5" stroke="black"/>
<line y1="143.5" x2="768" y2="143.5" stroke="black"/>
<line x1="768" y1="911.5" x2="1536" y2="911.5" stroke="black"/>
<line x1="1536" y1="911.5" x2="2304" y2="911.5" stroke="black"/>
<line x1="768" y1="143.5" x2="1536" y2="143.5" stroke="black"/>
<line x1="1536" y1="143.5" x2="2304" y2="143.5" stroke="black"/>
<line y1="959.5" x2="768" y2="959.5" stroke="black"/>
<line y1="191.5" x2="768" y2="191.5" stroke="black"/>
<line x1="768" y1="959.5" x2="1536" y2="959.5" stroke="black"/>
<line x1="1536" y1="959.5" x2="2304" y2="959.5" stroke="black"/>
<line x1="768" y1="191.5" x2="1536" y2="191.5" stroke="black"/>
<line x1="1536" y1="191.5" x2="2304" y2="191.5" stroke="black"/>
<line y1="1007.5" x2="768" y2="1007.5" stroke="black"/>
<line y1="239.5" x2="768" y2="239.5" stroke="black"/>
<line x1="768" y1="1007.5" x2="1536" y2="1007.5" stroke="black"/>
<line x1="1536" y1="1007.5" x2="2304" y2="1007.5" stroke="black"/>
<line x1="768" y1="239.5" x2="1536" y2="239.5" stroke="black"/>
<line x1="1536" y1="239.5" x2="2304" y2="239.5" stroke="black"/>
<line y1="1055.5" x2="768" y2="1055.5" stroke="black"/>
<line y1="287.5" x2="768" y2="287.5" stroke="black"/>
<line x1="768" y1="1055.5" x2="1536" y2="1055.5" stroke="black"/>
<line x1="1536" y1="1055.5" x2="2304" y2="1055.5" stroke="black"/>
<line x1="768" y1="287.5" x2="1536" y2="287.5" stroke="black"/>
<line x1="1536" y1="287.5" x2="2304" y2="287.5" stroke="black"/>
<line y1="1103.5" x2="768" y2="1103.5" stroke="black"/>
<line y1="335.5" x2="768" y2="335.5" stroke="black"/>
<line x1="768" y1="1103.5" x2="1536" y2="1103.5" stroke="black"/>
<line x1="1536" y1="1103.5" x2="2304" y2="1103.5" stroke="black"/>
<line x1="768" y1="335.5" x2="1536" y2="335.5" stroke="black"/>
<line x1="1536" y1="335.5" x2="2304" y2="335.5" stroke="black"/>
<line y1="1151.5" x2="768" y2="1151.5" stroke="black"/>
<line y1="383.5" x2="768" y2="383.5" stroke="black"/>
<line x1="768" y1="1151.5" x2="1536" y2="1151.5" stroke="black"/>
<line x1="1536" y1="1151.5" x2="2304" y2="1151.5" stroke="black"/>
<line x1="768" y1="383.5" x2="1536" y2="383.5" stroke="black"/>
<line x1="1536" y1="383.5" x2="2304" y2="383.5" stroke="black"/>
<line y1="1199.5" x2="768" y2="1199.5" stroke="black"/>
<line y1="431.5" x2="768" y2="431.5" stroke="black"/>
<line x1="768" y1="1199.5" x2="1536" y2="1199.5" stroke="black"/>
<line x1="1536" y1="1199.5" x2="2304" y2="1199.5" stroke="black"/>
<line x1="768" y1="431.5" x2="1536" y2="431.5" stroke="black"/>
<line x1="1536" y1="431.5" x2="2304" y2="431.5" stroke="black"/>
<line y1="1247.5" x2="768" y2="1247.5" stroke="black"/>
<line y1="479.5" x2="768" y2="479.5" stroke="black"/>
<line x1="768" y1="1247.5" x2="1536" y2="1247.5" stroke="black"/>
<line x1="1536" y1="1247.5" x2="2304" y2="1247.5" stroke="black"/>
<line x1="768" y1="479.5" x2="1536" y2="479.5" stroke="black"/>
<line x1="1536" y1="479.5" x2="2304" y2="479.5" stroke="black"/>
<line y1="1295.5" x2="768" y2="1295.5" stroke="black"/>
<line y1="527.5" x2="768" y2="527.5" stroke="black"/>
<line x1="768" y1="1295.5" x2="1536" y2="1295.5" stroke="black"/>
<line x1="1536" y1="1295.5" x2="2304" y2="1295.5" stroke="black"/>
<line x1="768" y1="527.5" x2="1536" y2="527.5" stroke="black"/>
<line x1="1536" y1="527.5" x2="2304" y2="527.5" stroke="black"/>
<line y1="1343.5" x2="768" y2="1343.5" stroke="black"/>
<line y1="575.5" x2="768" y2="575.5" stroke="black"/>
<line x1="768" y1="1343.5" x2="1536" y2="1343.5" stroke="black"/>
<line x1="1536" y1="1343.5" x2="2304" y2="1343.5" stroke="black"/>
<line x1="768" y1="575.5" x2="1536" y2="575.5" stroke="black"/>
<line x1="1536" y1="575.5" x2="2304" y2="575.5" stroke="black"/>
<line y1="1391.5" x2="768" y2="1391.5" stroke="black"/>
<line y1="623.5" x2="768" y2="623.5" stroke="black"/>
<line x1="768" y1="1391.5" x2="1536" y2="1391.5" stroke="black"/>
<line x1="1536" y1="1391.5" x2="2304" y2="1391.5" stroke="black"/>
<line x1="768" y1="623.5" x2="1536" y2="623.5" stroke="black"/>
<line x1="1536" y1="623.5" x2="2304" y2="623.5" stroke="black"/>
<line y1="1439.5" x2="768" y2="1439.5" stroke="black"/>
<line y1="671.5" x2="768" y2="671.5" stroke="black"/>
<line x1="768" y1="1439.5" x2="1536" y2="1439.5" stroke="black"/>
<line x1="1536" y1="1439.5" x2="2304" y2="1439.5" stroke="black"/>
<line x1="768" y1="671.5" x2="1536" y2="671.5" stroke="black"/>
<line x1="1536" y1="671.5" x2="2304" y2="671.5" stroke="black"/>
<line y1="1487.5" x2="768" y2="1487.5" stroke="black"/>
<line y1="719.5" x2="768" y2="719.5" stroke="black"/>
<line x1="768" y1="1487.5" x2="1536" y2="1487.5" stroke="black"/>
<line x1="1536" y1="1487.5" x2="2304" y2="1487.5" stroke="black"/>
<line x1="768" y1="719.5" x2="1536" y2="719.5" stroke="black"/>
<line x1="1536" y1="719.5" x2="2304" y2="719.5" stroke="black"/>
<line y1="1535.5" x2="768" y2="1535.5" stroke="black"/>
<line y1="767.5" x2="768" y2="767.5" stroke="black"/>
<line x1="768" y1="1535.5" x2="1536" y2="1535.5" stroke="black"/>
<line x1="1536" y1="1535.5" x2="2304" y2="1535.5" stroke="black"/>
<line x1="768" y1="767.5" x2="1536" y2="767.5" stroke="black"/>
<line x1="1536" y1="767.5" x2="2304" y2="767.5" stroke="black"/>
<line x1="720.5" y1="768" x2="720.5" y2="1536" stroke="black"/>
<line x1="720.5" y1="2.18557e-08" x2="720.5" y2="768" stroke="black"/>
<line x1="1488.5" y1="768" x2="1488.5" y2="1536" stroke="black"/>
<line x1="2256.5" y1="768" x2="2256.5" y2="1536" stroke="black"/>
<line x1="1488.5" y1="2.18557e-08" x2="1488.5" y2="768" stroke="black"/>
<line x1="1536.5" x2="1536.5" y2="1536" stroke="black"/>
<line x1="2256.5" y1="2.18557e-08" x2="2256.5" y2="768" stroke="black"/>
<line x1="672.5" y1="768" x2="672.5" y2="1536" stroke="black"/>
<line x1="672.5" y1="2.18557e-08" x2="672.5" y2="768" stroke="black"/>
<line x1="1440.5" y1="768" x2="1440.5" y2="1536" stroke="black"/>
<line x1="2208.5" y1="768" x2="2208.5" y2="1536" stroke="black"/>
<line x1="1440.5" y1="2.18557e-08" x2="1440.5" y2="768" stroke="black"/>
<line x1="2208.5" y1="2.18557e-08" x2="2208.5" y2="768" stroke="black"/>
<line x1="624.5" y1="768" x2="624.5" y2="1536" stroke="black"/>
<line x1="624.5" y1="2.18557e-08" x2="624.5" y2="768" stroke="black"/>
<line x1="1392.5" y1="768" x2="1392.5" y2="1536" stroke="black"/>
<line x1="2160.5" y1="768" x2="2160.5" y2="1536" stroke="black"/>
<line x1="1392.5" y1="2.18557e-08" x2="1392.5" y2="768" stroke="black"/>
<line x1="2160.5" y1="2.18557e-08" x2="2160.5" y2="768" stroke="black"/>
<line x1="576.5" y1="768" x2="576.5" y2="1536" stroke="black"/>
<line x1="576.5" y1="2.18557e-08" x2="576.5" y2="768" stroke="black"/>
<line x1="1344.5" y1="768" x2="1344.5" y2="1536" stroke="black"/>
<line x1="2112.5" y1="768" x2="2112.5" y2="1536" stroke="black"/>
<line x1="1344.5" y1="2.18557e-08" x2="1344.5" y2="768" stroke="black"/>
<line x1="2112.5" y1="2.18557e-08" x2="2112.5" y2="768" stroke="black"/>
<line x1="528.5" y1="768" x2="528.5" y2="1536" stroke="black"/>
<line x1="528.5" y1="2.18557e-08" x2="528.5" y2="768" stroke="black"/>
<line x1="1296.5" y1="768" x2="1296.5" y2="1536" stroke="black"/>
<line x1="2064.5" y1="768" x2="2064.5" y2="1536" stroke="black"/>
<line x1="1296.5" y1="2.18557e-08" x2="1296.5" y2="768" stroke="black"/>
<line x1="2064.5" y1="2.18557e-08" x2="2064.5" y2="768" stroke="black"/>
<line x1="480.5" y1="768" x2="480.5" y2="1536" stroke="black"/>
<line x1="480.5" y1="2.18557e-08" x2="480.5" y2="768" stroke="black"/>
<line x1="1248.5" y1="768" x2="1248.5" y2="1536" stroke="black"/>
<line x1="2016.5" y1="768" x2="2016.5" y2="1536" stroke="black"/>
<line x1="1248.5" y1="2.18557e-08" x2="1248.5" y2="768" stroke="black"/>
<line x1="2016.5" y1="2.18557e-08" x2="2016.5" y2="768" stroke="black"/>
<line x1="432.5" y1="768" x2="432.5" y2="1536" stroke="black"/>
<line x1="432.5" y1="2.18557e-08" x2="432.5" y2="768" stroke="black"/>
<line x1="1200.5" y1="768" x2="1200.5" y2="1536" stroke="black"/>
<line x1="1968.5" y1="768" x2="1968.5" y2="1536" stroke="black"/>
<line x1="1200.5" y1="2.18557e-08" x2="1200.5" y2="768" stroke="black"/>
<line x1="1968.5" y1="2.18557e-08" x2="1968.5" y2="768" stroke="black"/>
<line x1="384.5" y1="768" x2="384.5" y2="1536" stroke="black"/>
<line x1="384.5" y1="2.18557e-08" x2="384.5" y2="768" stroke="black"/>
<line x1="1152.5" y1="768" x2="1152.5" y2="1536" stroke="black"/>
<line x1="1920.5" y1="768" x2="1920.5" y2="1536" stroke="black"/>
<line x1="1152.5" y1="2.18557e-08" x2="1152.5" y2="768" stroke="black"/>
<line x1="1920.5" y1="2.18557e-08" x2="1920.5" y2="768" stroke="black"/>
<line x1="336.5" y1="768" x2="336.5" y2="1536" stroke="black"/>
<line x1="336.5" y1="2.18557e-08" x2="336.5" y2="768" stroke="black"/>
<line x1="1104.5" y1="768" x2="1104.5" y2="1536" stroke="black"/>
<line x1="1872.5" y1="768" x2="1872.5" y2="1536" stroke="black"/>
<line x1="1104.5" y1="2.18557e-08" x2="1104.5" y2="768" stroke="black"/>
<line x1="1872.5" y1="2.18557e-08" x2="1872.5" y2="768" stroke="black"/>
<line x1="288.5" y1="768" x2="288.5" y2="1536" stroke="black"/>
<line x1="288.5" y1="2.18557e-08" x2="288.5" y2="768" stroke="black"/>
<line x1="1056.5" y1="768" x2="1056.5" y2="1536" stroke="black"/>
<line x1="1824.5" y1="768" x2="1824.5" y2="1536" stroke="black"/>
<line x1="1056.5" y1="2.18557e-08" x2="1056.5" y2="768" stroke="black"/>
<line x1="1824.5" y1="2.18557e-08" x2="1824.5" y2="768" stroke="black"/>
<line x1="240.5" y1="768" x2="240.5" y2="1536" stroke="black"/>
<line x1="240.5" y1="2.18557e-08" x2="240.5" y2="768" stroke="black"/>
<line x1="1008.5" y1="768" x2="1008.5" y2="1536" stroke="black"/>
<line x1="1776.5" y1="768" x2="1776.5" y2="1536" stroke="black"/>
<line x1="1008.5" y1="2.18557e-08" x2="1008.5" y2="768" stroke="black"/>
<line x1="1776.5" y1="2.18557e-08" x2="1776.5" y2="768" stroke="black"/>
<line x1="192.5" y1="768" x2="192.5" y2="1536" stroke="black"/>
<line x1="192.5" y1="2.18557e-08" x2="192.5" y2="768" stroke="black"/>
<line x1="960.5" y1="768" x2="960.5" y2="1536" stroke="black"/>
<line x1="1728.5" y1="768" x2="1728.5" y2="1536" stroke="black"/>
<line x1="960.5" y1="2.18557e-08" x2="960.5" y2="768" stroke="black"/>
<line x1="1728.5" y1="2.18557e-08" x2="1728.5" y2="768" stroke="black"/>
<line x1="144.5" y1="768" x2="144.5" y2="1536" stroke="black"/>
<line x1="144.5" y1="2.18557e-08" x2="144.5" y2="768" stroke="black"/>
<line x1="912.5" y1="768" x2="912.5" y2="1536" stroke="black"/>
<line x1="1680.5" y1="768" x2="1680.5" y2="1536" stroke="black"/>
<line x1="912.5" y1="2.18557e-08" x2="912.5" y2="768" stroke="black"/>
<line x1="1680.5" y1="2.18557e-08" x2="1680.5" y2="768" stroke="black"/>
<line x1="96.5" y1="768" x2="96.5" y2="1536" stroke="black"/>
<line x1="96.5" y1="2.18557e-08" x2="96.5" y2="768" stroke="black"/>
<line x1="864.5" y1="768" x2="864.5" y2="1536" stroke="black"/>
<line x1="1632.5" y1="768" x2="1632.5" y2="1536" stroke="black"/>
<line x1="864.5" y1="2.18557e-08" x2="864.5" y2="768" stroke="black"/>
<line x1="1632.5" y1="2.18557e-08" x2="1632.5" y2="768" stroke="black"/>
<line x1="48.5" y1="768" x2="48.5" y2="1536" stroke="black"/>
<line x1="48.5" y1="2.18557e-08" x2="48.5" y2="768" stroke="black"/>
<line x1="816.5" y1="768" x2="816.5" y2="1536" stroke="black"/>
<line x1="1584.5" y1="768" x2="1584.5" y2="1536" stroke="black"/>
<line x1="816.5" y1="2.18557e-08" x2="816.5" y2="768" stroke="black"/>
<line x1="1584.5" y1="2.18557e-08" x2="1584.5" y2="768" stroke="black"/>
<line x1="0.5" y1="768" x2="0.499966" y2="1536" stroke="black"/>
<line x1="0.5" y1="2.18557e-08" x2="0.499966" y2="768" stroke="black"/>
<line x1="768.5" y1="768" x2="768.5" y2="1536" stroke="black"/>
<line x1="768.5" y1="2.18557e-08" x2="768.5" y2="768" stroke="black"/>
<rect x="1" y="96" width="47" height="47" fill="black" fill-opacity="0.33"/>
<rect x="1" y="240" width="47" height="47" fill="black" fill-opacity="0.33"/>
<rect x="49" y="288" width="47" height="47" fill="black" fill-opacity="0.33"/>
<rect x="97" y="384" width="47" height="47" fill="black" fill-opacity="0.33"/>
<rect x="49" y="528" width="47" height="47" fill="black" fill-opacity="0.33"/>
<rect x="1" y="672" width="47" height="47" fill="black" fill-opacity="0.33"/>
<rect x="49" y="624" width="47" height="47" fill="black" fill-opacity="0.33"/>
<rect x="1" y="432" width="47" height="47" fill="black" fill-opacity="0.33"/>
<rect x="241" y="432" width="47" height="47" fill="black" fill-opacity="0.33"/>
<rect x="289" y="240" width="47" height="47" fill="black" fill-opacity="0.33"/>
<rect x="241" y="144" width="47" height="47" fill="black" fill-opacity="0.33"/>
<rect x="241" y="48" width="47" height="47" fill="black" fill-opacity="0.33"/>
<rect x="337" y="96" width="47" height="47" fill="black" fill-opacity="0.33"/>
<rect x="385" width="47" height="47" fill="black" fill-opacity="0.33"/>
<rect x="97" y="48" width="47" height="47" fill="black" fill-opacity="0.33"/>
<rect x="145" width="47" height="47" fill="black" fill-opacity="0.33"/>
<rect x="193" y="335" width="47" height="47" transform="rotate(-90 193 335)" fill="black" fill-opacity="0.33"/>
<rect x="337" y="335" width="47" height="47" transform="rotate(-90 337 335)" fill="black" fill-opacity="0.33"/>
<rect x="385" y="287" width="47" height="47" transform="rotate(-90 385 287)" fill="black" fill-opacity="0.33"/>
<rect x="145" y="239" width="47" height="47" transform="rotate(-90 145 239)" fill="black" fill-opacity="0.33"/>
<rect x="97" y="191" width="47" height="47" transform="rotate(-90 97 191)" fill="black" fill-opacity="0.33"/>
<rect x="720" y="47" width="47" height="47" transform="rotate(90 720 47)" fill="black" fill-opacity="0.33"/>
<rect x="672" y="95" width="47" height="47" transform="rotate(90 672 95)" fill="black" fill-opacity="0.33"/>
<rect x="576" y="143" width="47" height="47" transform="rotate(90 576 143)" fill="black" fill-opacity="0.33"/>
<rect x="528" y="47" width="47" height="47" transform="rotate(90 528 47)" fill="black" fill-opacity="0.33"/>
<rect x="528" y="288" width="47" height="47" transform="rotate(90 528 288)" fill="black" fill-opacity="0.33"/>
<rect x="720" y="336" width="47" height="47" transform="rotate(90 720 336)" fill="black" fill-opacity="0.33"/>
<rect x="816" y="288" width="47" height="47" transform="rotate(90 816 288)" fill="black" fill-opacity="0.33"/>
<rect x="912" y="288" width="47" height="47" transform="rotate(90 912 288)" fill="black" fill-opacity="0.33"/>
<rect x="864" y="384" width="47" height="47" transform="rotate(90 864 384)" fill="black" fill-opacity="0.33"/>
<rect x="960" y="431" width="47" height="47" transform="rotate(90 960 431)" fill="black" fill-opacity="0.33"/>
<rect x="912" y="144" width="47" height="47" transform="rotate(90 912 144)" fill="black" fill-opacity="0.33"/>
<rect x="864" y="48" width="47" height="47" transform="rotate(90 864 48)" fill="black" fill-opacity="0.33"/>
<rect x="960" width="47" height="47" transform="rotate(90 960 0)" fill="black" fill-opacity="0.33"/>
<rect x="960" y="192" width="47" height="47" transform="rotate(90 960 192)" fill="black" fill-opacity="0.33"/>
<rect x="625" y="240" width="47" height="47" fill="black" fill-opacity="0.33"/>
<rect x="625" y="384" width="47" height="47" fill="black" fill-opacity="0.33"/>
<rect x="673" y="432" width="47" height="47" fill="black" fill-opacity="0.33"/>
<rect x="721" y="192" width="47" height="47" fill="black" fill-opacity="0.33"/>
<rect x="769" y="144" width="47" height="47" fill="black" fill-opacity="0.33"/>
<rect x="97" y="1535" width="47" height="47" transform="rotate(-90 97 1535)" fill="black" fill-opacity="0.33"/>
<rect x="241" y="1535" width="47" height="47" transform="rotate(-90 241 1535)" fill="black" fill-opacity="0.33"/>
<rect x="289" y="1487" width="47" height="47" transform="rotate(-90 289 1487)" fill="black" fill-opacity="0.33"/>
<rect x="385" y="1439" width="47" height="47" transform="rotate(-90 385 1439)" fill="black" fill-opacity="0.33"/>
<rect x="433" y="1535" width="47" height="47" transform="rotate(-90 433 1535)" fill="black" fill-opacity="0.33"/>
<rect x="433" y="1295" width="47" height="47" transform="rotate(-90 433 1295)" fill="black" fill-opacity="0.33"/>
<rect x="241" y="1247" width="47" height="47" transform="rotate(-90 241 1247)" fill="black" fill-opacity="0.33"/>
<rect x="145" y="1295" width="47" height="47" transform="rotate(-90 145 1295)" fill="black" fill-opacity="0.33"/>
<rect x="49" y="1295" width="47" height="47" transform="rotate(-90 49 1295)" fill="black" fill-opacity="0.33"/>
<rect x="97" y="1198" width="47" height="47" transform="rotate(-90 97 1198)" fill="black" fill-opacity="0.33"/>
<rect x="1" y="1151" width="47" height="47" transform="rotate(-90 1 1151)" fill="black" fill-opacity="0.33"/>
<rect x="49" y="1439" width="47" height="47" transform="rotate(-90 49 1439)" fill="black" fill-opacity="0.33"/>
<rect x="1" y="1391" width="47" height="47" transform="rotate(-90 1 1391)" fill="black" fill-opacity="0.33"/>
<rect x="336" y="1343" width="47" height="47" transform="rotate(180 336 1343)" fill="black" fill-opacity="0.33"/>
<rect x="336" y="1199" width="47" height="47" transform="rotate(180 336 1199)" fill="black" fill-opacity="0.33"/>
<rect x="288" y="1151" width="47" height="47" transform="rotate(180 288 1151)" fill="black" fill-opacity="0.33"/>
<rect x="240" y="1391" width="47" height="47" transform="rotate(180 240 1391)" fill="black" fill-opacity="0.33"/>
<rect x="192" y="1439" width="47" height="47" transform="rotate(180 192 1439)" fill="black" fill-opacity="0.33"/>
<rect x="49" y="816" width="47" height="47" fill="black" fill-opacity="0.33"/>
<rect x="97" y="864" width="47" height="47" fill="black" fill-opacity="0.33"/>
<rect x="145" y="960" width="47" height="47" fill="black" fill-opacity="0.33"/>
<rect x="49" y="1008" width="47" height="47" fill="black" fill-opacity="0.33"/>
<rect x="1" y="864" width="47" height="47" fill="black" fill-opacity="0.33"/>
<rect x="289" y="1008" width="47" height="47" fill="black" fill-opacity="0.33"/>
<rect x="337" y="816" width="47" height="47" fill="black" fill-opacity="0.33"/>
<rect x="289" y="720" width="47" height="47" fill="black" fill-opacity="0.33"/>
<rect x="289" y="624" width="47" height="47" fill="black" fill-opacity="0.33"/>
<rect x="385" y="672" width="47" height="47" fill="black" fill-opacity="0.33"/>
<rect x="433" y="576" width="47" height="47" fill="black" fill-opacity="0.33"/>
<rect x="145" y="624" width="47" height="47" fill="black" fill-opacity="0.33"/>
<rect x="193" y="576" width="47" height="47" fill="black" fill-opacity="0.33"/>
<rect x="289" y="480" width="47" height="47" fill="black" fill-opacity="0.33"/>
<rect x="241" y="911" width="47" height="47" transform="rotate(-90 241 911)" fill="black" fill-opacity="0.33"/>
<rect x="385" y="911" width="47" height="47" transform="rotate(-90 385 911)" fill="black" fill-opacity="0.33"/>
<rect x="433" y="863" width="47" height="47" transform="rotate(-90 433 863)" fill="black" fill-opacity="0.33"/>
<rect x="193" y="815" width="47" height="47" transform="rotate(-90 193 815)" fill="black" fill-opacity="0.33"/>
<rect x="145" y="767" width="47" height="47" transform="rotate(-90 145 767)" fill="black" fill-opacity="0.33"/>
<rect x="1104" y="192" width="47" height="47" transform="rotate(90 1104 192)" fill="black" fill-opacity="0.33"/>
<rect x="1200" y="144" width="47" height="47" transform="rotate(90 1200 144)" fill="black" fill-opacity="0.33"/>
<rect x="1296" y="144" width="47" height="47" transform="rotate(90 1296 144)" fill="black" fill-opacity="0.33"/>
<rect x="1248" y="240" width="47" height="47" transform="rotate(90 1248 240)" fill="black" fill-opacity="0.33"/>
<rect x="1344" y="288" width="47" height="47" transform="rotate(90 1344 288)" fill="black" fill-opacity="0.33"/>
<rect x="1344" y="48" width="47" height="47" transform="rotate(90 1344 48)" fill="black" fill-opacity="0.33"/>
<rect x="1009" y="96" width="47" height="47" fill="black" fill-opacity="0.33"/>
<rect x="1009" y="240" width="47" height="47" fill="black" fill-opacity="0.33"/>
<rect x="1057" y="288" width="47" height="47" fill="black" fill-opacity="0.33"/>
<rect x="2304" y="1439" width="47" height="47" transform="rotate(-180 2304 1439)" fill="black" fill-opacity="0.33"/>
<rect x="2304" y="1295" width="47" height="47" transform="rotate(-180 2304 1295)" fill="black" fill-opacity="0.33"/>
<rect x="2256" y="1247" width="47" height="47" transform="rotate(-180 2256 1247)" fill="black" fill-opacity="0.33"/>
<rect x="2208" y="1151" width="47" height="47" transform="rotate(-180 2208 1151)" fill="black" fill-opacity="0.33"/>
<rect x="2304" y="863" width="47" height="47" transform="rotate(-180 2304 863)" fill="black" fill-opacity="0.33"/>
<rect x="2256" y="911" width="47" height="47" transform="rotate(-180 2256 911)" fill="black" fill-opacity="0.33"/>
<rect x="2304" y="1103" width="47" height="47" transform="rotate(-180 2304 1103)" fill="black" fill-opacity="0.33"/>
<rect x="2064" y="1103" width="47" height="47" transform="rotate(-180 2064 1103)" fill="black" fill-opacity="0.33"/>
<rect x="2016" y="1295" width="47" height="47" transform="rotate(-180 2016 1295)" fill="black" fill-opacity="0.33"/>
<rect x="2064" y="1391" width="47" height="47" transform="rotate(-180 2064 1391)" fill="black" fill-opacity="0.33"/>
<rect x="2064" y="1487" width="47" height="47" transform="rotate(-180 2064 1487)" fill="black" fill-opacity="0.33"/>
<rect x="1968" y="1439" width="47" height="47" transform="rotate(-180 1968 1439)" fill="black" fill-opacity="0.33"/>
<rect x="1920" y="1535" width="47" height="47" transform="rotate(-180 1920 1535)" fill="black" fill-opacity="0.33"/>
<rect x="2208" y="1487" width="47" height="47" transform="rotate(-180 2208 1487)" fill="black" fill-opacity="0.33"/>
<rect x="2160" y="1535" width="47" height="47" transform="rotate(-180 2160 1535)" fill="black" fill-opacity="0.33"/>
<rect x="2112" y="1200" width="47" height="47" transform="rotate(90 2112 1200)" fill="black" fill-opacity="0.33"/>
<rect x="1968" y="1200" width="47" height="47" transform="rotate(90 1968 1200)" fill="black" fill-opacity="0.33"/>
<rect x="1920" y="1248" width="47" height="47" transform="rotate(90 1920 1248)" fill="black" fill-opacity="0.33"/>
<rect x="2160" y="1296" width="47" height="47" transform="rotate(90 2160 1296)" fill="black" fill-opacity="0.33"/>
<rect x="2208" y="1344" width="47" height="47" transform="rotate(90 2208 1344)" fill="black" fill-opacity="0.33"/>
<rect x="1585" y="1488" width="47" height="47" transform="rotate(-90 1585 1488)" fill="black" fill-opacity="0.33"/>
<rect x="1633" y="1440" width="47" height="47" transform="rotate(-90 1633 1440)" fill="black" fill-opacity="0.33"/>
<rect x="1729" y="1392" width="47" height="47" transform="rotate(-90 1729 1392)" fill="black" fill-opacity="0.33"/>
<rect x="1777" y="1488" width="47" height="47" transform="rotate(-90 1777 1488)" fill="black" fill-opacity="0.33"/>
<rect x="1777" y="1247" width="47" height="47" transform="rotate(-90 1777 1247)" fill="black" fill-opacity="0.33"/>
<rect x="1585" y="1199" width="47" height="47" transform="rotate(-90 1585 1199)" fill="black" fill-opacity="0.33"/>
<rect x="1489" y="1247" width="47" height="47" transform="rotate(-90 1489 1247)" fill="black" fill-opacity="0.33"/>
<rect x="1393" y="1247" width="47" height="47" transform="rotate(-90 1393 1247)" fill="black" fill-opacity="0.33"/>
<rect x="1441" y="1151" width="47" height="47" transform="rotate(-90 1441 1151)" fill="black" fill-opacity="0.33"/>
<rect x="1345" y="1104" width="47" height="47" transform="rotate(-90 1345 1104)" fill="black" fill-opacity="0.33"/>
<rect x="1393" y="1391" width="47" height="47" transform="rotate(-90 1393 1391)" fill="black" fill-opacity="0.33"/>
<rect x="1441" y="1487" width="47" height="47" transform="rotate(-90 1441 1487)" fill="black" fill-opacity="0.33"/>
<rect x="1345" y="1535" width="47" height="47" transform="rotate(-90 1345 1535)" fill="black" fill-opacity="0.33"/>
<rect x="1345" y="1343" width="47" height="47" transform="rotate(-90 1345 1343)" fill="black" fill-opacity="0.33"/>
<rect x="1680" y="1295" width="47" height="47" transform="rotate(-180 1680 1295)" fill="black" fill-opacity="0.33"/>
<rect x="1680" y="1151" width="47" height="47" transform="rotate(-180 1680 1151)" fill="black" fill-opacity="0.33"/>
<rect x="1632" y="1103" width="47" height="47" transform="rotate(-180 1632 1103)" fill="black" fill-opacity="0.33"/>
<rect x="1584" y="1343" width="47" height="47" transform="rotate(-180 1584 1343)" fill="black" fill-opacity="0.33"/>
<rect x="1536" y="1391" width="47" height="47" transform="rotate(-180 1536 1391)" fill="black" fill-opacity="0.33"/>
<rect x="2208" width="47" height="47" transform="rotate(90 2208 0)" fill="black" fill-opacity="0.33"/>
<rect x="2064" width="47" height="47" transform="rotate(90 2064 0)" fill="black" fill-opacity="0.33"/>
<rect x="2016" y="48" width="47" height="47" transform="rotate(90 2016 48)" fill="black" fill-opacity="0.33"/>
<rect x="1920" y="96" width="47" height="47" transform="rotate(90 1920 96)" fill="black" fill-opacity="0.33"/>
<rect x="1872" width="47" height="47" transform="rotate(90 1872 0)" fill="black" fill-opacity="0.33"/>
<rect x="1872" y="240" width="47" height="47" transform="rotate(90 1872 240)" fill="black" fill-opacity="0.33"/>
<rect x="2064" y="288" width="47" height="47" transform="rotate(90 2064 288)" fill="black" fill-opacity="0.33"/>
<rect x="2160" y="240" width="47" height="47" transform="rotate(90 2160 240)" fill="black" fill-opacity="0.33"/>
<rect x="2256" y="240" width="47" height="47" transform="rotate(90 2256 240)" fill="black" fill-opacity="0.33"/>
<rect x="2208" y="337" width="47" height="47" transform="rotate(90 2208 337)" fill="black" fill-opacity="0.33"/>
<rect x="2304" y="384" width="47" height="47" transform="rotate(90 2304 384)" fill="black" fill-opacity="0.33"/>
<rect x="2256" y="96" width="47" height="47" transform="rotate(90 2256 96)" fill="black" fill-opacity="0.33"/>
<rect x="2304" y="144" width="47" height="47" transform="rotate(90 2304 144)" fill="black" fill-opacity="0.33"/>
<rect x="1969" y="192" width="47" height="47" fill="black" fill-opacity="0.33"/>
<rect x="1969" y="336" width="47" height="47" fill="black" fill-opacity="0.33"/>
<rect x="2017" y="384" width="47" height="47" fill="black" fill-opacity="0.33"/>
<rect x="2065" y="144" width="47" height="47" fill="black" fill-opacity="0.33"/>
<rect x="2113" y="96" width="47" height="47" fill="black" fill-opacity="0.33"/>
<rect x="2256" y="719" width="47" height="47" transform="rotate(-180 2256 719)" fill="black" fill-opacity="0.33"/>
<rect x="2208" y="671" width="47" height="47" transform="rotate(-180 2208 671)" fill="black" fill-opacity="0.33"/>
<rect x="2160" y="575" width="47" height="47" transform="rotate(-180 2160 575)" fill="black" fill-opacity="0.33"/>
<rect x="2256" y="527" width="47" height="47" transform="rotate(-180 2256 527)" fill="black" fill-opacity="0.33"/>
<rect x="2304" y="671" width="47" height="47" transform="rotate(-180 2304 671)" fill="black" fill-opacity="0.33"/>
<rect x="2016" y="527" width="47" height="47" transform="rotate(-180 2016 527)" fill="black" fill-opacity="0.33"/>
<rect x="1968" y="719" width="47" height="47" transform="rotate(-180 1968 719)" fill="black" fill-opacity="0.33"/>
<rect x="2016" y="815" width="47" height="47" transform="rotate(-180 2016 815)" fill="black" fill-opacity="0.33"/>
<rect x="2016" y="911" width="47" height="47" transform="rotate(-180 2016 911)" fill="black" fill-opacity="0.33"/>
<rect x="1920" y="863" width="47" height="47" transform="rotate(-180 1920 863)" fill="black" fill-opacity="0.33"/>
<rect x="1872" y="959" width="47" height="47" transform="rotate(-180 1872 959)" fill="black" fill-opacity="0.33"/>
<rect x="2160" y="911" width="47" height="47" transform="rotate(-180 2160 911)" fill="black" fill-opacity="0.33"/>
<rect x="2112" y="959" width="47" height="47" transform="rotate(-180 2112 959)" fill="black" fill-opacity="0.33"/>
<rect x="2016" y="1055" width="47" height="47" transform="rotate(-180 2016 1055)" fill="black" fill-opacity="0.33"/>
<rect x="2064" y="624" width="47" height="47" transform="rotate(90 2064 624)" fill="black" fill-opacity="0.33"/>
<rect x="1920" y="624" width="47" height="47" transform="rotate(90 1920 624)" fill="black" fill-opacity="0.33"/>
<rect x="1872" y="672" width="47" height="47" transform="rotate(90 1872 672)" fill="black" fill-opacity="0.33"/>
<rect x="2112" y="720" width="47" height="47" transform="rotate(90 2112 720)" fill="black" fill-opacity="0.33"/>
<rect x="2160" y="768" width="47" height="47" transform="rotate(90 2160 768)" fill="black" fill-opacity="0.33"/>
<rect x="1201" y="1343" width="47" height="47" transform="rotate(-90 1201 1343)" fill="black" fill-opacity="0.33"/>
<rect x="1105" y="1391" width="47" height="47" transform="rotate(-90 1105 1391)" fill="black" fill-opacity="0.33"/>
<rect x="1009" y="1391" width="47" height="47" transform="rotate(-90 1009 1391)" fill="black" fill-opacity="0.33"/>
<rect x="1057" y="1295" width="47" height="47" transform="rotate(-90 1057 1295)" fill="black" fill-opacity="0.33"/>
<rect x="961" y="1247" width="47" height="47" transform="rotate(-90 961 1247)" fill="black" fill-opacity="0.33"/>
<rect x="1009" y="1535" width="47" height="47" transform="rotate(-90 1009 1535)" fill="black" fill-opacity="0.33"/>
<rect x="961" y="1487" width="47" height="47" transform="rotate(-90 961 1487)" fill="black" fill-opacity="0.33"/>
<rect x="1296" y="1439" width="47" height="47" transform="rotate(-180 1296 1439)" fill="black" fill-opacity="0.33"/>
<rect x="1296" y="1295" width="47" height="47" transform="rotate(-180 1296 1295)" fill="black" fill-opacity="0.33"/>
<rect x="1248" y="1247" width="47" height="47" transform="rotate(-180 1248 1247)" fill="black" fill-opacity="0.33"/>
<rect x="1200" y="1487" width="47" height="47" transform="rotate(-180 1200 1487)" fill="black" fill-opacity="0.33"/>
<rect x="1152" y="1535" width="47" height="47" transform="rotate(-180 1152 1535)" fill="black" fill-opacity="0.33"/>
<rect x="913" y="1103" width="47" height="47" transform="rotate(-90 913 1103)" fill="black" fill-opacity="0.33"/>
<rect x="1057" y="1103" width="47" height="47" transform="rotate(-90 1057 1103)" fill="black" fill-opacity="0.33"/>
<rect x="1105" y="1055" width="47" height="47" transform="rotate(-90 1105 1055)" fill="black" fill-opacity="0.33"/>
<rect x="1201" y="1007" width="47" height="47" transform="rotate(-90 1201 1007)" fill="black" fill-opacity="0.33"/>
<rect x="1345" y="1055" width="47" height="47" transform="rotate(-90 1345 1055)" fill="black" fill-opacity="0.33"/>
<rect x="1489" y="1103" width="47" height="47" transform="rotate(-90 1489 1103)" fill="black" fill-opacity="0.33"/>
<rect x="1441" y="1055" width="47" height="47" transform="rotate(-90 1441 1055)" fill="black" fill-opacity="0.33"/>
<rect x="1249" y="1103" width="47" height="47" transform="rotate(-90 1249 1103)" fill="black" fill-opacity="0.33"/>
<rect x="1249" y="863" width="47" height="47" transform="rotate(-90 1249 863)" fill="black" fill-opacity="0.33"/>
<rect x="1057" y="815" width="47" height="47" transform="rotate(-90 1057 815)" fill="black" fill-opacity="0.33"/>
<rect x="961" y="863" width="47" height="47" transform="rotate(-90 961 863)" fill="black" fill-opacity="0.33"/>
<rect x="865" y="863" width="47" height="47" transform="rotate(-90 865 863)" fill="black" fill-opacity="0.33"/>
<rect x="913" y="767" width="47" height="47" transform="rotate(-90 913 767)" fill="black" fill-opacity="0.33"/>
<rect x="481" y="1535" width="47" height="47" transform="rotate(-90 481 1535)" fill="black" fill-opacity="0.33"/>
<rect x="865" y="1007" width="47" height="47" transform="rotate(-90 865 1007)" fill="black" fill-opacity="0.33"/>
<rect x="817" y="959" width="47" height="47" transform="rotate(-90 817 959)" fill="black" fill-opacity="0.33"/>
<rect x="1152" y="911" width="47" height="47" transform="rotate(180 1152 911)" fill="black" fill-opacity="0.33"/>
<rect x="1152" y="767" width="47" height="47" transform="rotate(180 1152 767)" fill="black" fill-opacity="0.33"/>
<rect x="768" y="1535" width="47" height="47" transform="rotate(180 768 1535)" fill="black" fill-opacity="0.33"/>
<rect x="1056" y="959" width="47" height="47" transform="rotate(180 1056 959)" fill="black" fill-opacity="0.33"/>
<rect x="1008" y="1007" width="47" height="47" transform="rotate(180 1008 1007)" fill="black" fill-opacity="0.33"/>
<rect x="528" y="1200" width="47" height="47" fill="black" fill-opacity="0.33"/>
<rect x="576" y="1248" width="47" height="47" fill="black" fill-opacity="0.33"/>
<rect x="624" y="1344" width="47" height="47" fill="black" fill-opacity="0.33"/>
<rect x="528" y="1392" width="47" height="47" fill="black" fill-opacity="0.33"/>
<rect x="769" y="1392" width="47" height="47" fill="black" fill-opacity="0.33"/>
<rect x="817" y="1200" width="47" height="47" fill="black" fill-opacity="0.33"/>
<rect x="769" y="1104" width="47" height="47" fill="black" fill-opacity="0.33"/>
<rect x="769" y="1008" width="47" height="47" fill="black" fill-opacity="0.33"/>
<rect x="865" y="1056" width="47" height="47" fill="black" fill-opacity="0.33"/>
<rect x="912" y="960" width="47" height="47" fill="black" fill-opacity="0.33"/>
<rect x="625" y="1008" width="47" height="47" fill="black" fill-opacity="0.33"/>
<rect x="529" y="1056" width="47" height="47" fill="black" fill-opacity="0.33"/>
<rect x="481" y="960" width="47" height="47" fill="black" fill-opacity="0.33"/>
<rect x="673" y="960" width="47" height="47" fill="black" fill-opacity="0.33"/>
<rect x="721" y="1295" width="47" height="47" transform="rotate(-90 721 1295)" fill="black" fill-opacity="0.33"/>
<rect x="865" y="1295" width="47" height="47" transform="rotate(-90 865 1295)" fill="black" fill-opacity="0.33"/>
<rect x="913" y="1247" width="47" height="47" transform="rotate(-90 913 1247)" fill="black" fill-opacity="0.33"/>
<rect x="673" y="1199" width="47" height="47" transform="rotate(-90 673 1199)" fill="black" fill-opacity="0.33"/>
<rect x="625" y="1151" width="47" height="47" transform="rotate(-90 625 1151)" fill="black" fill-opacity="0.33"/>
<rect x="2304" y="815" width="47" height="47" transform="rotate(180 2304 815)" fill="black" fill-opacity="0.33"/>
<rect x="2016" y="1487" width="47" height="47" transform="rotate(180 2016 1487)" fill="black" fill-opacity="0.33"/>
<rect x="1776" y="1487" width="47" height="47" transform="rotate(180 1776 1487)" fill="black" fill-opacity="0.33"/>
<rect x="2064" y="863" width="47" height="47" transform="rotate(180 2064 863)" fill="black" fill-opacity="0.33"/>
<rect x="2112" y="1055" width="47" height="47" transform="rotate(180 2112 1055)" fill="black" fill-opacity="0.33"/>
<rect x="2015" y="1007" width="47" height="47" transform="rotate(180 2015 1007)" fill="black" fill-opacity="0.33"/>
<rect x="1968" y="1103" width="47" height="47" transform="rotate(180 1968 1103)" fill="black" fill-opacity="0.33"/>
<rect x="2256" y="1055" width="47" height="47" transform="rotate(180 2256 1055)" fill="black" fill-opacity="0.33"/>
<rect x="2208" y="1103" width="47" height="47" transform="rotate(180 2208 1103)" fill="black" fill-opacity="0.33"/>
<rect x="1968" y="816" width="47" height="47" transform="rotate(90 1968 816)" fill="black" fill-opacity="0.33"/>
<rect x="2256" y="912" width="47" height="47" transform="rotate(90 2256 912)" fill="black" fill-opacity="0.33"/>
<rect x="1633" y="1055" width="47" height="47" transform="rotate(-90 1633 1055)" fill="black" fill-opacity="0.33"/>
<rect x="1681" y="1007" width="47" height="47" transform="rotate(-90 1681 1007)" fill="black" fill-opacity="0.33"/>
<rect x="1777" y="959" width="47" height="47" transform="rotate(-90 1777 959)" fill="black" fill-opacity="0.33"/>
<rect x="1825" y="1055" width="47" height="47" transform="rotate(-90 1825 1055)" fill="black" fill-opacity="0.33"/>
<rect x="1681" y="1103" width="47" height="47" transform="rotate(-90 1681 1103)" fill="black" fill-opacity="0.33"/>
<rect x="1825" y="815" width="47" height="47" transform="rotate(-90 1825 815)" fill="black" fill-opacity="0.33"/>
<rect x="1633" y="767" width="47" height="47" transform="rotate(-90 1633 767)" fill="black" fill-opacity="0.33"/>
<rect x="1537" y="815" width="47" height="47" transform="rotate(-90 1537 815)" fill="black" fill-opacity="0.33"/>
<rect x="1441" y="815" width="47" height="47" transform="rotate(-90 1441 815)" fill="black" fill-opacity="0.33"/>
<rect x="1153" y="1535" width="47" height="47" transform="rotate(-90 1153 1535)" fill="black" fill-opacity="0.33"/>
<rect x="1057" y="1487" width="47" height="47" transform="rotate(-90 1057 1487)" fill="black" fill-opacity="0.33"/>
<rect x="1441" y="959" width="47" height="47" transform="rotate(-90 1441 959)" fill="black" fill-opacity="0.33"/>
<rect x="1393" y="911" width="47" height="47" transform="rotate(-90 1393 911)" fill="black" fill-opacity="0.33"/>
<rect x="1297" y="815" width="47" height="47" transform="rotate(-90 1297 815)" fill="black" fill-opacity="0.33"/>
<rect x="1728" y="863" width="47" height="47" transform="rotate(180 1728 863)" fill="black" fill-opacity="0.33"/>
<rect x="1344" y="1487" width="47" height="47" transform="rotate(180 1344 1487)" fill="black" fill-opacity="0.33"/>
<rect x="1632" y="911" width="47" height="47" transform="rotate(180 1632 911)" fill="black" fill-opacity="0.33"/>
<rect x="1584" y="959" width="47" height="47" transform="rotate(180 1584 959)" fill="black" fill-opacity="0.33"/>
<rect x="673" y="816" width="47" height="47" fill="black" fill-opacity="0.33"/>
<rect x="625" y="720" width="47" height="47" fill="black" fill-opacity="0.33"/>
<rect x="625" y="624" width="47" height="47" fill="black" fill-opacity="0.33"/>
<rect x="721" y="672" width="47" height="47" fill="black" fill-opacity="0.33"/>
<rect x="769" y="576" width="47" height="47" fill="black" fill-opacity="0.33"/>
<rect x="481" y="624" width="47" height="47" fill="black" fill-opacity="0.33"/>
<rect x="529" y="576" width="47" height="47" fill="black" fill-opacity="0.33"/>
<rect x="577" y="911" width="47" height="47" transform="rotate(-90 577 911)" fill="black" fill-opacity="0.33"/>
<rect x="721" y="911" width="47" height="47" transform="rotate(-90 721 911)" fill="black" fill-opacity="0.33"/>
<rect x="769" y="863" width="47" height="47" transform="rotate(-90 769 863)" fill="black" fill-opacity="0.33"/>
<rect x="529" y="815" width="47" height="47" transform="rotate(-90 529 815)" fill="black" fill-opacity="0.33"/>
<rect x="481" y="767" width="47" height="47" transform="rotate(-90 481 767)" fill="black" fill-opacity="0.33"/>
<rect x="1776" y="336" width="47" height="47" transform="rotate(90 1776 336)" fill="black" fill-opacity="0.33"/>
<rect x="1584" y="384" width="47" height="47" transform="rotate(90 1584 384)" fill="black" fill-opacity="0.33"/>
<rect x="1488" y="432" width="47" height="47" transform="rotate(90 1488 432)" fill="black" fill-opacity="0.33"/>
<rect x="1344" y="384" width="47" height="47" transform="rotate(90 1344 384)" fill="black" fill-opacity="0.33"/>
<rect x="1200" y="336" width="47" height="47" transform="rotate(90 1200 336)" fill="black" fill-opacity="0.33"/>
<rect x="1248" y="384" width="47" height="47" transform="rotate(90 1248 384)" fill="black" fill-opacity="0.33"/>
<rect x="1440" y="336" width="47" height="47" transform="rotate(90 1440 336)" fill="black" fill-opacity="0.33"/>
<rect x="1440" y="576" width="47" height="47" transform="rotate(90 1440 576)" fill="black" fill-opacity="0.33"/>
<rect x="1632" y="624" width="47" height="47" transform="rotate(90 1632 624)" fill="black" fill-opacity="0.33"/>
<rect x="1728" y="576" width="47" height="47" transform="rotate(90 1728 576)" fill="black" fill-opacity="0.33"/>
<rect x="1824" y="576" width="47" height="47" transform="rotate(90 1824 576)" fill="black" fill-opacity="0.33"/>
<rect x="2016" width="47" height="47" transform="rotate(90 2016 0)" fill="black" fill-opacity="0.33"/>
<rect x="1824" y="432" width="47" height="47" transform="rotate(90 1824 432)" fill="black" fill-opacity="0.33"/>
<rect x="1872" y="480" width="47" height="47" transform="rotate(90 1872 480)" fill="black" fill-opacity="0.33"/>
<rect x="1537" y="528" width="47" height="47" fill="black" fill-opacity="0.33"/>
<rect x="1537" y="672" width="47" height="47" fill="black" fill-opacity="0.33"/>
<rect x="1729" width="47" height="47" fill="black" fill-opacity="0.33"/>
<rect x="1633" y="480" width="47" height="47" fill="black" fill-opacity="0.33"/>
<rect x="1681" y="432" width="47" height="47" fill="black" fill-opacity="0.33"/>
<rect x="1969" y="335" width="47" height="47" transform="rotate(-180 1969 335)" fill="black" fill-opacity="0.33"/>
<rect x="1921" y="287" width="47" height="47" transform="rotate(-180 1921 287)" fill="black" fill-opacity="0.33"/>
<rect x="1873" y="191" width="47" height="47" transform="rotate(-180 1873 191)" fill="black" fill-opacity="0.33"/>
<rect x="1969" y="143" width="47" height="47" transform="rotate(-180 1969 143)" fill="black" fill-opacity="0.33"/>
<rect x="1728" y="143" width="47" height="47" transform="rotate(-180 1728 143)" fill="black" fill-opacity="0.33"/>
<rect x="1680" y="335" width="47" height="47" transform="rotate(-180 1680 335)" fill="black" fill-opacity="0.33"/>
<rect x="1728" y="431" width="47" height="47" transform="rotate(-180 1728 431)" fill="black" fill-opacity="0.33"/>
<rect x="1632" y="479" width="47" height="47" transform="rotate(-180 1632 479)" fill="black" fill-opacity="0.33"/>
<rect x="1968" y="479" width="47" height="47" transform="rotate(-180 1968 479)" fill="black" fill-opacity="0.33"/>
<rect x="2016" y="575" width="47" height="47" transform="rotate(-180 2016 575)" fill="black" fill-opacity="0.33"/>
<rect x="1824" y="575" width="47" height="47" transform="rotate(-180 1824 575)" fill="black" fill-opacity="0.33"/>
<rect x="1776" y="240" width="47" height="47" transform="rotate(90 1776 240)" fill="black" fill-opacity="0.33"/>
<rect x="1632" y="240" width="47" height="47" transform="rotate(90 1632 240)" fill="black" fill-opacity="0.33"/>
<rect x="1584" y="288" width="47" height="47" transform="rotate(90 1584 288)" fill="black" fill-opacity="0.33"/>
<rect x="1824" y="336" width="47" height="47" transform="rotate(90 1824 336)" fill="black" fill-opacity="0.33"/>
<rect x="1872" y="384" width="47" height="47" transform="rotate(90 1872 384)" fill="black" fill-opacity="0.33"/>
<rect x="337" y="432" width="47" height="47" fill="black" fill-opacity="0.33"/>
<rect x="337" y="576" width="47" height="47" fill="black" fill-opacity="0.33"/>
<rect x="385" y="624" width="47" height="47" fill="black" fill-opacity="0.33"/>
<rect x="577" width="47" height="47" fill="black" fill-opacity="0.33"/>
<rect x="721" y="48" width="47" height="47" fill="black" fill-opacity="0.33"/>
<rect x="625" y="576" width="47" height="47" fill="black" fill-opacity="0.33"/>
<rect x="577" y="480" width="47" height="47" fill="black" fill-opacity="0.33"/>
<rect x="577" y="384" width="47" height="47" fill="black" fill-opacity="0.33"/>
<rect x="721" y="336" width="47" height="47" fill="black" fill-opacity="0.33"/>
<rect x="433" y="384" width="47" height="47" fill="black" fill-opacity="0.33"/>
<rect x="481" y="336" width="47" height="47" fill="black" fill-opacity="0.33"/>
<rect x="529" y="671" width="47" height="47" transform="rotate(-90 529 671)" fill="black" fill-opacity="0.33"/>
<rect x="673" y="671" width="47" height="47" transform="rotate(-90 673 671)" fill="black" fill-opacity="0.33"/>
<rect x="721" y="623" width="47" height="47" transform="rotate(-90 721 623)" fill="black" fill-opacity="0.33"/>
<rect x="481" y="575" width="47" height="47" transform="rotate(-90 481 575)" fill="black" fill-opacity="0.33"/>
<rect x="433" y="527" width="47" height="47" transform="rotate(-90 433 527)" fill="black" fill-opacity="0.33"/>
<rect x="1056" y="384" width="47" height="47" transform="rotate(90 1056 384)" fill="black" fill-opacity="0.33"/>
<rect x="1008" y="432" width="47" height="47" transform="rotate(90 1008 432)" fill="black" fill-opacity="0.33"/>
<rect x="912" y="480" width="47" height="47" transform="rotate(90 912 480)" fill="black" fill-opacity="0.33"/>
<rect x="1008" y="336" width="47" height="47" transform="rotate(90 1008 336)" fill="black" fill-opacity="0.33"/>
<rect x="864" y="624" width="47" height="47" transform="rotate(90 864 624)" fill="black" fill-opacity="0.33"/>
<rect x="1056" y="672" width="47" height="47" transform="rotate(90 1056 672)" fill="black" fill-opacity="0.33"/>
<rect x="1152" y="624" width="47" height="47" transform="rotate(90 1152 624)" fill="black" fill-opacity="0.33"/>
<rect x="1248" y="624" width="47" height="47" transform="rotate(90 1248 624)" fill="black" fill-opacity="0.33"/>
<rect x="1344" width="47" height="47" transform="rotate(90 1344 0)" fill="black" fill-opacity="0.33"/>
<rect x="1440" y="48" width="47" height="47" transform="rotate(90 1440 48)" fill="black" fill-opacity="0.33"/>
<rect x="1248" y="480" width="47" height="47" transform="rotate(90 1248 480)" fill="black" fill-opacity="0.33"/>
<rect x="1296" y="528" width="47" height="47" transform="rotate(90 1296 528)" fill="black" fill-opacity="0.33"/>
<rect x="1392" y="624" width="47" height="47" transform="rotate(90 1392 624)" fill="black" fill-opacity="0.33"/>
<rect x="961" y="576" width="47" height="47" fill="black" fill-opacity="0.33"/>
<rect x="1105" width="47" height="47" fill="black" fill-opacity="0.33"/>
<rect x="1153" y="48" width="47" height="47" fill="black" fill-opacity="0.33"/>
<rect x="1057" y="528" width="47" height="47" fill="black" fill-opacity="0.33"/>
<rect x="1105" y="480" width="47" height="47" fill="black" fill-opacity="0.33"/>
<rect x="1824" y="719" width="47" height="47" transform="rotate(-180 1824 719)" fill="black" fill-opacity="0.33"/>
<rect x="1872" y="911" width="47" height="47" transform="rotate(-180 1872 911)" fill="black" fill-opacity="0.33"/>
<rect x="1776" y="863" width="47" height="47" transform="rotate(-180 1776 863)" fill="black" fill-opacity="0.33"/>
<rect x="1728" y="959" width="47" height="47" transform="rotate(-180 1728 959)" fill="black" fill-opacity="0.33"/>
<rect x="1968" y="959" width="47" height="47" transform="rotate(-180 1968 959)" fill="black" fill-opacity="0.33"/>
<rect x="1776" y="624" width="47" height="47" transform="rotate(90 1776 624)" fill="black" fill-opacity="0.33"/>
<rect x="1728" y="672" width="47" height="47" transform="rotate(90 1728 672)" fill="black" fill-opacity="0.33"/>
<rect x="1968" y="720" width="47" height="47" transform="rotate(90 1968 720)" fill="black" fill-opacity="0.33"/>
</svg>
