<svg width="2304" height="1536" viewBox="0 0 2304 1536" fill="none" xmlns="http://www.w3.org/2000/svg">
<line y1="-0.5" x2="768" y2="-0.5" transform="matrix(1 -8.74228e-08 -8.74228e-08 -1 0 720)" stroke="black"/>
<line y1="-0.5" x2="768" y2="-0.5" transform="matrix(1 -8.74228e-08 -8.74228e-08 -1 0.000244141 1488)" stroke="black"/>
<line y1="-0.5" x2="768" y2="-0.5" transform="matrix(1 -8.74228e-08 -8.74228e-08 -1 768 720)" stroke="black"/>
<line y1="-0.5" x2="768" y2="-0.5" transform="matrix(1 -8.74228e-08 -8.74228e-08 -1 1536 720)" stroke="black"/>
<line y1="-0.5" x2="768" y2="-0.5" transform="matrix(1 -8.74228e-08 -8.74228e-08 -1 768 1488)" stroke="black"/>
<line y1="-0.5" x2="768" y2="-0.5" transform="matrix(1 -8.74228e-08 -8.74228e-08 -1 1536 1488)" stroke="black"/>
<line y1="-0.5" x2="768" y2="-0.5" transform="matrix(1 -8.74228e-08 -8.74228e-08 -1 0 672)" stroke="black"/>
<line y1="-0.5" x2="768" y2="-0.5" transform="matrix(1 -8.74228e-08 -8.74228e-08 -1 0 1440)" stroke="black"/>
<line y1="-0.5" x2="768" y2="-0.5" transform="matrix(1 -8.74228e-08 -8.74228e-08 -1 768 672)" stroke="black"/>
<line y1="-0.5" x2="768" y2="-0.5" transform="matrix(1 -8.74228e-08 -8.74228e-08 -1 1536 672)" stroke="black"/>
<line y1="-0.5" x2="768" y2="-0.5" transform="matrix(1 -8.74228e-08 -8.74228e-08 -1 768 1440)" stroke="black"/>
<line y1="-0.5" x2="768" y2="-0.5" transform="matrix(1 -8.74228e-08 -8.74228e-08 -1 1536 1440)" stroke="black"/>
<line y1="-0.5" x2="768" y2="-0.5" transform="matrix(1 -8.74228e-08 -8.74228e-08 -1 0 624)" stroke="black"/>
<line y1="-0.5" x2="768" y2="-0.5" transform="matrix(1 -8.74228e-08 -8.74228e-08 -1 0 1392)" stroke="black"/>
<line y1="-0.5" x2="768" y2="-0.5" transform="matrix(1 -8.74228e-08 -8.74228e-08 -1 768 624)" stroke="black"/>
<line y1="-0.5" x2="768" y2="-0.5" transform="matrix(1 -8.74228e-08 -8.74228e-08 -1 1536 624)" stroke="black"/>
<line y1="-0.5" x2="768" y2="-0.5" transform="matrix(1 -8.74228e-08 -8.74228e-08 -1 768 1392)" stroke="black"/>
<line y1="-0.5" x2="768" y2="-0.5" transform="matrix(1 -8.74228e-08 -8.74228e-08 -1 1536 1392)" stroke="black"/>
<line y1="-0.5" x2="768" y2="-0.5" transform="matrix(1 -8.74228e-08 -8.74228e-08 -1 0 576)" stroke="black"/>
<line y1="-0.5" x2="768" y2="-0.5" transform="matrix(1 -8.74228e-08 -8.74228e-08 -1 0 1344)" stroke="black"/>
<line y1="-0.5" x2="768" y2="-0.5" transform="matrix(1 -8.74228e-08 -8.74228e-08 -1 768 576)" stroke="black"/>
<line y1="-0.5" x2="768" y2="-0.5" transform="matrix(1 -8.74228e-08 -8.74228e-08 -1 1536 576)" stroke="black"/>
<line y1="-0.5" x2="768" y2="-0.5" transform="matrix(1 -8.74228e-08 -8.74228e-08 -1 768 1344)" stroke="black"/>
<line y1="-0.5" x2="768" y2="-0.5" transform="matrix(1 -8.74228e-08 -8.74228e-08 -1 1536 1344)" stroke="black"/>
<line y1="-0.5" x2="768" y2="-0.5" transform="matrix(1 -8.74228e-08 -8.74228e-08 -1 0 528)" stroke="black"/>
<line y1="-0.5" x2="768" y2="-0.5" transform="matrix(1 -8.74228e-08 -8.74228e-08 -1 0 1296)" stroke="black"/>
<line y1="-0.5" x2="768" y2="-0.5" transform="matrix(1 -8.74228e-08 -8.74228e-08 -1 768 528)" stroke="black"/>
<line y1="-0.5" x2="768" y2="-0.5" transform="matrix(1 -8.74228e-08 -8.74228e-08 -1 1536 528)" stroke="black"/>
<line y1="-0.5" x2="768" y2="-0.5" transform="matrix(1 -8.74228e-08 -8.74228e-08 -1 768 1296)" stroke="black"/>
<line y1="-0.5" x2="768" y2="-0.5" transform="matrix(1 -8.74228e-08 -8.74228e-08 -1 1536 1296)" stroke="black"/>
<line y1="-0.5" x2="768" y2="-0.5" transform="matrix(1 -8.74228e-08 -8.74228e-08 -1 0 480)" stroke="black"/>
<line y1="-0.5" x2="768" y2="-0.5" transform="matrix(1 -8.74228e-08 -8.74228e-08 -1 0 1248)" stroke="black"/>
<line y1="-0.5" x2="768" y2="-0.5" transform="matrix(1 -8.74228e-08 -8.74228e-08 -1 768 480)" stroke="black"/>
<line y1="-0.5" x2="768" y2="-0.5" transform="matrix(1 -8.74228e-08 -8.74228e-08 -1 1536 480)" stroke="black"/>
<line y1="-0.5" x2="768" y2="-0.5" transform="matrix(1 -8.74228e-08 -8.74228e-08 -1 768 1248)" stroke="black"/>
<line y1="-0.5" x2="768" y2="-0.5" transform="matrix(1 -8.74228e-08 -8.74228e-08 -1 1536 1248)" stroke="black"/>
<line y1="-0.5" x2="768" y2="-0.5" transform="matrix(1 -8.74228e-08 -8.74228e-08 -1 0 432)" stroke="black"/>
<line y1="-0.5" x2="768" y2="-0.5" transform="matrix(1 -8.74228e-08 -8.74228e-08 -1 0 1200)" stroke="black"/>
<line y1="-0.5" x2="768" y2="-0.5" transform="matrix(1 -8.74228e-08 -8.74228e-08 -1 768 432)" stroke="black"/>
<line y1="-0.5" x2="768" y2="-0.5" transform="matrix(1 -8.74228e-08 -8.74228e-08 -1 1536 432)" stroke="black"/>
<line y1="-0.5" x2="768" y2="-0.5" transform="matrix(1 -8.74228e-08 -8.74228e-08 -1 768 1200)" stroke="black"/>
<line y1="-0.5" x2="768" y2="-0.5" transform="matrix(1 -8.74228e-08 -8.74228e-08 -1 1536 1200)" stroke="black"/>
<line y1="-0.5" x2="768" y2="-0.5" transform="matrix(1 -8.74228e-08 -8.74228e-08 -1 0 384)" stroke="black"/>
<line y1="-0.5" x2="768" y2="-0.5" transform="matrix(1 -8.74228e-08 -8.74228e-08 -1 0 1152)" stroke="black"/>
<line y1="-0.5" x2="768" y2="-0.5" transform="matrix(1 -8.74228e-08 -8.74228e-08 -1 768 384)" stroke="black"/>
<line y1="-0.5" x2="768" y2="-0.5" transform="matrix(1 -8.74228e-08 -8.74228e-08 -1 1536 384)" stroke="black"/>
<line y1="-0.5" x2="768" y2="-0.5" transform="matrix(1 -8.74228e-08 -8.74228e-08 -1 768 1152)" stroke="black"/>
<line y1="-0.5" x2="768" y2="-0.5" transform="matrix(1 -8.74228e-08 -8.74228e-08 -1 1536 1152)" stroke="black"/>
<line y1="-0.5" x2="768" y2="-0.5" transform="matrix(1 -8.74228e-08 -8.74228e-08 -1 0 336)" stroke="black"/>
<line y1="-0.5" x2="768" y2="-0.5" transform="matrix(1 -8.74228e-08 -8.74228e-08 -1 0 1104)" stroke="black"/>
<line y1="-0.5" x2="768" y2="-0.5" transform="matrix(1 -8.74228e-08 -8.74228e-08 -1 768 336)" stroke="black"/>
<line y1="-0.5" x2="768" y2="-0.5" transform="matrix(1 -8.74228e-08 -8.74228e-08 -1 1536 336)" stroke="black"/>
<line y1="-0.5" x2="768" y2="-0.5" transform="matrix(1 -8.74228e-08 -8.74228e-08 -1 768 1104)" stroke="black"/>
<line y1="-0.5" x2="768" y2="-0.5" transform="matrix(1 -8.74228e-08 -8.74228e-08 -1 1536 1104)" stroke="black"/>
<line y1="-0.5" x2="768" y2="-0.5" transform="matrix(1 -8.74228e-08 -8.74228e-08 -1 0 288)" stroke="black"/>
<line y1="-0.5" x2="768" y2="-0.5" transform="matrix(1 -8.74228e-08 -8.74228e-08 -1 0 1056)" stroke="black"/>
<line y1="-0.5" x2="768" y2="-0.5" transform="matrix(1 -8.74228e-08 -8.74228e-08 -1 768 288)" stroke="black"/>
<line y1="-0.5" x2="768" y2="-0.5" transform="matrix(1 -8.74228e-08 -8.74228e-08 -1 1536 288)" stroke="black"/>
<line y1="-0.5" x2="768" y2="-0.5" transform="matrix(1 -8.74228e-08 -8.74228e-08 -1 768 1056)" stroke="black"/>
<line y1="-0.5" x2="768" y2="-0.5" transform="matrix(1 -8.74228e-08 -8.74228e-08 -1 1536 1056)" stroke="black"/>
<line y1="-0.5" x2="768" y2="-0.5" transform="matrix(1 -8.74228e-08 -8.74228e-08 -1 0 240)" stroke="black"/>
<line y1="-0.5" x2="768" y2="-0.5" transform="matrix(1 -8.74228e-08 -8.74228e-08 -1 0 1008)" stroke="black"/>
<line y1="-0.5" x2="768" y2="-0.5" transform="matrix(1 -8.74228e-08 -8.74228e-08 -1 768 240)" stroke="black"/>
<line y1="-0.5" x2="768" y2="-0.5" transform="matrix(1 -8.74228e-08 -8.74228e-08 -1 1536 240)" stroke="black"/>
<line y1="-0.5" x2="768" y2="-0.5" transform="matrix(1 -8.74228e-08 -8.74228e-08 -1 768 1008)" stroke="black"/>
<line y1="-0.5" x2="768" y2="-0.5" transform="matrix(1 -8.74228e-08 -8.74228e-08 -1 1536 1008)" stroke="black"/>
<line y1="-0.5" x2="768" y2="-0.5" transform="matrix(1 -8.74228e-08 -8.74228e-08 -1 0 192)" stroke="black"/>
<line y1="-0.5" x2="768" y2="-0.5" transform="matrix(1 -8.74228e-08 -8.74228e-08 -1 0 960)" stroke="black"/>
<line y1="-0.5" x2="768" y2="-0.5" transform="matrix(1 -8.74228e-08 -8.74228e-08 -1 768 192)" stroke="black"/>
<line y1="-0.5" x2="768" y2="-0.5" transform="matrix(1 -8.74228e-08 -8.74228e-08 -1 1536 192)" stroke="black"/>
<line y1="-0.5" x2="768" y2="-0.5" transform="matrix(1 -8.74228e-08 -8.74228e-08 -1 768 960)" stroke="black"/>
<line y1="-0.5" x2="768" y2="-0.5" transform="matrix(1 -8.74228e-08 -8.74228e-08 -1 1536 960)" stroke="black"/>
<line y1="-0.5" x2="768" y2="-0.5" transform="matrix(1 -8.74228e-08 -8.74228e-08 -1 0 144)" stroke="black"/>
<line y1="-0.5" x2="768" y2="-0.5" transform="matrix(1 -8.74228e-08 -8.74228e-08 -1 0 912)" stroke="black"/>
<line y1="-0.5" x2="768" y2="-0.5" transform="matrix(1 -8.74228e-08 -8.74228e-08 -1 768 144)" stroke="black"/>
<line y1="-0.5" x2="768" y2="-0.5" transform="matrix(1 -8.74228e-08 -8.74228e-08 -1 1536 144)" stroke="black"/>
<line y1="-0.5" x2="768" y2="-0.5" transform="matrix(1 -8.74228e-08 -8.74228e-08 -1 768 912)" stroke="black"/>
<line y1="-0.5" x2="768" y2="-0.5" transform="matrix(1 -8.74228e-08 -8.74228e-08 -1 1536 912)" stroke="black"/>
<line y1="-0.5" x2="768" y2="-0.5" transform="matrix(1 -8.74228e-08 -8.74228e-08 -1 0 96.0001)" stroke="black"/>
<line y1="-0.5" x2="768" y2="-0.5" transform="matrix(1 -8.74228e-08 -8.74228e-08 -1 0 864)" stroke="black"/>
<line y1="-0.5" x2="768" y2="-0.5" transform="matrix(1 -8.74228e-08 -8.74228e-08 -1 768 96)" stroke="black"/>
<line y1="-0.5" x2="768" y2="-0.5" transform="matrix(1 -8.74228e-08 -8.74228e-08 -1 1536 96)" stroke="black"/>
<line y1="-0.5" x2="768" y2="-0.5" transform="matrix(1 -8.74228e-08 -8.74228e-08 -1 768 864)" stroke="black"/>
<line y1="-0.5" x2="768" y2="-0.5" transform="matrix(1 -8.74228e-08 -8.74228e-08 -1 1536 864)" stroke="black"/>
<line y1="-0.5" x2="768" y2="-0.5" transform="matrix(1 -8.74228e-08 -8.74228e-08 -1 0 48.0001)" stroke="black"/>
<line y1="-0.5" x2="768" y2="-0.5" transform="matrix(1 -8.74228e-08 -8.74228e-08 -1 0 816)" stroke="black"/>
<line y1="-0.5" x2="768" y2="-0.5" transform="matrix(1 -8.74228e-08 -8.74228e-08 -1 768 48)" stroke="black"/>
<line y1="-0.5" x2="768" y2="-0.5" transform="matrix(1 -8.74228e-08 -8.74228e-08 -1 1536 48)" stroke="black"/>
<line y1="-0.5" x2="768" y2="-0.5" transform="matrix(1 -8.74228e-08 -8.74228e-08 -1 768 816)" stroke="black"/>
<line y1="-0.5" x2="768" y2="-0.5" transform="matrix(1 -8.74228e-08 -8.74228e-08 -1 1536 816)" stroke="black"/>
<line y1="-0.5" x2="768" y2="-0.5" transform="matrix(1 -8.74228e-08 -8.74228e-08 -1 0 0.00012207)" stroke="black"/>
<line y1="-0.5" x2="768" y2="-0.5" transform="matrix(1 -8.74228e-08 -8.74228e-08 -1 0 768)" stroke="black"/>
<line y1="-0.5" x2="768" y2="-0.5" transform="matrix(1 -8.74228e-08 -8.74228e-08 -1 768 0)" stroke="black"/>
<line y1="-0.5" x2="768" y2="-0.5" transform="matrix(1 -8.74228e-08 -8.74228e-08 -1 1536 0)" stroke="black"/>
<line y1="-0.5" x2="768" y2="-0.5" transform="matrix(1 -8.74228e-08 -8.74228e-08 -1 768 768)" stroke="black"/>
<line y1="-0.5" x2="768" y2="-0.5" transform="matrix(1 -8.74228e-08 -8.74228e-08 -1 1536 768)" stroke="black"/>
<line y1="-0.5" x2="768" y2="-0.5" transform="matrix(-1.31134e-07 -1 -1 1.31134e-07 720 768)" stroke="black"/>
<line y1="-0.5" x2="768" y2="-0.5" transform="matrix(-1.31134e-07 -1 -1 1.31134e-07 720 1536)" stroke="black"/>
<line y1="-0.5" x2="768" y2="-0.5" transform="matrix(-1.31134e-07 -1 -1 1.31134e-07 1488 768)" stroke="black"/>
<line y1="-0.5" x2="768" y2="-0.5" transform="matrix(-1.31134e-07 -1 -1 1.31134e-07 2256 768)" stroke="black"/>
<line y1="-0.5" x2="768" y2="-0.5" transform="matrix(-1.31134e-07 -1 -1 1.31134e-07 1488 1536)" stroke="black"/>
<line y1="-0.5" x2="1536" y2="-0.5" transform="matrix(-8.74228e-08 -1 -1 8.74228e-08 1536 1536)" stroke="black"/>
<line y1="-0.5" x2="768" y2="-0.5" transform="matrix(-1.31134e-07 -1 -1 1.31134e-07 2256 1536)" stroke="black"/>
<line y1="-0.5" x2="768" y2="-0.5" transform="matrix(-1.31134e-07 -1 -1 1.31134e-07 672 768)" stroke="black"/>
<line y1="-0.5" x2="768" y2="-0.5" transform="matrix(-1.31134e-07 -1 -1 1.31134e-07 672 1536)" stroke="black"/>
<line y1="-0.5" x2="768" y2="-0.5" transform="matrix(-1.31134e-07 -1 -1 1.31134e-07 1440 768)" stroke="black"/>
<line y1="-0.5" x2="768" y2="-0.5" transform="matrix(-1.31134e-07 -1 -1 1.31134e-07 2208 768)" stroke="black"/>
<line y1="-0.5" x2="768" y2="-0.5" transform="matrix(-1.31134e-07 -1 -1 1.31134e-07 1440 1536)" stroke="black"/>
<line y1="-0.5" x2="768" y2="-0.5" transform="matrix(-1.31134e-07 -1 -1 1.31134e-07 2208 1536)" stroke="black"/>
<line y1="-0.5" x2="768" y2="-0.5" transform="matrix(-1.31134e-07 -1 -1 1.31134e-07 624 768)" stroke="black"/>
<line y1="-0.5" x2="768" y2="-0.5" transform="matrix(-1.31134e-07 -1 -1 1.31134e-07 624 1536)" stroke="black"/>
<line y1="-0.5" x2="768" y2="-0.5" transform="matrix(-1.31134e-07 -1 -1 1.31134e-07 1392 768)" stroke="black"/>
<line y1="-0.5" x2="768" y2="-0.5" transform="matrix(-1.31134e-07 -1 -1 1.31134e-07 2160 768)" stroke="black"/>
<line y1="-0.5" x2="768" y2="-0.5" transform="matrix(-1.31134e-07 -1 -1 1.31134e-07 1392 1536)" stroke="black"/>
<line y1="-0.5" x2="768" y2="-0.5" transform="matrix(-1.31134e-07 -1 -1 1.31134e-07 2160 1536)" stroke="black"/>
<line y1="-0.5" x2="768" y2="-0.5" transform="matrix(-1.31134e-07 -1 -1 1.31134e-07 576 768)" stroke="black"/>
<line y1="-0.5" x2="768" y2="-0.5" transform="matrix(-1.31134e-07 -1 -1 1.31134e-07 576 1536)" stroke="black"/>
<line y1="-0.5" x2="768" y2="-0.5" transform="matrix(-1.31134e-07 -1 -1 1.31134e-07 1344 768)" stroke="black"/>
<line y1="-0.5" x2="768" y2="-0.5" transform="matrix(-1.31134e-07 -1 -1 1.31134e-07 2112 768)" stroke="black"/>
<line y1="-0.5" x2="768" y2="-0.5" transform="matrix(-1.31134e-07 -1 -1 1.31134e-07 1344 1536)" stroke="black"/>
<line y1="-0.5" x2="768" y2="-0.5" transform="matrix(-1.31134e-07 -1 -1 1.31134e-07 2112 1536)" stroke="black"/>
<line y1="-0.5" x2="768" y2="-0.5" transform="matrix(-1.31134e-07 -1 -1 1.31134e-07 528 768)" stroke="black"/>
<line y1="-0.5" x2="768" y2="-0.5" transform="matrix(-1.31134e-07 -1 -1 1.31134e-07 528 1536)" stroke="black"/>
<line y1="-0.5" x2="768" y2="-0.5" transform="matrix(-1.31134e-07 -1 -1 1.31134e-07 1296 768)" stroke="black"/>
<line y1="-0.5" x2="768" y2="-0.5" transform="matrix(-1.31134e-07 -1 -1 1.31134e-07 2064 768)" stroke="black"/>
<line y1="-0.5" x2="768" y2="-0.5" transform="matrix(-1.31134e-07 -1 -1 1.31134e-07 1296 1536)" stroke="black"/>
<line y1="-0.5" x2="768" y2="-0.5" transform="matrix(-1.31134e-07 -1 -1 1.31134e-07 2064 1536)" stroke="black"/>
<line y1="-0.5" x2="768" y2="-0.5" transform="matrix(-1.31134e-07 -1 -1 1.31134e-07 480 768)" stroke="black"/>
<line y1="-0.5" x2="768" y2="-0.5" transform="matrix(-1.31134e-07 -1 -1 1.31134e-07 480 1536)" stroke="black"/>
<line y1="-0.5" x2="768" y2="-0.5" transform="matrix(-1.31134e-07 -1 -1 1.31134e-07 1248 768)" stroke="black"/>
<line y1="-0.5" x2="768" y2="-0.5" transform="matrix(-1.31134e-07 -1 -1 1.31134e-07 2016 768)" stroke="black"/>
<line y1="-0.5" x2="768" y2="-0.5" transform="matrix(-1.31134e-07 -1 -1 1.31134e-07 1248 1536)" stroke="black"/>
<line y1="-0.5" x2="768" y2="-0.5" transform="matrix(-1.31134e-07 -1 -1 1.31134e-07 2016 1536)" stroke="black"/>
<line y1="-0.5" x2="768" y2="-0.5" transform="matrix(-1.31134e-07 -1 -1 1.31134e-07 432 768)" stroke="black"/>
<line y1="-0.5" x2="768" y2="-0.5" transform="matrix(-1.31134e-07 -1 -1 1.31134e-07 432 1536)" stroke="black"/>
<line y1="-0.5" x2="768" y2="-0.5" transform="matrix(-1.31134e-07 -1 -1 1.31134e-07 1200 768)" stroke="black"/>
<line y1="-0.5" x2="768" y2="-0.5" transform="matrix(-1.31134e-07 -1 -1 1.31134e-07 1968 768)" stroke="black"/>
<line y1="-0.5" x2="768" y2="-0.5" transform="matrix(-1.31134e-07 -1 -1 1.31134e-07 1200 1536)" stroke="black"/>
<line y1="-0.5" x2="768" y2="-0.5" transform="matrix(-1.31134e-07 -1 -1 1.31134e-07 1968 1536)" stroke="black"/>
<line y1="-0.5" x2="768" y2="-0.5" transform="matrix(-1.31134e-07 -1 -1 1.31134e-07 384 768)" stroke="black"/>
<line y1="-0.5" x2="768" y2="-0.5" transform="matrix(-1.31134e-07 -1 -1 1.31134e-07 384 1536)" stroke="black"/>
<line y1="-0.5" x2="768" y2="-0.5" transform="matrix(-1.31134e-07 -1 -1 1.31134e-07 1152 768)" stroke="black"/>
<line y1="-0.5" x2="768" y2="-0.5" transform="matrix(-1.31134e-07 -1 -1 1.31134e-07 1920 768)" stroke="black"/>
<line y1="-0.5" x2="768" y2="-0.5" transform="matrix(-1.31134e-07 -1 -1 1.31134e-07 1152 1536)" stroke="black"/>
<line y1="-0.5" x2="768" y2="-0.5" transform="matrix(-1.31134e-07 -1 -1 1.31134e-07 1920 1536)" stroke="black"/>
<line y1="-0.5" x2="768" y2="-0.5" transform="matrix(-1.31134e-07 -1 -1 1.31134e-07 336 768)" stroke="black"/>
<line y1="-0.5" x2="768" y2="-0.5" transform="matrix(-1.31134e-07 -1 -1 1.31134e-07 336 1536)" stroke="black"/>
<line y1="-0.5" x2="768" y2="-0.5" transform="matrix(-1.31134e-07 -1 -1 1.31134e-07 1104 768)" stroke="black"/>
<line y1="-0.5" x2="768" y2="-0.5" transform="matrix(-1.31134e-07 -1 -1 1.31134e-07 1872 768)" stroke="black"/>
<line y1="-0.5" x2="768" y2="-0.5" transform="matrix(-1.31134e-07 -1 -1 1.31134e-07 1104 1536)" stroke="black"/>
<line y1="-0.5" x2="768" y2="-0.5" transform="matrix(-1.31134e-07 -1 -1 1.31134e-07 1872 1536)" stroke="black"/>
<line y1="-0.5" x2="768" y2="-0.5" transform="matrix(-1.31134e-07 -1 -1 1.31134e-07 288 768)" stroke="black"/>
<line y1="-0.5" x2="768" y2="-0.5" transform="matrix(-1.31134e-07 -1 -1 1.31134e-07 288 1536)" stroke="black"/>
<line y1="-0.5" x2="768" y2="-0.5" transform="matrix(-1.31134e-07 -1 -1 1.31134e-07 1056 768)" stroke="black"/>
<line y1="-0.5" x2="768" y2="-0.5" transform="matrix(-1.31134e-07 -1 -1 1.31134e-07 1824 768)" stroke="black"/>
<line y1="-0.5" x2="768" y2="-0.5" transform="matrix(-1.31134e-07 -1 -1 1.31134e-07 1056 1536)" stroke="black"/>
<line y1="-0.5" x2="768" y2="-0.5" transform="matrix(-1.31134e-07 -1 -1 1.31134e-07 1824 1536)" stroke="black"/>
<line y1="-0.5" x2="768" y2="-0.5" transform="matrix(-1.31134e-07 -1 -1 1.31134e-07 240 768)" stroke="black"/>
<line y1="-0.5" x2="768" y2="-0.5" transform="matrix(-1.31134e-07 -1 -1 1.31134e-07 240 1536)" stroke="black"/>
<line y1="-0.5" x2="768" y2="-0.5" transform="matrix(-1.31134e-07 -1 -1 1.31134e-07 1008 768)" stroke="black"/>
<line y1="-0.5" x2="768" y2="-0.5" transform="matrix(-1.31134e-07 -1 -1 1.31134e-07 1776 768)" stroke="black"/>
<line y1="-0.5" x2="768" y2="-0.5" transform="matrix(-1.31134e-07 -1 -1 1.31134e-07 1008 1536)" stroke="black"/>
<line y1="-0.5" x2="768" y2="-0.5" transform="matrix(-1.31134e-07 -1 -1 1.31134e-07 1776 1536)" stroke="black"/>
<line y1="-0.5" x2="768" y2="-0.5" transform="matrix(-1.31134e-07 -1 -1 1.31134e-07 192 768)" stroke="black"/>
<line y1="-0.5" x2="768" y2="-0.5" transform="matrix(-1.31134e-07 -1 -1 1.31134e-07 192 1536)" stroke="black"/>
<line y1="-0.5" x2="768" y2="-0.5" transform="matrix(-1.31134e-07 -1 -1 1.31134e-07 960 768)" stroke="black"/>
<line y1="-0.5" x2="768" y2="-0.5" transform="matrix(-1.31134e-07 -1 -1 1.31134e-07 1728 768)" stroke="black"/>
<line y1="-0.5" x2="768" y2="-0.5" transform="matrix(-1.31134e-07 -1 -1 1.31134e-07 960 1536)" stroke="black"/>
<line y1="-0.5" x2="768" y2="-0.5" transform="matrix(-1.31134e-07 -1 -1 1.31134e-07 1728 1536)" stroke="black"/>
<line y1="-0.5" x2="768" y2="-0.5" transform="matrix(-1.31134e-07 -1 -1 1.31134e-07 144 768)" stroke="black"/>
<line y1="-0.5" x2="768" y2="-0.5" transform="matrix(-1.31134e-07 -1 -1 1.31134e-07 144 1536)" stroke="black"/>
<line y1="-0.5" x2="768" y2="-0.5" transform="matrix(-1.31134e-07 -1 -1 1.31134e-07 912 768)" stroke="black"/>
<line y1="-0.5" x2="768" y2="-0.5" transform="matrix(-1.31134e-07 -1 -1 1.31134e-07 1680 768)" stroke="black"/>
<line y1="-0.5" x2="768" y2="-0.5" transform="matrix(-1.31134e-07 -1 -1 1.31134e-07 912 1536)" stroke="black"/>
<line y1="-0.5" x2="768" y2="-0.5" transform="matrix(-1.31134e-07 -1 -1 1.31134e-07 1680 1536)" stroke="black"/>
<line y1="-0.5" x2="768" y2="-0.5" transform="matrix(-1.31134e-07 -1 -1 1.31134e-07 96 768)" stroke="black"/>
<line y1="-0.5" x2="768" y2="-0.5" transform="matrix(-1.31134e-07 -1 -1 1.31134e-07 96.0002 1536)" stroke="black"/>
<line y1="-0.5" x2="768" y2="-0.5" transform="matrix(-1.31134e-07 -1 -1 1.31134e-07 864 768)" stroke="black"/>
<line y1="-0.5" x2="768" y2="-0.5" transform="matrix(-1.31134e-07 -1 -1 1.31134e-07 1632 768)" stroke="black"/>
<line y1="-0.5" x2="768" y2="-0.5" transform="matrix(-1.31134e-07 -1 -1 1.31134e-07 864 1536)" stroke="black"/>
<line y1="-0.5" x2="768" y2="-0.5" transform="matrix(-1.31134e-07 -1 -1 1.31134e-07 1632 1536)" stroke="black"/>
<line y1="-0.5" x2="768" y2="-0.5" transform="matrix(-1.31134e-07 -1 -1 1.31134e-07 48 768)" stroke="black"/>
<line y1="-0.5" x2="768" y2="-0.5" transform="matrix(-1.31134e-07 -1 -1 1.31134e-07 48.0002 1536)" stroke="black"/>
<line y1="-0.5" x2="768" y2="-0.5" transform="matrix(-1.31134e-07 -1 -1 1.31134e-07 816 768)" stroke="black"/>
<line y1="-0.5" x2="768" y2="-0.5" transform="matrix(-1.31134e-07 -1 -1 1.31134e-07 1584 768)" stroke="black"/>
<line y1="-0.5" x2="768" y2="-0.5" transform="matrix(-1.31134e-07 -1 -1 1.31134e-07 816 1536)" stroke="black"/>
<line y1="-0.5" x2="768" y2="-0.5" transform="matrix(-1.31134e-07 -1 -1 1.31134e-07 1584 1536)" stroke="black"/>
<line y1="-0.5" x2="768" y2="-0.5" transform="matrix(-1.31134e-07 -1 -1 1.31134e-07 0 768)" stroke="black"/>
<line y1="-0.5" x2="768" y2="-0.5" transform="matrix(-1.31134e-07 -1 -1 1.31134e-07 0.000244141 1536)" stroke="black"/>
<line y1="-0.5" x2="768" y2="-0.5" transform="matrix(-1.31134e-07 -1 -1 1.31134e-07 768 768)" stroke="black"/>
<line y1="-0.5" x2="768" y2="-0.5" transform="matrix(-1.31134e-07 -1 -1 1.31134e-07 768 1536)" stroke="black"/>
<rect width="47" height="47" transform="matrix(1 -8.74228e-08 -8.74228e-08 -1 1.00024 1440)" fill="black" fill-opacity="0.33"/>
<rect width="47" height="47" transform="matrix(1 -8.74228e-08 -8.74228e-08 -1 1.00024 1296)" fill="black" fill-opacity="0.33"/>
<rect width="47" height="47" transform="matrix(1 -8.74228e-08 -8.74228e-08 -1 49.0002 1248)" fill="black" fill-opacity="0.33"/>
<rect width="47" height="47" transform="matrix(1 -8.74228e-08 -8.74228e-08 -1 97.0002 1152)" fill="black" fill-opacity="0.33"/>
<rect width="47" height="47" transform="matrix(1 -8.74228e-08 -8.74228e-08 -1 49.0002 1008)" fill="black" fill-opacity="0.33"/>
<rect width="47" height="47" transform="matrix(1 -8.74228e-08 -8.74228e-08 -1 1.00024 864)" fill="black" fill-opacity="0.33"/>
<rect width="47" height="47" transform="matrix(1 -8.74228e-08 -8.74228e-08 -1 49.0002 912)" fill="black" fill-opacity="0.33"/>
<rect width="47" height="47" transform="matrix(1 -8.74228e-08 -8.74228e-08 -1 1.00024 1104)" fill="black" fill-opacity="0.33"/>
<rect width="47" height="47" transform="matrix(1 -8.74228e-08 -8.74228e-08 -1 241 1104)" fill="black" fill-opacity="0.33"/>
<rect width="47" height="47" transform="matrix(1 -8.74228e-08 -8.74228e-08 -1 289 1296)" fill="black" fill-opacity="0.33"/>
<rect width="47" height="47" transform="matrix(1 -8.74228e-08 -8.74228e-08 -1 241 1392)" fill="black" fill-opacity="0.33"/>
<rect width="47" height="47" transform="matrix(1 -8.74228e-08 -8.74228e-08 -1 241 1488)" fill="black" fill-opacity="0.33"/>
<rect width="47" height="47" transform="matrix(1 -8.74228e-08 -8.74228e-08 -1 337 1440)" fill="black" fill-opacity="0.33"/>
<rect width="47" height="47" transform="matrix(1 -8.74228e-08 -8.74228e-08 -1 385 1536)" fill="black" fill-opacity="0.33"/>
<rect width="47" height="47" transform="matrix(1 -8.74228e-08 -8.74228e-08 -1 97.0002 1488)" fill="black" fill-opacity="0.33"/>
<rect width="47" height="47" transform="matrix(1 -8.74228e-08 -8.74228e-08 -1 145 1536)" fill="black" fill-opacity="0.33"/>
<rect width="47" height="47" transform="matrix(9.93477e-08 1 1 -9.93477e-08 193 1201)" fill="black" fill-opacity="0.33"/>
<rect width="47" height="47" transform="matrix(9.93477e-08 1 1 -9.93477e-08 337 1201)" fill="black" fill-opacity="0.33"/>
<rect width="47" height="47" transform="matrix(9.93477e-08 1 1 -9.93477e-08 385 1249)" fill="black" fill-opacity="0.33"/>
<rect width="47" height="47" transform="matrix(9.93477e-08 1 1 -9.93477e-08 145 1297)" fill="black" fill-opacity="0.33"/>
<rect width="47" height="47" transform="matrix(9.93477e-08 1 1 -9.93477e-08 97.0002 1345)" fill="black" fill-opacity="0.33"/>
<rect width="47" height="47" transform="matrix(-1.31134e-07 -1 -1 1.31134e-07 720 1489)" fill="black" fill-opacity="0.33"/>
<rect width="47" height="47" transform="matrix(-1.31134e-07 -1 -1 1.31134e-07 672 1441)" fill="black" fill-opacity="0.33"/>
<rect width="47" height="47" transform="matrix(-1.31134e-07 -1 -1 1.31134e-07 576 1393)" fill="black" fill-opacity="0.33"/>
<rect width="47" height="47" transform="matrix(-1.31134e-07 -1 -1 1.31134e-07 528 1489)" fill="black" fill-opacity="0.33"/>
<rect width="47" height="47" transform="matrix(-1.31134e-07 -1 -1 1.31134e-07 528 1248)" fill="black" fill-opacity="0.33"/>
<rect width="47" height="47" transform="matrix(-1.31134e-07 -1 -1 1.31134e-07 720 1200)" fill="black" fill-opacity="0.33"/>
<rect width="47" height="47" transform="matrix(-1.31134e-07 -1 -1 1.31134e-07 816 1248)" fill="black" fill-opacity="0.33"/>
<rect width="47" height="47" transform="matrix(-1.31134e-07 -1 -1 1.31134e-07 912 1248)" fill="black" fill-opacity="0.33"/>
<rect width="47" height="47" transform="matrix(-1.31134e-07 -1 -1 1.31134e-07 864 1152)" fill="black" fill-opacity="0.33"/>
<rect width="47" height="47" transform="matrix(-1.31134e-07 -1 -1 1.31134e-07 960 1105)" fill="black" fill-opacity="0.33"/>
<rect width="47" height="47" transform="matrix(-1.31134e-07 -1 -1 1.31134e-07 912 1392)" fill="black" fill-opacity="0.33"/>
<rect width="47" height="47" transform="matrix(-1.31134e-07 -1 -1 1.31134e-07 864 1488)" fill="black" fill-opacity="0.33"/>
<rect width="47" height="47" transform="matrix(-1.31134e-07 -1 -1 1.31134e-07 960 1536)" fill="black" fill-opacity="0.33"/>
<rect width="47" height="47" transform="matrix(-1.31134e-07 -1 -1 1.31134e-07 960 1344)" fill="black" fill-opacity="0.33"/>
<rect width="47" height="47" transform="matrix(1 -1.43059e-07 -1.43059e-07 -1 625 1296)" fill="black" fill-opacity="0.33"/>
<rect width="47" height="47" transform="matrix(1 -1.43059e-07 -1.43059e-07 -1 625 1152)" fill="black" fill-opacity="0.33"/>
<rect width="47" height="47" transform="matrix(1 -1.43059e-07 -1.43059e-07 -1 673 1104)" fill="black" fill-opacity="0.33"/>
<rect width="47" height="47" transform="matrix(1 -1.43059e-07 -1.43059e-07 -1 721 1344)" fill="black" fill-opacity="0.33"/>
<rect width="47" height="47" transform="matrix(1 -1.43059e-07 -1.43059e-07 -1 769 1392)" fill="black" fill-opacity="0.33"/>
<rect width="47" height="47" transform="matrix(4.37114e-08 1 1 -4.37114e-08 97 1)" fill="black" fill-opacity="0.33"/>
<rect width="47" height="47" transform="matrix(4.37114e-08 1 1 -4.37114e-08 241 1)" fill="black" fill-opacity="0.33"/>
<rect width="47" height="47" transform="matrix(4.37114e-08 1 1 -4.37114e-08 289 49)" fill="black" fill-opacity="0.33"/>
<rect width="47" height="47" transform="matrix(4.37114e-08 1 1 -4.37114e-08 385 97)" fill="black" fill-opacity="0.33"/>
<rect width="47" height="47" transform="matrix(4.37114e-08 1 1 -4.37114e-08 433 1)" fill="black" fill-opacity="0.33"/>
<rect width="47" height="47" transform="matrix(4.37114e-08 1 1 -4.37114e-08 433 241)" fill="black" fill-opacity="0.33"/>
<rect width="47" height="47" transform="matrix(4.37114e-08 1 1 -4.37114e-08 241 289)" fill="black" fill-opacity="0.33"/>
<rect width="47" height="47" transform="matrix(4.37114e-08 1 1 -4.37114e-08 145 241)" fill="black" fill-opacity="0.33"/>
<rect width="47" height="47" transform="matrix(4.37114e-08 1 1 -4.37114e-08 49.0002 241)" fill="black" fill-opacity="0.33"/>
<rect width="47" height="47" transform="matrix(4.37114e-08 1 1 -4.37114e-08 97.0002 338)" fill="black" fill-opacity="0.33"/>
<rect width="47" height="47" transform="matrix(4.37114e-08 1 1 -4.37114e-08 1.00024 385)" fill="black" fill-opacity="0.33"/>
<rect width="47" height="47" transform="matrix(4.37114e-08 1 1 -4.37114e-08 49.0002 97)" fill="black" fill-opacity="0.33"/>
<rect width="47" height="47" transform="matrix(4.37114e-08 1 1 -4.37114e-08 1.00024 145)" fill="black" fill-opacity="0.33"/>
<rect width="47" height="47" transform="matrix(-1 5.56363e-08 5.56363e-08 1 336 193)" fill="black" fill-opacity="0.33"/>
<rect width="47" height="47" transform="matrix(-1 5.56363e-08 5.56363e-08 1 336 337)" fill="black" fill-opacity="0.33"/>
<rect width="47" height="47" transform="matrix(-1 5.56363e-08 5.56363e-08 1 288 385)" fill="black" fill-opacity="0.33"/>
<rect width="47" height="47" transform="matrix(-1 5.56363e-08 5.56363e-08 1 240 145)" fill="black" fill-opacity="0.33"/>
<rect width="47" height="47" transform="matrix(-1 5.56363e-08 5.56363e-08 1 192 97)" fill="black" fill-opacity="0.33"/>
<rect width="47" height="47" transform="matrix(1 -8.74228e-08 -8.74228e-08 -1 49.0002 720)" fill="black" fill-opacity="0.33"/>
<rect width="47" height="47" transform="matrix(1 -8.74228e-08 -8.74228e-08 -1 97.0002 672)" fill="black" fill-opacity="0.33"/>
<rect width="47" height="47" transform="matrix(1 -8.74228e-08 -8.74228e-08 -1 145 576)" fill="black" fill-opacity="0.33"/>
<rect width="47" height="47" transform="matrix(1 -8.74228e-08 -8.74228e-08 -1 49.0002 528)" fill="black" fill-opacity="0.33"/>
<rect width="47" height="47" transform="matrix(1 -8.74228e-08 -8.74228e-08 -1 1.00024 672)" fill="black" fill-opacity="0.33"/>
<rect width="47" height="47" transform="matrix(1 -8.74228e-08 -8.74228e-08 -1 289 528)" fill="black" fill-opacity="0.33"/>
<rect width="47" height="47" transform="matrix(1 -8.74228e-08 -8.74228e-08 -1 337 720)" fill="black" fill-opacity="0.33"/>
<rect width="47" height="47" transform="matrix(1 -8.74228e-08 -8.74228e-08 -1 289 816)" fill="black" fill-opacity="0.33"/>
<rect width="47" height="47" transform="matrix(1 -8.74228e-08 -8.74228e-08 -1 289 912)" fill="black" fill-opacity="0.33"/>
<rect width="47" height="47" transform="matrix(1 -8.74228e-08 -8.74228e-08 -1 385 864)" fill="black" fill-opacity="0.33"/>
<rect width="47" height="47" transform="matrix(1 -8.74228e-08 -8.74228e-08 -1 433 960)" fill="black" fill-opacity="0.33"/>
<rect width="47" height="47" transform="matrix(1 -8.74228e-08 -8.74228e-08 -1 145 912)" fill="black" fill-opacity="0.33"/>
<rect width="47" height="47" transform="matrix(1 -8.74228e-08 -8.74228e-08 -1 193 960)" fill="black" fill-opacity="0.33"/>
<rect width="47" height="47" transform="matrix(1 -8.74228e-08 -8.74228e-08 -1 289 1056)" fill="black" fill-opacity="0.33"/>
<rect width="47" height="47" transform="matrix(9.93477e-08 1 1 -9.93477e-08 241 625)" fill="black" fill-opacity="0.33"/>
<rect width="47" height="47" transform="matrix(9.93477e-08 1 1 -9.93477e-08 385 625)" fill="black" fill-opacity="0.33"/>
<rect width="47" height="47" transform="matrix(9.93477e-08 1 1 -9.93477e-08 433 673)" fill="black" fill-opacity="0.33"/>
<rect width="47" height="47" transform="matrix(9.93477e-08 1 1 -9.93477e-08 193 721)" fill="black" fill-opacity="0.33"/>
<rect width="47" height="47" transform="matrix(9.93477e-08 1 1 -9.93477e-08 145 769)" fill="black" fill-opacity="0.33"/>
<rect width="47" height="47" transform="matrix(-1.31134e-07 -1 -1 1.31134e-07 1104 1344)" fill="black" fill-opacity="0.33"/>
<rect width="47" height="47" transform="matrix(-1.31134e-07 -1 -1 1.31134e-07 1200 1392)" fill="black" fill-opacity="0.33"/>
<rect width="47" height="47" transform="matrix(-1.31134e-07 -1 -1 1.31134e-07 1296 1392)" fill="black" fill-opacity="0.33"/>
<rect width="47" height="47" transform="matrix(-1.31134e-07 -1 -1 1.31134e-07 1248 1296)" fill="black" fill-opacity="0.33"/>
<rect width="47" height="47" transform="matrix(-1.31134e-07 -1 -1 1.31134e-07 1344 1248)" fill="black" fill-opacity="0.33"/>
<rect width="47" height="47" transform="matrix(-1.31134e-07 -1 -1 1.31134e-07 1344 1488)" fill="black" fill-opacity="0.33"/>
<rect width="47" height="47" transform="matrix(1 -1.43059e-07 -1.43059e-07 -1 1009 1440)" fill="black" fill-opacity="0.33"/>
<rect width="47" height="47" transform="matrix(1 -1.43059e-07 -1.43059e-07 -1 1009 1296)" fill="black" fill-opacity="0.33"/>
<rect width="47" height="47" transform="matrix(1 -1.43059e-07 -1.43059e-07 -1 1057 1248)" fill="black" fill-opacity="0.33"/>
<rect width="47" height="47" transform="matrix(-1 1.74846e-07 1.74846e-07 1 2304 96.9998)" fill="black" fill-opacity="0.33"/>
<rect width="47" height="47" transform="matrix(-1 1.74846e-07 1.74846e-07 1 2304 241)" fill="black" fill-opacity="0.33"/>
<rect width="47" height="47" transform="matrix(-1 1.74846e-07 1.74846e-07 1 2256 289)" fill="black" fill-opacity="0.33"/>
<rect width="47" height="47" transform="matrix(-1 1.74846e-07 1.74846e-07 1 2208 385)" fill="black" fill-opacity="0.33"/>
<rect width="47" height="47" transform="matrix(-1 1.74846e-07 1.74846e-07 1 2304 673)" fill="black" fill-opacity="0.33"/>
<rect width="47" height="47" transform="matrix(-1 1.74846e-07 1.74846e-07 1 2256 625)" fill="black" fill-opacity="0.33"/>
<rect width="47" height="47" transform="matrix(-1 1.74846e-07 1.74846e-07 1 2304 433)" fill="black" fill-opacity="0.33"/>
<rect width="47" height="47" transform="matrix(-1 1.74846e-07 1.74846e-07 1 2064 433)" fill="black" fill-opacity="0.33"/>
<rect width="47" height="47" transform="matrix(-1 1.74846e-07 1.74846e-07 1 2016 241)" fill="black" fill-opacity="0.33"/>
<rect width="47" height="47" transform="matrix(-1 1.74846e-07 1.74846e-07 1 2064 145)" fill="black" fill-opacity="0.33"/>
<rect width="47" height="47" transform="matrix(-1 1.74846e-07 1.74846e-07 1 2064 48.9999)" fill="black" fill-opacity="0.33"/>
<rect width="47" height="47" transform="matrix(-1 1.74846e-07 1.74846e-07 1 1968 96.9999)" fill="black" fill-opacity="0.33"/>
<rect width="47" height="47" transform="matrix(-1 1.74846e-07 1.74846e-07 1 1920 0.999878)" fill="black" fill-opacity="0.33"/>
<rect width="47" height="47" transform="matrix(-1 1.74846e-07 1.74846e-07 1 2208 48.9998)" fill="black" fill-opacity="0.33"/>
<rect width="47" height="47" transform="matrix(-1 1.74846e-07 1.74846e-07 1 2160 0.999756)" fill="black" fill-opacity="0.33"/>
<rect width="47" height="47" transform="matrix(-1.8677e-07 -1 -1 1.8677e-07 2112 336)" fill="black" fill-opacity="0.33"/>
<rect width="47" height="47" transform="matrix(-1.8677e-07 -1 -1 1.8677e-07 1968 336)" fill="black" fill-opacity="0.33"/>
<rect width="47" height="47" transform="matrix(-1.8677e-07 -1 -1 1.8677e-07 1920 288)" fill="black" fill-opacity="0.33"/>
<rect width="47" height="47" transform="matrix(-1.8677e-07 -1 -1 1.8677e-07 2160 240)" fill="black" fill-opacity="0.33"/>
<rect width="47" height="47" transform="matrix(-1.8677e-07 -1 -1 1.8677e-07 2208 192)" fill="black" fill-opacity="0.33"/>
<rect width="47" height="47" transform="matrix(2.18557e-07 1 1 -2.18557e-07 1585 47.9999)" fill="black" fill-opacity="0.33"/>
<rect width="47" height="47" transform="matrix(2.18557e-07 1 1 -2.18557e-07 1633 95.9999)" fill="black" fill-opacity="0.33"/>
<rect width="47" height="47" transform="matrix(2.18557e-07 1 1 -2.18557e-07 1729 144)" fill="black" fill-opacity="0.33"/>
<rect width="47" height="47" transform="matrix(2.18557e-07 1 1 -2.18557e-07 1777 47.9999)" fill="black" fill-opacity="0.33"/>
<rect width="47" height="47" transform="matrix(2.18557e-07 1 1 -2.18557e-07 1777 289)" fill="black" fill-opacity="0.33"/>
<rect width="47" height="47" transform="matrix(2.18557e-07 1 1 -2.18557e-07 1585 337)" fill="black" fill-opacity="0.33"/>
<rect width="47" height="47" transform="matrix(2.18557e-07 1 1 -2.18557e-07 1489 289)" fill="black" fill-opacity="0.33"/>
<rect width="47" height="47" transform="matrix(2.18557e-07 1 1 -2.18557e-07 1393 289)" fill="black" fill-opacity="0.33"/>
<rect width="47" height="47" transform="matrix(2.18557e-07 1 1 -2.18557e-07 1441 385)" fill="black" fill-opacity="0.33"/>
<rect width="47" height="47" transform="matrix(2.18557e-07 1 1 -2.18557e-07 1345 432)" fill="black" fill-opacity="0.33"/>
<rect width="47" height="47" transform="matrix(2.18557e-07 1 1 -2.18557e-07 1393 145)" fill="black" fill-opacity="0.33"/>
<rect width="47" height="47" transform="matrix(2.18557e-07 1 1 -2.18557e-07 1441 48.9999)" fill="black" fill-opacity="0.33"/>
<rect width="47" height="47" transform="matrix(2.18557e-07 1 1 -2.18557e-07 1345 0.999878)" fill="black" fill-opacity="0.33"/>
<rect width="47" height="47" transform="matrix(2.18557e-07 1 1 -2.18557e-07 1345 193)" fill="black" fill-opacity="0.33"/>
<rect width="47" height="47" transform="matrix(-1 2.30482e-07 2.30482e-07 1 1680 241)" fill="black" fill-opacity="0.33"/>
<rect width="47" height="47" transform="matrix(-1 2.30482e-07 2.30482e-07 1 1680 385)" fill="black" fill-opacity="0.33"/>
<rect width="47" height="47" transform="matrix(-1 2.30482e-07 2.30482e-07 1 1632 433)" fill="black" fill-opacity="0.33"/>
<rect width="47" height="47" transform="matrix(-1 2.30482e-07 2.30482e-07 1 1584 193)" fill="black" fill-opacity="0.33"/>
<rect width="47" height="47" transform="matrix(-1 2.30482e-07 2.30482e-07 1 1536 145)" fill="black" fill-opacity="0.33"/>
<rect width="47" height="47" transform="matrix(-1.31134e-07 -1 -1 1.31134e-07 2208 1536)" fill="black" fill-opacity="0.33"/>
<rect width="47" height="47" transform="matrix(-1.31134e-07 -1 -1 1.31134e-07 2064 1536)" fill="black" fill-opacity="0.33"/>
<rect width="47" height="47" transform="matrix(-1.31134e-07 -1 -1 1.31134e-07 2016 1488)" fill="black" fill-opacity="0.33"/>
<rect width="47" height="47" transform="matrix(-1.31134e-07 -1 -1 1.31134e-07 1920 1440)" fill="black" fill-opacity="0.33"/>
<rect width="47" height="47" transform="matrix(-1.31134e-07 -1 -1 1.31134e-07 1872 1536)" fill="black" fill-opacity="0.33"/>
<rect width="47" height="47" transform="matrix(-1.31134e-07 -1 -1 1.31134e-07 1872 1296)" fill="black" fill-opacity="0.33"/>
<rect width="47" height="47" transform="matrix(-1.31134e-07 -1 -1 1.31134e-07 2064 1248)" fill="black" fill-opacity="0.33"/>
<rect width="47" height="47" transform="matrix(-1.31134e-07 -1 -1 1.31134e-07 2160 1296)" fill="black" fill-opacity="0.33"/>
<rect width="47" height="47" transform="matrix(-1.31134e-07 -1 -1 1.31134e-07 2256 1296)" fill="black" fill-opacity="0.33"/>
<rect width="47" height="47" transform="matrix(-1.31134e-07 -1 -1 1.31134e-07 2208 1199)" fill="black" fill-opacity="0.33"/>
<rect width="47" height="47" transform="matrix(-1.31134e-07 -1 -1 1.31134e-07 2304 1152)" fill="black" fill-opacity="0.33"/>
<rect width="47" height="47" transform="matrix(-1.31134e-07 -1 -1 1.31134e-07 2256 1440)" fill="black" fill-opacity="0.33"/>
<rect width="47" height="47" transform="matrix(-1.31134e-07 -1 -1 1.31134e-07 2304 1392)" fill="black" fill-opacity="0.33"/>
<rect width="47" height="47" transform="matrix(1 -1.43059e-07 -1.43059e-07 -1 1969 1344)" fill="black" fill-opacity="0.33"/>
<rect width="47" height="47" transform="matrix(1 -1.43059e-07 -1.43059e-07 -1 1969 1200)" fill="black" fill-opacity="0.33"/>
<rect width="47" height="47" transform="matrix(1 -1.43059e-07 -1.43059e-07 -1 2017 1152)" fill="black" fill-opacity="0.33"/>
<rect width="47" height="47" transform="matrix(1 -1.43059e-07 -1.43059e-07 -1 2065 1392)" fill="black" fill-opacity="0.33"/>
<rect width="47" height="47" transform="matrix(1 -1.43059e-07 -1.43059e-07 -1 2113 1440)" fill="black" fill-opacity="0.33"/>
<rect width="47" height="47" transform="matrix(-1 1.74846e-07 1.74846e-07 1 2256 817)" fill="black" fill-opacity="0.33"/>
<rect width="47" height="47" transform="matrix(-1 1.74846e-07 1.74846e-07 1 2208 865)" fill="black" fill-opacity="0.33"/>
<rect width="47" height="47" transform="matrix(-1 1.74846e-07 1.74846e-07 1 2160 961)" fill="black" fill-opacity="0.33"/>
<rect width="47" height="47" transform="matrix(-1 1.74846e-07 1.74846e-07 1 2256 1009)" fill="black" fill-opacity="0.33"/>
<rect width="47" height="47" transform="matrix(-1 1.74846e-07 1.74846e-07 1 2304 865)" fill="black" fill-opacity="0.33"/>
<rect width="47" height="47" transform="matrix(-1 1.74846e-07 1.74846e-07 1 2016 1009)" fill="black" fill-opacity="0.33"/>
<rect width="47" height="47" transform="matrix(-1 1.74846e-07 1.74846e-07 1 1968 817)" fill="black" fill-opacity="0.33"/>
<rect width="47" height="47" transform="matrix(-1 1.74846e-07 1.74846e-07 1 2016 721)" fill="black" fill-opacity="0.33"/>
<rect width="47" height="47" transform="matrix(-1 1.74846e-07 1.74846e-07 1 2016 625)" fill="black" fill-opacity="0.33"/>
<rect width="47" height="47" transform="matrix(-1 1.74846e-07 1.74846e-07 1 1920 673)" fill="black" fill-opacity="0.33"/>
<rect width="47" height="47" transform="matrix(-1 1.74846e-07 1.74846e-07 1 1872 577)" fill="black" fill-opacity="0.33"/>
<rect width="47" height="47" transform="matrix(-1 1.74846e-07 1.74846e-07 1 2160 625)" fill="black" fill-opacity="0.33"/>
<rect width="47" height="47" transform="matrix(-1 1.74846e-07 1.74846e-07 1 2112 577)" fill="black" fill-opacity="0.33"/>
<rect width="47" height="47" transform="matrix(-1 1.74846e-07 1.74846e-07 1 2016 481)" fill="black" fill-opacity="0.33"/>
<rect width="47" height="47" transform="matrix(-1.8677e-07 -1 -1 1.8677e-07 2064 912)" fill="black" fill-opacity="0.33"/>
<rect width="47" height="47" transform="matrix(-1.8677e-07 -1 -1 1.8677e-07 1920 912)" fill="black" fill-opacity="0.33"/>
<rect width="47" height="47" transform="matrix(-1.8677e-07 -1 -1 1.8677e-07 1872 864)" fill="black" fill-opacity="0.33"/>
<rect width="47" height="47" transform="matrix(-1.8677e-07 -1 -1 1.8677e-07 2112 816)" fill="black" fill-opacity="0.33"/>
<rect width="47" height="47" transform="matrix(-1.8677e-07 -1 -1 1.8677e-07 2160 768)" fill="black" fill-opacity="0.33"/>
<rect width="47" height="47" transform="matrix(2.18557e-07 1 1 -2.18557e-07 1201 193)" fill="black" fill-opacity="0.33"/>
<rect width="47" height="47" transform="matrix(2.18557e-07 1 1 -2.18557e-07 1105 145)" fill="black" fill-opacity="0.33"/>
<rect width="47" height="47" transform="matrix(2.18557e-07 1 1 -2.18557e-07 1009 145)" fill="black" fill-opacity="0.33"/>
<rect width="47" height="47" transform="matrix(2.18557e-07 1 1 -2.18557e-07 1057 241)" fill="black" fill-opacity="0.33"/>
<rect width="47" height="47" transform="matrix(2.18557e-07 1 1 -2.18557e-07 961 289)" fill="black" fill-opacity="0.33"/>
<rect width="47" height="47" transform="matrix(2.18557e-07 1 1 -2.18557e-07 1009 0.999878)" fill="black" fill-opacity="0.33"/>
<rect width="47" height="47" transform="matrix(2.18557e-07 1 1 -2.18557e-07 961 48.9999)" fill="black" fill-opacity="0.33"/>
<rect width="47" height="47" transform="matrix(-1 2.30482e-07 2.30482e-07 1 1296 96.9999)" fill="black" fill-opacity="0.33"/>
<rect width="47" height="47" transform="matrix(-1 2.30482e-07 2.30482e-07 1 1296 241)" fill="black" fill-opacity="0.33"/>
<rect width="47" height="47" transform="matrix(-1 2.30482e-07 2.30482e-07 1 1248 289)" fill="black" fill-opacity="0.33"/>
<rect width="47" height="47" transform="matrix(-1 2.30482e-07 2.30482e-07 1 1200 48.9999)" fill="black" fill-opacity="0.33"/>
<rect width="47" height="47" transform="matrix(-1 2.30482e-07 2.30482e-07 1 1152 0.999878)" fill="black" fill-opacity="0.33"/>
<rect width="47" height="47" transform="matrix(4.37114e-08 1 1 -4.37114e-08 913 433)" fill="black" fill-opacity="0.33"/>
<rect width="47" height="47" transform="matrix(4.37114e-08 1 1 -4.37114e-08 1057 433)" fill="black" fill-opacity="0.33"/>
<rect width="47" height="47" transform="matrix(4.37114e-08 1 1 -4.37114e-08 1105 481)" fill="black" fill-opacity="0.33"/>
<rect width="47" height="47" transform="matrix(4.37114e-08 1 1 -4.37114e-08 1201 529)" fill="black" fill-opacity="0.33"/>
<rect width="47" height="47" transform="matrix(4.37114e-08 1 1 -4.37114e-08 1345 481)" fill="black" fill-opacity="0.33"/>
<rect width="47" height="47" transform="matrix(4.37114e-08 1 1 -4.37114e-08 1489 433)" fill="black" fill-opacity="0.33"/>
<rect width="47" height="47" transform="matrix(4.37114e-08 1 1 -4.37114e-08 1441 481)" fill="black" fill-opacity="0.33"/>
<rect width="47" height="47" transform="matrix(4.37114e-08 1 1 -4.37114e-08 1249 433)" fill="black" fill-opacity="0.33"/>
<rect width="47" height="47" transform="matrix(4.37114e-08 1 1 -4.37114e-08 1249 673)" fill="black" fill-opacity="0.33"/>
<rect width="47" height="47" transform="matrix(4.37114e-08 1 1 -4.37114e-08 1057 721)" fill="black" fill-opacity="0.33"/>
<rect width="47" height="47" transform="matrix(4.37114e-08 1 1 -4.37114e-08 961 673)" fill="black" fill-opacity="0.33"/>
<rect width="47" height="47" transform="matrix(4.37114e-08 1 1 -4.37114e-08 865 673)" fill="black" fill-opacity="0.33"/>
<rect width="47" height="47" transform="matrix(4.37114e-08 1 1 -4.37114e-08 913 769)" fill="black" fill-opacity="0.33"/>
<rect width="47" height="47" transform="matrix(4.37114e-08 1 1 -4.37114e-08 481 1)" fill="black" fill-opacity="0.33"/>
<rect width="47" height="47" transform="matrix(4.37114e-08 1 1 -4.37114e-08 865 529)" fill="black" fill-opacity="0.33"/>
<rect width="47" height="47" transform="matrix(4.37114e-08 1 1 -4.37114e-08 817 577)" fill="black" fill-opacity="0.33"/>
<rect width="47" height="47" transform="matrix(-1 5.56363e-08 5.56363e-08 1 1152 625)" fill="black" fill-opacity="0.33"/>
<rect width="47" height="47" transform="matrix(-1 5.56363e-08 5.56363e-08 1 1152 769)" fill="black" fill-opacity="0.33"/>
<rect width="47" height="47" transform="matrix(-1 5.56363e-08 5.56363e-08 1 768 0.999878)" fill="black" fill-opacity="0.33"/>
<rect width="47" height="47" transform="matrix(-1 5.56363e-08 5.56363e-08 1 1056 577)" fill="black" fill-opacity="0.33"/>
<rect width="47" height="47" transform="matrix(-1 5.56363e-08 5.56363e-08 1 1008 529)" fill="black" fill-opacity="0.33"/>
<rect width="47" height="47" transform="matrix(1 -8.74228e-08 -8.74228e-08 -1 528 336)" fill="black" fill-opacity="0.33"/>
<rect width="47" height="47" transform="matrix(1 -8.74228e-08 -8.74228e-08 -1 576 288)" fill="black" fill-opacity="0.33"/>
<rect width="47" height="47" transform="matrix(1 -8.74228e-08 -8.74228e-08 -1 624 192)" fill="black" fill-opacity="0.33"/>
<rect width="47" height="47" transform="matrix(1 -8.74228e-08 -8.74228e-08 -1 528 144)" fill="black" fill-opacity="0.33"/>
<rect width="47" height="47" transform="matrix(1 -8.74228e-08 -8.74228e-08 -1 769 144)" fill="black" fill-opacity="0.33"/>
<rect width="47" height="47" transform="matrix(1 -8.74228e-08 -8.74228e-08 -1 817 336)" fill="black" fill-opacity="0.33"/>
<rect width="47" height="47" transform="matrix(1 -8.74228e-08 -8.74228e-08 -1 769 432)" fill="black" fill-opacity="0.33"/>
<rect width="47" height="47" transform="matrix(1 -8.74228e-08 -8.74228e-08 -1 769 528)" fill="black" fill-opacity="0.33"/>
<rect width="47" height="47" transform="matrix(1 -8.74228e-08 -8.74228e-08 -1 865 480)" fill="black" fill-opacity="0.33"/>
<rect width="47" height="47" transform="matrix(1 -8.74228e-08 -8.74228e-08 -1 912 576)" fill="black" fill-opacity="0.33"/>
<rect width="47" height="47" transform="matrix(1 -8.74228e-08 -8.74228e-08 -1 625 528)" fill="black" fill-opacity="0.33"/>
<rect width="47" height="47" transform="matrix(1 -8.74228e-08 -8.74228e-08 -1 529 480)" fill="black" fill-opacity="0.33"/>
<rect width="47" height="47" transform="matrix(1 -8.74228e-08 -8.74228e-08 -1 481 576)" fill="black" fill-opacity="0.33"/>
<rect width="47" height="47" transform="matrix(1 -8.74228e-08 -8.74228e-08 -1 673 576)" fill="black" fill-opacity="0.33"/>
<rect width="47" height="47" transform="matrix(9.93477e-08 1 1 -9.93477e-08 721 241)" fill="black" fill-opacity="0.33"/>
<rect width="47" height="47" transform="matrix(9.93477e-08 1 1 -9.93477e-08 865 241)" fill="black" fill-opacity="0.33"/>
<rect width="47" height="47" transform="matrix(9.93477e-08 1 1 -9.93477e-08 913 289)" fill="black" fill-opacity="0.33"/>
<rect width="47" height="47" transform="matrix(9.93477e-08 1 1 -9.93477e-08 673 337)" fill="black" fill-opacity="0.33"/>
<rect width="47" height="47" transform="matrix(9.93477e-08 1 1 -9.93477e-08 625 385)" fill="black" fill-opacity="0.33"/>
<rect width="47" height="47" transform="matrix(-1 0 0 1 2304 721)" fill="black" fill-opacity="0.33"/>
<rect width="47" height="47" transform="matrix(-1 0 0 1 2016 48.9999)" fill="black" fill-opacity="0.33"/>
<rect width="47" height="47" transform="matrix(-1 0 0 1 1776 48.9999)" fill="black" fill-opacity="0.33"/>
<rect width="47" height="47" transform="matrix(-1 0 0 1 2064 673)" fill="black" fill-opacity="0.33"/>
<rect width="47" height="47" transform="matrix(-1 0 0 1 2112 481)" fill="black" fill-opacity="0.33"/>
<rect width="47" height="47" transform="matrix(-1 0 0 1 2015 529)" fill="black" fill-opacity="0.33"/>
<rect width="47" height="47" transform="matrix(-1 0 0 1 1968 433)" fill="black" fill-opacity="0.33"/>
<rect width="47" height="47" transform="matrix(-1 0 0 1 2256 481)" fill="black" fill-opacity="0.33"/>
<rect width="47" height="47" transform="matrix(-1 0 0 1 2208 433)" fill="black" fill-opacity="0.33"/>
<rect width="47" height="47" transform="matrix(-1.19249e-08 -1 -1 1.19249e-08 1968 720)" fill="black" fill-opacity="0.33"/>
<rect width="47" height="47" transform="matrix(-1.19249e-08 -1 -1 1.19249e-08 2256 624)" fill="black" fill-opacity="0.33"/>
<rect width="47" height="47" transform="matrix(4.37114e-08 1 1 -4.37114e-08 1633 481)" fill="black" fill-opacity="0.33"/>
<rect width="47" height="47" transform="matrix(4.37114e-08 1 1 -4.37114e-08 1681 529)" fill="black" fill-opacity="0.33"/>
<rect width="47" height="47" transform="matrix(4.37114e-08 1 1 -4.37114e-08 1777 577)" fill="black" fill-opacity="0.33"/>
<rect width="47" height="47" transform="matrix(4.37114e-08 1 1 -4.37114e-08 1825 481)" fill="black" fill-opacity="0.33"/>
<rect width="47" height="47" transform="matrix(4.37114e-08 1 1 -4.37114e-08 1681 433)" fill="black" fill-opacity="0.33"/>
<rect width="47" height="47" transform="matrix(4.37114e-08 1 1 -4.37114e-08 1825 721)" fill="black" fill-opacity="0.33"/>
<rect width="47" height="47" transform="matrix(4.37114e-08 1 1 -4.37114e-08 1633 769)" fill="black" fill-opacity="0.33"/>
<rect width="47" height="47" transform="matrix(4.37114e-08 1 1 -4.37114e-08 1537 721)" fill="black" fill-opacity="0.33"/>
<rect width="47" height="47" transform="matrix(4.37114e-08 1 1 -4.37114e-08 1441 721)" fill="black" fill-opacity="0.33"/>
<rect width="47" height="47" transform="matrix(4.37114e-08 1 1 -4.37114e-08 1153 0.999878)" fill="black" fill-opacity="0.33"/>
<rect width="47" height="47" transform="matrix(4.37114e-08 1 1 -4.37114e-08 1057 48.9999)" fill="black" fill-opacity="0.33"/>
<rect width="47" height="47" transform="matrix(4.37114e-08 1 1 -4.37114e-08 1441 577)" fill="black" fill-opacity="0.33"/>
<rect width="47" height="47" transform="matrix(4.37114e-08 1 1 -4.37114e-08 1393 625)" fill="black" fill-opacity="0.33"/>
<rect width="47" height="47" transform="matrix(4.37114e-08 1 1 -4.37114e-08 1297 721)" fill="black" fill-opacity="0.33"/>
<rect width="47" height="47" transform="matrix(-1 5.56363e-08 5.56363e-08 1 1728 673)" fill="black" fill-opacity="0.33"/>
<rect width="47" height="47" transform="matrix(-1 5.56363e-08 5.56363e-08 1 1344 48.9999)" fill="black" fill-opacity="0.33"/>
<rect width="47" height="47" transform="matrix(-1 5.56363e-08 5.56363e-08 1 1632 625)" fill="black" fill-opacity="0.33"/>
<rect width="47" height="47" transform="matrix(-1 5.56363e-08 5.56363e-08 1 1584 577)" fill="black" fill-opacity="0.33"/>
<rect width="47" height="47" transform="matrix(1 -8.74228e-08 -8.74228e-08 -1 673 720)" fill="black" fill-opacity="0.33"/>
<rect width="47" height="47" transform="matrix(1 -8.74228e-08 -8.74228e-08 -1 625 816)" fill="black" fill-opacity="0.33"/>
<rect width="47" height="47" transform="matrix(1 -8.74228e-08 -8.74228e-08 -1 625 912)" fill="black" fill-opacity="0.33"/>
<rect width="47" height="47" transform="matrix(1 -8.74228e-08 -8.74228e-08 -1 721 864)" fill="black" fill-opacity="0.33"/>
<rect width="47" height="47" transform="matrix(1 -8.74228e-08 -8.74228e-08 -1 769 960)" fill="black" fill-opacity="0.33"/>
<rect width="47" height="47" transform="matrix(1 -8.74228e-08 -8.74228e-08 -1 481 912)" fill="black" fill-opacity="0.33"/>
<rect width="47" height="47" transform="matrix(1 -8.74228e-08 -8.74228e-08 -1 529 960)" fill="black" fill-opacity="0.33"/>
<rect width="47" height="47" transform="matrix(9.93477e-08 1 1 -9.93477e-08 577 625)" fill="black" fill-opacity="0.33"/>
<rect width="47" height="47" transform="matrix(9.93477e-08 1 1 -9.93477e-08 721 625)" fill="black" fill-opacity="0.33"/>
<rect width="47" height="47" transform="matrix(9.93477e-08 1 1 -9.93477e-08 769 673)" fill="black" fill-opacity="0.33"/>
<rect width="47" height="47" transform="matrix(9.93477e-08 1 1 -9.93477e-08 529 721)" fill="black" fill-opacity="0.33"/>
<rect width="47" height="47" transform="matrix(9.93477e-08 1 1 -9.93477e-08 481 769)" fill="black" fill-opacity="0.33"/>
<rect width="47" height="47" transform="matrix(-1.31134e-07 -1 -1 1.31134e-07 1776 1200)" fill="black" fill-opacity="0.33"/>
<rect width="47" height="47" transform="matrix(-1.31134e-07 -1 -1 1.31134e-07 1584 1152)" fill="black" fill-opacity="0.33"/>
<rect width="47" height="47" transform="matrix(-1.31134e-07 -1 -1 1.31134e-07 1488 1104)" fill="black" fill-opacity="0.33"/>
<rect width="47" height="47" transform="matrix(-1.31134e-07 -1 -1 1.31134e-07 1344 1152)" fill="black" fill-opacity="0.33"/>
<rect width="47" height="47" transform="matrix(-1.31134e-07 -1 -1 1.31134e-07 1200 1200)" fill="black" fill-opacity="0.33"/>
<rect width="47" height="47" transform="matrix(-1.31134e-07 -1 -1 1.31134e-07 1248 1152)" fill="black" fill-opacity="0.33"/>
<rect width="47" height="47" transform="matrix(-1.31134e-07 -1 -1 1.31134e-07 1440 1200)" fill="black" fill-opacity="0.33"/>
<rect width="47" height="47" transform="matrix(-1.31134e-07 -1 -1 1.31134e-07 1440 960)" fill="black" fill-opacity="0.33"/>
<rect width="47" height="47" transform="matrix(-1.31134e-07 -1 -1 1.31134e-07 1632 912)" fill="black" fill-opacity="0.33"/>
<rect width="47" height="47" transform="matrix(-1.31134e-07 -1 -1 1.31134e-07 1728 960)" fill="black" fill-opacity="0.33"/>
<rect width="47" height="47" transform="matrix(-1.31134e-07 -1 -1 1.31134e-07 1824 960)" fill="black" fill-opacity="0.33"/>
<rect width="47" height="47" transform="matrix(-1.31134e-07 -1 -1 1.31134e-07 2016 1536)" fill="black" fill-opacity="0.33"/>
<rect width="47" height="47" transform="matrix(-1.31134e-07 -1 -1 1.31134e-07 1824 1104)" fill="black" fill-opacity="0.33"/>
<rect width="47" height="47" transform="matrix(-1.31134e-07 -1 -1 1.31134e-07 1872 1056)" fill="black" fill-opacity="0.33"/>
<rect width="47" height="47" transform="matrix(1 -1.43059e-07 -1.43059e-07 -1 1537 1008)" fill="black" fill-opacity="0.33"/>
<rect width="47" height="47" transform="matrix(1 -1.43059e-07 -1.43059e-07 -1 1537 864)" fill="black" fill-opacity="0.33"/>
<rect width="47" height="47" transform="matrix(1 -1.43059e-07 -1.43059e-07 -1 1729 1536)" fill="black" fill-opacity="0.33"/>
<rect width="47" height="47" transform="matrix(1 -1.43059e-07 -1.43059e-07 -1 1633 1056)" fill="black" fill-opacity="0.33"/>
<rect width="47" height="47" transform="matrix(1 -1.43059e-07 -1.43059e-07 -1 1681 1104)" fill="black" fill-opacity="0.33"/>
<rect width="47" height="47" transform="matrix(-1 1.74846e-07 1.74846e-07 1 1969 1201)" fill="black" fill-opacity="0.33"/>
<rect width="47" height="47" transform="matrix(-1 1.74846e-07 1.74846e-07 1 1921 1249)" fill="black" fill-opacity="0.33"/>
<rect width="47" height="47" transform="matrix(-1 1.74846e-07 1.74846e-07 1 1873 1345)" fill="black" fill-opacity="0.33"/>
<rect width="47" height="47" transform="matrix(-1 1.74846e-07 1.74846e-07 1 1969 1393)" fill="black" fill-opacity="0.33"/>
<rect width="47" height="47" transform="matrix(-1 1.74846e-07 1.74846e-07 1 1728 1393)" fill="black" fill-opacity="0.33"/>
<rect width="47" height="47" transform="matrix(-1 1.74846e-07 1.74846e-07 1 1680 1201)" fill="black" fill-opacity="0.33"/>
<rect width="47" height="47" transform="matrix(-1 1.74846e-07 1.74846e-07 1 1728 1105)" fill="black" fill-opacity="0.33"/>
<rect width="47" height="47" transform="matrix(-1 1.74846e-07 1.74846e-07 1 1632 1057)" fill="black" fill-opacity="0.33"/>
<rect width="47" height="47" transform="matrix(-1 1.74846e-07 1.74846e-07 1 1968 1057)" fill="black" fill-opacity="0.33"/>
<rect width="47" height="47" transform="matrix(-1 1.74846e-07 1.74846e-07 1 2016 961)" fill="black" fill-opacity="0.33"/>
<rect width="47" height="47" transform="matrix(-1 1.74846e-07 1.74846e-07 1 1824 961)" fill="black" fill-opacity="0.33"/>
<rect width="47" height="47" transform="matrix(-1.8677e-07 -1 -1 1.8677e-07 1776 1296)" fill="black" fill-opacity="0.33"/>
<rect width="47" height="47" transform="matrix(-1.8677e-07 -1 -1 1.8677e-07 1632 1296)" fill="black" fill-opacity="0.33"/>
<rect width="47" height="47" transform="matrix(-1.8677e-07 -1 -1 1.8677e-07 1584 1248)" fill="black" fill-opacity="0.33"/>
<rect width="47" height="47" transform="matrix(-1.8677e-07 -1 -1 1.8677e-07 1824 1200)" fill="black" fill-opacity="0.33"/>
<rect width="47" height="47" transform="matrix(-1.8677e-07 -1 -1 1.8677e-07 1872 1152)" fill="black" fill-opacity="0.33"/>
<rect width="47" height="47" transform="matrix(1 -8.74228e-08 -8.74228e-08 -1 337 1104)" fill="black" fill-opacity="0.33"/>
<rect width="47" height="47" transform="matrix(1 -8.74228e-08 -8.74228e-08 -1 337 960)" fill="black" fill-opacity="0.33"/>
<rect width="47" height="47" transform="matrix(1 -8.74228e-08 -8.74228e-08 -1 385 912)" fill="black" fill-opacity="0.33"/>
<rect width="47" height="47" transform="matrix(1 -8.74228e-08 -8.74228e-08 -1 577 1536)" fill="black" fill-opacity="0.33"/>
<rect width="47" height="47" transform="matrix(1 -8.74228e-08 -8.74228e-08 -1 721 1488)" fill="black" fill-opacity="0.33"/>
<rect width="47" height="47" transform="matrix(1 -8.74228e-08 -8.74228e-08 -1 625 960)" fill="black" fill-opacity="0.33"/>
<rect width="47" height="47" transform="matrix(1 -8.74228e-08 -8.74228e-08 -1 577 1056)" fill="black" fill-opacity="0.33"/>
<rect width="47" height="47" transform="matrix(1 -8.74228e-08 -8.74228e-08 -1 577 1152)" fill="black" fill-opacity="0.33"/>
<rect width="47" height="47" transform="matrix(1 -8.74228e-08 -8.74228e-08 -1 721 1200)" fill="black" fill-opacity="0.33"/>
<rect width="47" height="47" transform="matrix(1 -8.74228e-08 -8.74228e-08 -1 433 1152)" fill="black" fill-opacity="0.33"/>
<rect width="47" height="47" transform="matrix(1 -8.74228e-08 -8.74228e-08 -1 481 1200)" fill="black" fill-opacity="0.33"/>
<rect width="47" height="47" transform="matrix(9.93477e-08 1 1 -9.93477e-08 529 865)" fill="black" fill-opacity="0.33"/>
<rect width="47" height="47" transform="matrix(9.93477e-08 1 1 -9.93477e-08 673 865)" fill="black" fill-opacity="0.33"/>
<rect width="47" height="47" transform="matrix(9.93477e-08 1 1 -9.93477e-08 721 913)" fill="black" fill-opacity="0.33"/>
<rect width="47" height="47" transform="matrix(9.93477e-08 1 1 -9.93477e-08 481 961)" fill="black" fill-opacity="0.33"/>
<rect width="47" height="47" transform="matrix(9.93477e-08 1 1 -9.93477e-08 433 1009)" fill="black" fill-opacity="0.33"/>
<rect width="47" height="47" transform="matrix(-1.31134e-07 -1 -1 1.31134e-07 1056 1152)" fill="black" fill-opacity="0.33"/>
<rect width="47" height="47" transform="matrix(-1.31134e-07 -1 -1 1.31134e-07 1008 1104)" fill="black" fill-opacity="0.33"/>
<rect width="47" height="47" transform="matrix(-1.31134e-07 -1 -1 1.31134e-07 912 1056)" fill="black" fill-opacity="0.33"/>
<rect width="47" height="47" transform="matrix(-1.31134e-07 -1 -1 1.31134e-07 1008 1200)" fill="black" fill-opacity="0.33"/>
<rect width="47" height="47" transform="matrix(-1.31134e-07 -1 -1 1.31134e-07 864 912)" fill="black" fill-opacity="0.33"/>
<rect width="47" height="47" transform="matrix(-1.31134e-07 -1 -1 1.31134e-07 1056 864)" fill="black" fill-opacity="0.33"/>
<rect width="47" height="47" transform="matrix(-1.31134e-07 -1 -1 1.31134e-07 1152 912)" fill="black" fill-opacity="0.33"/>
<rect width="47" height="47" transform="matrix(-1.31134e-07 -1 -1 1.31134e-07 1248 912)" fill="black" fill-opacity="0.33"/>
<rect width="47" height="47" transform="matrix(-1.31134e-07 -1 -1 1.31134e-07 1344 1536)" fill="black" fill-opacity="0.33"/>
<rect width="47" height="47" transform="matrix(-1.31134e-07 -1 -1 1.31134e-07 1440 1488)" fill="black" fill-opacity="0.33"/>
<rect width="47" height="47" transform="matrix(-1.31134e-07 -1 -1 1.31134e-07 1248 1056)" fill="black" fill-opacity="0.33"/>
<rect width="47" height="47" transform="matrix(-1.31134e-07 -1 -1 1.31134e-07 1296 1008)" fill="black" fill-opacity="0.33"/>
<rect width="47" height="47" transform="matrix(-1.31134e-07 -1 -1 1.31134e-07 1392 912)" fill="black" fill-opacity="0.33"/>
<rect width="47" height="47" transform="matrix(1 -1.43059e-07 -1.43059e-07 -1 961 960)" fill="black" fill-opacity="0.33"/>
<rect width="47" height="47" transform="matrix(1 -1.43059e-07 -1.43059e-07 -1 1105 1536)" fill="black" fill-opacity="0.33"/>
<rect width="47" height="47" transform="matrix(1 -1.43059e-07 -1.43059e-07 -1 1153 1488)" fill="black" fill-opacity="0.33"/>
<rect width="47" height="47" transform="matrix(1 -1.43059e-07 -1.43059e-07 -1 1057 1008)" fill="black" fill-opacity="0.33"/>
<rect width="47" height="47" transform="matrix(1 -1.43059e-07 -1.43059e-07 -1 1105 1056)" fill="black" fill-opacity="0.33"/>
<rect width="47" height="47" transform="matrix(-1 1.74846e-07 1.74846e-07 1 1824 817)" fill="black" fill-opacity="0.33"/>
<rect width="47" height="47" transform="matrix(-1 1.74846e-07 1.74846e-07 1 1872 625)" fill="black" fill-opacity="0.33"/>
<rect width="47" height="47" transform="matrix(-1 1.74846e-07 1.74846e-07 1 1776 673)" fill="black" fill-opacity="0.33"/>
<rect width="47" height="47" transform="matrix(-1 1.74846e-07 1.74846e-07 1 1728 577)" fill="black" fill-opacity="0.33"/>
<rect width="47" height="47" transform="matrix(-1 1.74846e-07 1.74846e-07 1 1968 577)" fill="black" fill-opacity="0.33"/>
<rect width="47" height="47" transform="matrix(-1.8677e-07 -1 -1 1.8677e-07 1776 912)" fill="black" fill-opacity="0.33"/>
<rect width="47" height="47" transform="matrix(-1.8677e-07 -1 -1 1.8677e-07 1728 864)" fill="black" fill-opacity="0.33"/>
<rect width="47" height="47" transform="matrix(-1.8677e-07 -1 -1 1.8677e-07 1968 816)" fill="black" fill-opacity="0.33"/>
</svg>
