<svg width="2304" height="1536" viewBox="0 0 2304 1536" fill="none" xmlns="http://www.w3.org/2000/svg">
<line x1="2304" y1="720.5" x2="1536" y2="720.5" stroke="black"/>
<line x1="2304" y1="1488.5" x2="1536" y2="1488.5" stroke="black"/>
<line x1="1536" y1="720.5" x2="768" y2="720.5" stroke="black"/>
<line x1="768" y1="720.5" x2="-4.37113e-08" y2="720.5" stroke="black"/>
<line x1="1536" y1="1488.5" x2="768" y2="1488.5" stroke="black"/>
<line x1="768" y1="1488.5" x2="-4.37113e-08" y2="1488.5" stroke="black"/>
<line x1="2304" y1="672.5" x2="1536" y2="672.5" stroke="black"/>
<line x1="2304" y1="1440.5" x2="1536" y2="1440.5" stroke="black"/>
<line x1="1536" y1="672.5" x2="768" y2="672.5" stroke="black"/>
<line x1="768" y1="672.5" x2="-4.37113e-08" y2="672.5" stroke="black"/>
<line x1="1536" y1="1440.5" x2="768" y2="1440.5" stroke="black"/>
<line x1="768" y1="1440.5" x2="-4.37113e-08" y2="1440.5" stroke="black"/>
<line x1="2304" y1="624.5" x2="1536" y2="624.5" stroke="black"/>
<line x1="2304" y1="1392.5" x2="1536" y2="1392.5" stroke="black"/>
<line x1="1536" y1="624.5" x2="768" y2="624.5" stroke="black"/>
<line x1="768" y1="624.5" x2="-4.37113e-08" y2="624.5" stroke="black"/>
<line x1="1536" y1="1392.5" x2="768" y2="1392.5" stroke="black"/>
<line x1="768" y1="1392.5" x2="-4.37113e-08" y2="1392.5" stroke="black"/>
<line x1="2304" y1="576.5" x2="1536" y2="576.5" stroke="black"/>
<line x1="2304" y1="1344.5" x2="1536" y2="1344.5" stroke="black"/>
<line x1="1536" y1="576.5" x2="768" y2="576.5" stroke="black"/>
<line x1="768" y1="576.5" x2="-4.37113e-08" y2="576.5" stroke="black"/>
<line x1="1536" y1="1344.5" x2="768" y2="1344.5" stroke="black"/>
<line x1="768" y1="1344.5" x2="-4.37113e-08" y2="1344.5" stroke="black"/>
<line x1="2304" y1="528.5" x2="1536" y2="528.5" stroke="black"/>
<line x1="2304" y1="1296.5" x2="1536" y2="1296.5" stroke="black"/>
<line x1="1536" y1="528.5" x2="768" y2="528.5" stroke="black"/>
<line x1="768" y1="528.5" x2="-4.37113e-08" y2="528.5" stroke="black"/>
<line x1="1536" y1="1296.5" x2="768" y2="1296.5" stroke="black"/>
<line x1="768" y1="1296.5" x2="-4.37113e-08" y2="1296.5" stroke="black"/>
<line x1="2304" y1="480.5" x2="1536" y2="480.5" stroke="black"/>
<line x1="2304" y1="1248.5" x2="1536" y2="1248.5" stroke="black"/>
<line x1="1536" y1="480.5" x2="768" y2="480.5" stroke="black"/>
<line x1="768" y1="480.5" x2="-4.37113e-08" y2="480.5" stroke="black"/>
<line x1="1536" y1="1248.5" x2="768" y2="1248.5" stroke="black"/>
<line x1="768" y1="1248.5" x2="-4.37113e-08" y2="1248.5" stroke="black"/>
<line x1="2304" y1="432.5" x2="1536" y2="432.5" stroke="black"/>
<line x1="2304" y1="1200.5" x2="1536" y2="1200.5" stroke="black"/>
<line x1="1536" y1="432.5" x2="768" y2="432.5" stroke="black"/>
<line x1="768" y1="432.5" x2="-4.37113e-08" y2="432.5" stroke="black"/>
<line x1="1536" y1="1200.5" x2="768" y2="1200.5" stroke="black"/>
<line x1="768" y1="1200.5" x2="-4.37113e-08" y2="1200.5" stroke="black"/>
<line x1="2304" y1="384.5" x2="1536" y2="384.5" stroke="black"/>
<line x1="2304" y1="1152.5" x2="1536" y2="1152.5" stroke="black"/>
<line x1="1536" y1="384.5" x2="768" y2="384.5" stroke="black"/>
<line x1="768" y1="384.5" x2="-4.37113e-08" y2="384.5" stroke="black"/>
<line x1="1536" y1="1152.5" x2="768" y2="1152.5" stroke="black"/>
<line x1="768" y1="1152.5" x2="-4.37113e-08" y2="1152.5" stroke="black"/>
<line x1="2304" y1="336.5" x2="1536" y2="336.5" stroke="black"/>
<line x1="2304" y1="1104.5" x2="1536" y2="1104.5" stroke="black"/>
<line x1="1536" y1="336.5" x2="768" y2="336.5" stroke="black"/>
<line x1="768" y1="336.5" x2="-4.37113e-08" y2="336.5" stroke="black"/>
<line x1="1536" y1="1104.5" x2="768" y2="1104.5" stroke="black"/>
<line x1="768" y1="1104.5" x2="-4.37113e-08" y2="1104.5" stroke="black"/>
<line x1="2304" y1="288.5" x2="1536" y2="288.5" stroke="black"/>
<line x1="2304" y1="1056.5" x2="1536" y2="1056.5" stroke="black"/>
<line x1="1536" y1="288.5" x2="768" y2="288.5" stroke="black"/>
<line x1="768" y1="288.5" x2="-4.37113e-08" y2="288.5" stroke="black"/>
<line x1="1536" y1="1056.5" x2="768" y2="1056.5" stroke="black"/>
<line x1="768" y1="1056.5" x2="-4.37113e-08" y2="1056.5" stroke="black"/>
<line x1="2304" y1="240.5" x2="1536" y2="240.5" stroke="black"/>
<line x1="2304" y1="1008.5" x2="1536" y2="1008.5" stroke="black"/>
<line x1="1536" y1="240.5" x2="768" y2="240.5" stroke="black"/>
<line x1="768" y1="240.5" x2="-4.37113e-08" y2="240.5" stroke="black"/>
<line x1="1536" y1="1008.5" x2="768" y2="1008.5" stroke="black"/>
<line x1="768" y1="1008.5" x2="-4.37113e-08" y2="1008.5" stroke="black"/>
<line x1="2304" y1="192.5" x2="1536" y2="192.5" stroke="black"/>
<line x1="2304" y1="960.5" x2="1536" y2="960.5" stroke="black"/>
<line x1="1536" y1="192.5" x2="768" y2="192.5" stroke="black"/>
<line x1="768" y1="192.5" x2="-4.37113e-08" y2="192.5" stroke="black"/>
<line x1="1536" y1="960.5" x2="768" y2="960.5" stroke="black"/>
<line x1="768" y1="960.5" x2="-4.37113e-08" y2="960.5" stroke="black"/>
<line x1="2304" y1="144.5" x2="1536" y2="144.5" stroke="black"/>
<line x1="2304" y1="912.5" x2="1536" y2="912.5" stroke="black"/>
<line x1="1536" y1="144.5" x2="768" y2="144.5" stroke="black"/>
<line x1="768" y1="144.5" x2="-4.37113e-08" y2="144.5" stroke="black"/>
<line x1="1536" y1="912.5" x2="768" y2="912.5" stroke="black"/>
<line x1="768" y1="912.5" x2="-4.37113e-08" y2="912.5" stroke="black"/>
<line x1="2304" y1="96.5001" x2="1536" y2="96.5001" stroke="black"/>
<line x1="2304" y1="864.5" x2="1536" y2="864.5" stroke="black"/>
<line x1="1536" y1="96.5" x2="768" y2="96.4999" stroke="black"/>
<line x1="768" y1="96.5" x2="-4.37113e-08" y2="96.4999" stroke="black"/>
<line x1="1536" y1="864.5" x2="768" y2="864.5" stroke="black"/>
<line x1="768" y1="864.5" x2="-4.37113e-08" y2="864.5" stroke="black"/>
<line x1="2304" y1="48.5001" x2="1536" y2="48.5001" stroke="black"/>
<line x1="2304" y1="816.5" x2="1536" y2="816.5" stroke="black"/>
<line x1="1536" y1="48.5" x2="768" y2="48.4999" stroke="black"/>
<line x1="768" y1="48.5" x2="-4.37113e-08" y2="48.4999" stroke="black"/>
<line x1="1536" y1="816.5" x2="768" y2="816.5" stroke="black"/>
<line x1="768" y1="816.5" x2="-4.37113e-08" y2="816.5" stroke="black"/>
<line x1="2304" y1="0.500122" x2="1536" y2="0.500055" stroke="black"/>
<line x1="2304" y1="768.5" x2="1536" y2="768.5" stroke="black"/>
<line x1="1536" y1="0.5" x2="768" y2="0.499933" stroke="black"/>
<line x1="768" y1="0.5" x2="-4.37113e-08" y2="0.499933" stroke="black"/>
<line x1="1536" y1="768.5" x2="768" y2="768.5" stroke="black"/>
<line x1="768" y1="768.5" x2="-4.37113e-08" y2="768.5" stroke="black"/>
<line x1="1583.5" y1="768" x2="1583.5" y2="-6.55671e-08" stroke="black"/>
<line x1="1583.5" y1="1536" x2="1583.5" y2="768" stroke="black"/>
<line x1="815.5" y1="768" x2="815.5" y2="-6.55671e-08" stroke="black"/>
<line x1="47.5" y1="768" x2="47.5001" y2="-6.55671e-08" stroke="black"/>
<line x1="815.5" y1="1536" x2="815.5" y2="768" stroke="black"/>
<line x1="767.5" y1="1536" x2="767.5" y2="-4.37115e-08" stroke="black"/>
<line x1="47.5" y1="1536" x2="47.5001" y2="768" stroke="black"/>
<line x1="1631.5" y1="768" x2="1631.5" y2="-6.55671e-08" stroke="black"/>
<line x1="1631.5" y1="1536" x2="1631.5" y2="768" stroke="black"/>
<line x1="863.5" y1="768" x2="863.5" y2="-6.55671e-08" stroke="black"/>
<line x1="95.5" y1="768" x2="95.5001" y2="-6.55671e-08" stroke="black"/>
<line x1="863.5" y1="1536" x2="863.5" y2="768" stroke="black"/>
<line x1="95.5" y1="1536" x2="95.5001" y2="768" stroke="black"/>
<line x1="1679.5" y1="768" x2="1679.5" y2="-6.55671e-08" stroke="black"/>
<line x1="1679.5" y1="1536" x2="1679.5" y2="768" stroke="black"/>
<line x1="911.5" y1="768" x2="911.5" y2="-6.55671e-08" stroke="black"/>
<line x1="143.5" y1="768" x2="143.5" y2="-6.55671e-08" stroke="black"/>
<line x1="911.5" y1="1536" x2="911.5" y2="768" stroke="black"/>
<line x1="143.5" y1="1536" x2="143.5" y2="768" stroke="black"/>
<line x1="1727.5" y1="768" x2="1727.5" y2="-6.55671e-08" stroke="black"/>
<line x1="1727.5" y1="1536" x2="1727.5" y2="768" stroke="black"/>
<line x1="959.5" y1="768" x2="959.5" y2="-6.55671e-08" stroke="black"/>
<line x1="191.5" y1="768" x2="191.5" y2="-6.55671e-08" stroke="black"/>
<line x1="959.5" y1="1536" x2="959.5" y2="768" stroke="black"/>
<line x1="191.5" y1="1536" x2="191.5" y2="768" stroke="black"/>
<line x1="1775.5" y1="768" x2="1775.5" y2="-6.55671e-08" stroke="black"/>
<line x1="1775.5" y1="1536" x2="1775.5" y2="768" stroke="black"/>
<line x1="1007.5" y1="768" x2="1007.5" y2="-6.55671e-08" stroke="black"/>
<line x1="239.5" y1="768" x2="239.5" y2="-6.55671e-08" stroke="black"/>
<line x1="1007.5" y1="1536" x2="1007.5" y2="768" stroke="black"/>
<line x1="239.5" y1="1536" x2="239.5" y2="768" stroke="black"/>
<line x1="1823.5" y1="768" x2="1823.5" y2="-6.55671e-08" stroke="black"/>
<line x1="1823.5" y1="1536" x2="1823.5" y2="768" stroke="black"/>
<line x1="1055.5" y1="768" x2="1055.5" y2="-6.55671e-08" stroke="black"/>
<line x1="287.5" y1="768" x2="287.5" y2="-6.55671e-08" stroke="black"/>
<line x1="1055.5" y1="1536" x2="1055.5" y2="768" stroke="black"/>
<line x1="287.5" y1="1536" x2="287.5" y2="768" stroke="black"/>
<line x1="1871.5" y1="768" x2="1871.5" y2="-6.55671e-08" stroke="black"/>
<line x1="1871.5" y1="1536" x2="1871.5" y2="768" stroke="black"/>
<line x1="1103.5" y1="768" x2="1103.5" y2="-6.55671e-08" stroke="black"/>
<line x1="335.5" y1="768" x2="335.5" y2="-6.55671e-08" stroke="black"/>
<line x1="1103.5" y1="1536" x2="1103.5" y2="768" stroke="black"/>
<line x1="335.5" y1="1536" x2="335.5" y2="768" stroke="black"/>
<line x1="1919.5" y1="768" x2="1919.5" y2="-6.55671e-08" stroke="black"/>
<line x1="1919.5" y1="1536" x2="1919.5" y2="768" stroke="black"/>
<line x1="1151.5" y1="768" x2="1151.5" y2="-6.55671e-08" stroke="black"/>
<line x1="383.5" y1="768" x2="383.5" y2="-6.55671e-08" stroke="black"/>
<line x1="1151.5" y1="1536" x2="1151.5" y2="768" stroke="black"/>
<line x1="383.5" y1="1536" x2="383.5" y2="768" stroke="black"/>
<line x1="1967.5" y1="768" x2="1967.5" y2="-6.55671e-08" stroke="black"/>
<line x1="1967.5" y1="1536" x2="1967.5" y2="768" stroke="black"/>
<line x1="1199.5" y1="768" x2="1199.5" y2="-6.55671e-08" stroke="black"/>
<line x1="431.5" y1="768" x2="431.5" y2="-6.55671e-08" stroke="black"/>
<line x1="1199.5" y1="1536" x2="1199.5" y2="768" stroke="black"/>
<line x1="431.5" y1="1536" x2="431.5" y2="768" stroke="black"/>
<line x1="2015.5" y1="768" x2="2015.5" y2="-6.55671e-08" stroke="black"/>
<line x1="2015.5" y1="1536" x2="2015.5" y2="768" stroke="black"/>
<line x1="1247.5" y1="768" x2="1247.5" y2="-6.55671e-08" stroke="black"/>
<line x1="479.5" y1="768" x2="479.5" y2="-6.55671e-08" stroke="black"/>
<line x1="1247.5" y1="1536" x2="1247.5" y2="768" stroke="black"/>
<line x1="479.5" y1="1536" x2="479.5" y2="768" stroke="black"/>
<line x1="2063.5" y1="768" x2="2063.5" y2="-6.55671e-08" stroke="black"/>
<line x1="2063.5" y1="1536" x2="2063.5" y2="768" stroke="black"/>
<line x1="1295.5" y1="768" x2="1295.5" y2="-6.55671e-08" stroke="black"/>
<line x1="527.5" y1="768" x2="527.5" y2="-6.55671e-08" stroke="black"/>
<line x1="1295.5" y1="1536" x2="1295.5" y2="768" stroke="black"/>
<line x1="527.5" y1="1536" x2="527.5" y2="768" stroke="black"/>
<line x1="2111.5" y1="768" x2="2111.5" y2="-6.55671e-08" stroke="black"/>
<line x1="2111.5" y1="1536" x2="2111.5" y2="768" stroke="black"/>
<line x1="1343.5" y1="768" x2="1343.5" y2="-6.55671e-08" stroke="black"/>
<line x1="575.5" y1="768" x2="575.5" y2="-6.55671e-08" stroke="black"/>
<line x1="1343.5" y1="1536" x2="1343.5" y2="768" stroke="black"/>
<line x1="575.5" y1="1536" x2="575.5" y2="768" stroke="black"/>
<line x1="2159.5" y1="768" x2="2159.5" y2="-6.55671e-08" stroke="black"/>
<line x1="2159.5" y1="1536" x2="2159.5" y2="768" stroke="black"/>
<line x1="1391.5" y1="768" x2="1391.5" y2="-6.55671e-08" stroke="black"/>
<line x1="623.5" y1="768" x2="623.5" y2="-6.55671e-08" stroke="black"/>
<line x1="1391.5" y1="1536" x2="1391.5" y2="768" stroke="black"/>
<line x1="623.5" y1="1536" x2="623.5" y2="768" stroke="black"/>
<line x1="2207.5" y1="768" x2="2207.5" y2="-6.55671e-08" stroke="black"/>
<line x1="2207.5" y1="1536" x2="2207.5" y2="768" stroke="black"/>
<line x1="1439.5" y1="768" x2="1439.5" y2="-6.55671e-08" stroke="black"/>
<line x1="671.5" y1="768" x2="671.5" y2="-6.55671e-08" stroke="black"/>
<line x1="1439.5" y1="1536" x2="1439.5" y2="768" stroke="black"/>
<line x1="671.5" y1="1536" x2="671.5" y2="768" stroke="black"/>
<line x1="2255.5" y1="768" x2="2255.5" y2="-6.55671e-08" stroke="black"/>
<line x1="2255.5" y1="1536" x2="2255.5" y2="768" stroke="black"/>
<line x1="1487.5" y1="768" x2="1487.5" y2="-6.55671e-08" stroke="black"/>
<line x1="719.5" y1="768" x2="719.5" y2="-6.55671e-08" stroke="black"/>
<line x1="1487.5" y1="1536" x2="1487.5" y2="768" stroke="black"/>
<line x1="719.5" y1="1536" x2="719.5" y2="768" stroke="black"/>
<line x1="2303.5" y1="768" x2="2303.5" y2="-6.55671e-08" stroke="black"/>
<line x1="2303.5" y1="1536" x2="2303.5" y2="768" stroke="black"/>
<line x1="1535.5" y1="768" x2="1535.5" y2="-6.55671e-08" stroke="black"/>
<line x1="1535.5" y1="1536" x2="1535.5" y2="768" stroke="black"/>
<rect x="2303" y="1440" width="47" height="47" transform="rotate(-180 2303 1440)" fill="black" fill-opacity="0.33"/>
<rect x="2303" y="1296" width="47" height="47" transform="rotate(-180 2303 1296)" fill="black" fill-opacity="0.33"/>
<rect x="2255" y="1248" width="47" height="47" transform="rotate(-180 2255 1248)" fill="black" fill-opacity="0.33"/>
<rect x="2207" y="1152" width="47" height="47" transform="rotate(-180 2207 1152)" fill="black" fill-opacity="0.33"/>
<rect x="2255" y="1008" width="47" height="47" transform="rotate(-180 2255 1008)" fill="black" fill-opacity="0.33"/>
<rect x="2303" y="864" width="47" height="47" transform="rotate(-180 2303 864)" fill="black" fill-opacity="0.33"/>
<rect x="2255" y="912" width="47" height="47" transform="rotate(-180 2255 912)" fill="black" fill-opacity="0.33"/>
<rect x="2303" y="1104" width="47" height="47" transform="rotate(-180 2303 1104)" fill="black" fill-opacity="0.33"/>
<rect x="2063" y="1104" width="47" height="47" transform="rotate(-180 2063 1104)" fill="black" fill-opacity="0.33"/>
<rect x="2015" y="1296" width="47" height="47" transform="rotate(-180 2015 1296)" fill="black" fill-opacity="0.33"/>
<rect x="2063" y="1392" width="47" height="47" transform="rotate(-180 2063 1392)" fill="black" fill-opacity="0.33"/>
<rect x="2063" y="1488" width="47" height="47" transform="rotate(-180 2063 1488)" fill="black" fill-opacity="0.33"/>
<rect x="1967" y="1440" width="47" height="47" transform="rotate(-180 1967 1440)" fill="black" fill-opacity="0.33"/>
<rect x="1919" y="1536" width="47" height="47" transform="rotate(-180 1919 1536)" fill="black" fill-opacity="0.33"/>
<rect x="2207" y="1488" width="47" height="47" transform="rotate(-180 2207 1488)" fill="black" fill-opacity="0.33"/>
<rect x="2159" y="1536" width="47" height="47" transform="rotate(-180 2159 1536)" fill="black" fill-opacity="0.33"/>
<rect x="2111" y="1201" width="47" height="47" transform="rotate(90 2111 1201)" fill="black" fill-opacity="0.33"/>
<rect x="1967" y="1201" width="47" height="47" transform="rotate(90 1967 1201)" fill="black" fill-opacity="0.33"/>
<rect x="1919" y="1249" width="47" height="47" transform="rotate(90 1919 1249)" fill="black" fill-opacity="0.33"/>
<rect x="2159" y="1297" width="47" height="47" transform="rotate(90 2159 1297)" fill="black" fill-opacity="0.33"/>
<rect x="2207" y="1345" width="47" height="47" transform="rotate(90 2207 1345)" fill="black" fill-opacity="0.33"/>
<rect x="1584" y="1489" width="47" height="47" transform="rotate(-90 1584 1489)" fill="black" fill-opacity="0.33"/>
<rect x="1632" y="1441" width="47" height="47" transform="rotate(-90 1632 1441)" fill="black" fill-opacity="0.33"/>
<rect x="1728" y="1393" width="47" height="47" transform="rotate(-90 1728 1393)" fill="black" fill-opacity="0.33"/>
<rect x="1776" y="1489" width="47" height="47" transform="rotate(-90 1776 1489)" fill="black" fill-opacity="0.33"/>
<rect x="1776" y="1248" width="47" height="47" transform="rotate(-90 1776 1248)" fill="black" fill-opacity="0.33"/>
<rect x="1584" y="1200" width="47" height="47" transform="rotate(-90 1584 1200)" fill="black" fill-opacity="0.33"/>
<rect x="1488" y="1248" width="47" height="47" transform="rotate(-90 1488 1248)" fill="black" fill-opacity="0.33"/>
<rect x="1392" y="1248" width="47" height="47" transform="rotate(-90 1392 1248)" fill="black" fill-opacity="0.33"/>
<rect x="1440" y="1152" width="47" height="47" transform="rotate(-90 1440 1152)" fill="black" fill-opacity="0.33"/>
<rect x="1344" y="1105" width="47" height="47" transform="rotate(-90 1344 1105)" fill="black" fill-opacity="0.33"/>
<rect x="1392" y="1392" width="47" height="47" transform="rotate(-90 1392 1392)" fill="black" fill-opacity="0.33"/>
<rect x="1440" y="1488" width="47" height="47" transform="rotate(-90 1440 1488)" fill="black" fill-opacity="0.33"/>
<rect x="1344" y="1536" width="47" height="47" transform="rotate(-90 1344 1536)" fill="black" fill-opacity="0.33"/>
<rect x="1344" y="1344" width="47" height="47" transform="rotate(-90 1344 1344)" fill="black" fill-opacity="0.33"/>
<rect x="1679" y="1296" width="47" height="47" transform="rotate(-180 1679 1296)" fill="black" fill-opacity="0.33"/>
<rect x="1679" y="1152" width="47" height="47" transform="rotate(-180 1679 1152)" fill="black" fill-opacity="0.33"/>
<rect x="1631" y="1104" width="47" height="47" transform="rotate(-180 1631 1104)" fill="black" fill-opacity="0.33"/>
<rect x="1583" y="1344" width="47" height="47" transform="rotate(-180 1583 1344)" fill="black" fill-opacity="0.33"/>
<rect x="1535" y="1392" width="47" height="47" transform="rotate(-180 1535 1392)" fill="black" fill-opacity="0.33"/>
<rect x="2207" y="1" width="47" height="47" transform="rotate(90 2207 1)" fill="black" fill-opacity="0.33"/>
<rect x="2063" y="1" width="47" height="47" transform="rotate(90 2063 1)" fill="black" fill-opacity="0.33"/>
<rect x="2015" y="49" width="47" height="47" transform="rotate(90 2015 49)" fill="black" fill-opacity="0.33"/>
<rect x="1919" y="97" width="47" height="47" transform="rotate(90 1919 97)" fill="black" fill-opacity="0.33"/>
<rect x="1871" y="1" width="47" height="47" transform="rotate(90 1871 1)" fill="black" fill-opacity="0.33"/>
<rect x="1871" y="241" width="47" height="47" transform="rotate(90 1871 241)" fill="black" fill-opacity="0.33"/>
<rect x="2063" y="289" width="47" height="47" transform="rotate(90 2063 289)" fill="black" fill-opacity="0.33"/>
<rect x="2159" y="241" width="47" height="47" transform="rotate(90 2159 241)" fill="black" fill-opacity="0.33"/>
<rect x="2255" y="241" width="47" height="47" transform="rotate(90 2255 241)" fill="black" fill-opacity="0.33"/>
<rect x="2207" y="338" width="47" height="47" transform="rotate(90 2207 338)" fill="black" fill-opacity="0.33"/>
<rect x="2303" y="385" width="47" height="47" transform="rotate(90 2303 385)" fill="black" fill-opacity="0.33"/>
<rect x="2255" y="97" width="47" height="47" transform="rotate(90 2255 97)" fill="black" fill-opacity="0.33"/>
<rect x="2303" y="145" width="47" height="47" transform="rotate(90 2303 145)" fill="black" fill-opacity="0.33"/>
<rect x="1968" y="193" width="47" height="47" fill="black" fill-opacity="0.33"/>
<rect x="1968" y="337" width="47" height="47" fill="black" fill-opacity="0.33"/>
<rect x="2016" y="385" width="47" height="47" fill="black" fill-opacity="0.33"/>
<rect x="2064" y="145" width="47" height="47" fill="black" fill-opacity="0.33"/>
<rect x="2112" y="97" width="47" height="47" fill="black" fill-opacity="0.33"/>
<rect x="2255" y="720" width="47" height="47" transform="rotate(-180 2255 720)" fill="black" fill-opacity="0.33"/>
<rect x="2207" y="672" width="47" height="47" transform="rotate(-180 2207 672)" fill="black" fill-opacity="0.33"/>
<rect x="2159" y="576" width="47" height="47" transform="rotate(-180 2159 576)" fill="black" fill-opacity="0.33"/>
<rect x="2255" y="528" width="47" height="47" transform="rotate(-180 2255 528)" fill="black" fill-opacity="0.33"/>
<rect x="2303" y="672" width="47" height="47" transform="rotate(-180 2303 672)" fill="black" fill-opacity="0.33"/>
<rect x="2015" y="528" width="47" height="47" transform="rotate(-180 2015 528)" fill="black" fill-opacity="0.33"/>
<rect x="1967" y="720" width="47" height="47" transform="rotate(-180 1967 720)" fill="black" fill-opacity="0.33"/>
<rect x="2015" y="816" width="47" height="47" transform="rotate(-180 2015 816)" fill="black" fill-opacity="0.33"/>
<rect x="2015" y="912" width="47" height="47" transform="rotate(-180 2015 912)" fill="black" fill-opacity="0.33"/>
<rect x="1919" y="864" width="47" height="47" transform="rotate(-180 1919 864)" fill="black" fill-opacity="0.33"/>
<rect x="1871" y="960" width="47" height="47" transform="rotate(-180 1871 960)" fill="black" fill-opacity="0.33"/>
<rect x="2159" y="912" width="47" height="47" transform="rotate(-180 2159 912)" fill="black" fill-opacity="0.33"/>
<rect x="2111" y="960" width="47" height="47" transform="rotate(-180 2111 960)" fill="black" fill-opacity="0.33"/>
<rect x="2015" y="1056" width="47" height="47" transform="rotate(-180 2015 1056)" fill="black" fill-opacity="0.33"/>
<rect x="2063" y="625" width="47" height="47" transform="rotate(90 2063 625)" fill="black" fill-opacity="0.33"/>
<rect x="1919" y="625" width="47" height="47" transform="rotate(90 1919 625)" fill="black" fill-opacity="0.33"/>
<rect x="1871" y="673" width="47" height="47" transform="rotate(90 1871 673)" fill="black" fill-opacity="0.33"/>
<rect x="2111" y="721" width="47" height="47" transform="rotate(90 2111 721)" fill="black" fill-opacity="0.33"/>
<rect x="2159" y="769" width="47" height="47" transform="rotate(90 2159 769)" fill="black" fill-opacity="0.33"/>
<rect x="1200" y="1344" width="47" height="47" transform="rotate(-90 1200 1344)" fill="black" fill-opacity="0.33"/>
<rect x="1104" y="1392" width="47" height="47" transform="rotate(-90 1104 1392)" fill="black" fill-opacity="0.33"/>
<rect x="1008" y="1392" width="47" height="47" transform="rotate(-90 1008 1392)" fill="black" fill-opacity="0.33"/>
<rect x="1056" y="1296" width="47" height="47" transform="rotate(-90 1056 1296)" fill="black" fill-opacity="0.33"/>
<rect x="960" y="1248" width="47" height="47" transform="rotate(-90 960 1248)" fill="black" fill-opacity="0.33"/>
<rect x="960" y="1488" width="47" height="47" transform="rotate(-90 960 1488)" fill="black" fill-opacity="0.33"/>
<rect x="1295" y="1440" width="47" height="47" transform="rotate(-180 1295 1440)" fill="black" fill-opacity="0.33"/>
<rect x="1295" y="1296" width="47" height="47" transform="rotate(-180 1295 1296)" fill="black" fill-opacity="0.33"/>
<rect x="1247" y="1248" width="47" height="47" transform="rotate(-180 1247 1248)" fill="black" fill-opacity="0.33"/>
<rect y="96.9998" width="47" height="47" fill="black" fill-opacity="0.33"/>
<rect y="241" width="47" height="47" fill="black" fill-opacity="0.33"/>
<rect x="48" y="289" width="47" height="47" fill="black" fill-opacity="0.33"/>
<rect x="96" y="385" width="47" height="47" fill="black" fill-opacity="0.33"/>
<rect y="673" width="47" height="47" fill="black" fill-opacity="0.33"/>
<rect x="48" y="625" width="47" height="47" fill="black" fill-opacity="0.33"/>
<rect y="433" width="47" height="47" fill="black" fill-opacity="0.33"/>
<rect x="240" y="433" width="47" height="47" fill="black" fill-opacity="0.33"/>
<rect x="288" y="241" width="47" height="47" fill="black" fill-opacity="0.33"/>
<rect x="240" y="145" width="47" height="47" fill="black" fill-opacity="0.33"/>
<rect x="240" y="48.9999" width="47" height="47" fill="black" fill-opacity="0.33"/>
<rect x="336" y="96.9999" width="47" height="47" fill="black" fill-opacity="0.33"/>
<rect x="384" y="0.999878" width="47" height="47" fill="black" fill-opacity="0.33"/>
<rect x="96" y="48.9998" width="47" height="47" fill="black" fill-opacity="0.33"/>
<rect x="144" y="0.999756" width="47" height="47" fill="black" fill-opacity="0.33"/>
<rect x="192" y="336" width="47" height="47" transform="rotate(-90 192 336)" fill="black" fill-opacity="0.33"/>
<rect x="336" y="336" width="47" height="47" transform="rotate(-90 336 336)" fill="black" fill-opacity="0.33"/>
<rect x="384" y="288" width="47" height="47" transform="rotate(-90 384 288)" fill="black" fill-opacity="0.33"/>
<rect x="144" y="240" width="47" height="47" transform="rotate(-90 144 240)" fill="black" fill-opacity="0.33"/>
<rect x="96" y="192" width="47" height="47" transform="rotate(-90 96 192)" fill="black" fill-opacity="0.33"/>
<rect x="719" y="47.9999" width="47" height="47" transform="rotate(90 719 47.9999)" fill="black" fill-opacity="0.33"/>
<rect x="671" y="95.9999" width="47" height="47" transform="rotate(90 671 95.9999)" fill="black" fill-opacity="0.33"/>
<rect x="575" y="144" width="47" height="47" transform="rotate(90 575 144)" fill="black" fill-opacity="0.33"/>
<rect x="527" y="47.9999" width="47" height="47" transform="rotate(90 527 47.9999)" fill="black" fill-opacity="0.33"/>
<rect x="527" y="289" width="47" height="47" transform="rotate(90 527 289)" fill="black" fill-opacity="0.33"/>
<rect x="719" y="337" width="47" height="47" transform="rotate(90 719 337)" fill="black" fill-opacity="0.33"/>
<rect x="815" y="289" width="47" height="47" transform="rotate(90 815 289)" fill="black" fill-opacity="0.33"/>
<rect x="911" y="289" width="47" height="47" transform="rotate(90 911 289)" fill="black" fill-opacity="0.33"/>
<rect x="863" y="385" width="47" height="47" transform="rotate(90 863 385)" fill="black" fill-opacity="0.33"/>
<rect x="959" y="432" width="47" height="47" transform="rotate(90 959 432)" fill="black" fill-opacity="0.33"/>
<rect x="911" y="145" width="47" height="47" transform="rotate(90 911 145)" fill="black" fill-opacity="0.33"/>
<rect x="863" y="48.9999" width="47" height="47" transform="rotate(90 863 48.9999)" fill="black" fill-opacity="0.33"/>
<rect x="959" y="0.999878" width="47" height="47" transform="rotate(90 959 0.999878)" fill="black" fill-opacity="0.33"/>
<rect x="959" y="193" width="47" height="47" transform="rotate(90 959 193)" fill="black" fill-opacity="0.33"/>
<rect x="624" y="241" width="47" height="47" fill="black" fill-opacity="0.33"/>
<rect x="624" y="385" width="47" height="47" fill="black" fill-opacity="0.33"/>
<rect x="672" y="433" width="47" height="47" fill="black" fill-opacity="0.33"/>
<rect x="720" y="193" width="47" height="47" fill="black" fill-opacity="0.33"/>
<rect x="768" y="145" width="47" height="47" fill="black" fill-opacity="0.33"/>
<rect x="96" y="1536" width="47" height="47" transform="rotate(-90 96 1536)" fill="black" fill-opacity="0.33"/>
<rect x="240" y="1536" width="47" height="47" transform="rotate(-90 240 1536)" fill="black" fill-opacity="0.33"/>
<rect x="288" y="1488" width="47" height="47" transform="rotate(-90 288 1488)" fill="black" fill-opacity="0.33"/>
<rect x="384" y="1440" width="47" height="47" transform="rotate(-90 384 1440)" fill="black" fill-opacity="0.33"/>
<rect x="432" y="1536" width="47" height="47" transform="rotate(-90 432 1536)" fill="black" fill-opacity="0.33"/>
<rect x="432" y="1296" width="47" height="47" transform="rotate(-90 432 1296)" fill="black" fill-opacity="0.33"/>
<rect x="240" y="1248" width="47" height="47" transform="rotate(-90 240 1248)" fill="black" fill-opacity="0.33"/>
<rect x="144" y="1296" width="47" height="47" transform="rotate(-90 144 1296)" fill="black" fill-opacity="0.33"/>
<rect x="48" y="1296" width="47" height="47" transform="rotate(-90 48 1296)" fill="black" fill-opacity="0.33"/>
<rect x="96" y="1199" width="47" height="47" transform="rotate(-90 96 1199)" fill="black" fill-opacity="0.33"/>
<rect y="1152" width="47" height="47" transform="rotate(-90 0 1152)" fill="black" fill-opacity="0.33"/>
<rect x="48" y="1440" width="47" height="47" transform="rotate(-90 48 1440)" fill="black" fill-opacity="0.33"/>
<rect y="1392" width="47" height="47" transform="rotate(-90 0 1392)" fill="black" fill-opacity="0.33"/>
<rect x="335" y="1344" width="47" height="47" transform="rotate(-180 335 1344)" fill="black" fill-opacity="0.33"/>
<rect x="335" y="1200" width="47" height="47" transform="rotate(-180 335 1200)" fill="black" fill-opacity="0.33"/>
<rect x="287" y="1152" width="47" height="47" transform="rotate(-180 287 1152)" fill="black" fill-opacity="0.33"/>
<rect x="239" y="1392" width="47" height="47" transform="rotate(-180 239 1392)" fill="black" fill-opacity="0.33"/>
<rect x="191" y="1440" width="47" height="47" transform="rotate(-180 191 1440)" fill="black" fill-opacity="0.33"/>
<rect x="48" y="817" width="47" height="47" fill="black" fill-opacity="0.33"/>
<rect x="96" y="865" width="47" height="47" fill="black" fill-opacity="0.33"/>
<rect x="144" y="961" width="47" height="47" fill="black" fill-opacity="0.33"/>
<rect x="48" y="1009" width="47" height="47" fill="black" fill-opacity="0.33"/>
<rect y="865" width="47" height="47" fill="black" fill-opacity="0.33"/>
<rect x="288" y="1009" width="47" height="47" fill="black" fill-opacity="0.33"/>
<rect x="336" y="817" width="47" height="47" fill="black" fill-opacity="0.33"/>
<rect x="288" y="721" width="47" height="47" fill="black" fill-opacity="0.33"/>
<rect x="288" y="625" width="47" height="47" fill="black" fill-opacity="0.33"/>
<rect x="384" y="673" width="47" height="47" fill="black" fill-opacity="0.33"/>
<rect x="432" y="577" width="47" height="47" fill="black" fill-opacity="0.33"/>
<rect x="144" y="625" width="47" height="47" fill="black" fill-opacity="0.33"/>
<rect x="192" y="577" width="47" height="47" fill="black" fill-opacity="0.33"/>
<rect x="288" y="481" width="47" height="47" fill="black" fill-opacity="0.33"/>
<rect x="240" y="912" width="47" height="47" transform="rotate(-90 240 912)" fill="black" fill-opacity="0.33"/>
<rect x="384" y="912" width="47" height="47" transform="rotate(-90 384 912)" fill="black" fill-opacity="0.33"/>
<rect x="432" y="864" width="47" height="47" transform="rotate(-90 432 864)" fill="black" fill-opacity="0.33"/>
<rect x="192" y="816" width="47" height="47" transform="rotate(-90 192 816)" fill="black" fill-opacity="0.33"/>
<rect x="144" y="768" width="47" height="47" transform="rotate(-90 144 768)" fill="black" fill-opacity="0.33"/>
<rect x="1103" y="193" width="47" height="47" transform="rotate(90 1103 193)" fill="black" fill-opacity="0.33"/>
<rect x="1199" y="145" width="47" height="47" transform="rotate(90 1199 145)" fill="black" fill-opacity="0.33"/>
<rect x="1295" y="145" width="47" height="47" transform="rotate(90 1295 145)" fill="black" fill-opacity="0.33"/>
<rect x="1247" y="241" width="47" height="47" transform="rotate(90 1247 241)" fill="black" fill-opacity="0.33"/>
<rect x="1343" y="289" width="47" height="47" transform="rotate(90 1343 289)" fill="black" fill-opacity="0.33"/>
<rect x="1295" y="0.999878" width="47" height="47" transform="rotate(90 1295 0.999878)" fill="black" fill-opacity="0.33"/>
<rect x="1343" y="48.9999" width="47" height="47" transform="rotate(90 1343 48.9999)" fill="black" fill-opacity="0.33"/>
<rect x="1008" y="96.9999" width="47" height="47" fill="black" fill-opacity="0.33"/>
<rect x="1008" y="241" width="47" height="47" fill="black" fill-opacity="0.33"/>
<rect x="1056" y="289" width="47" height="47" fill="black" fill-opacity="0.33"/>
<rect x="1104" y="48.9999" width="47" height="47" fill="black" fill-opacity="0.33"/>
<rect x="1152" y="0.999878" width="47" height="47" fill="black" fill-opacity="0.33"/>
<rect x="1391" y="433" width="47" height="47" transform="rotate(90 1391 433)" fill="black" fill-opacity="0.33"/>
<rect x="1247" y="433" width="47" height="47" transform="rotate(90 1247 433)" fill="black" fill-opacity="0.33"/>
<rect x="1199" y="481" width="47" height="47" transform="rotate(90 1199 481)" fill="black" fill-opacity="0.33"/>
<rect x="1103" y="529" width="47" height="47" transform="rotate(90 1103 529)" fill="black" fill-opacity="0.33"/>
<rect x="959" y="481" width="47" height="47" transform="rotate(90 959 481)" fill="black" fill-opacity="0.33"/>
<rect x="815" y="433" width="47" height="47" transform="rotate(90 815 433)" fill="black" fill-opacity="0.33"/>
<rect x="863" y="481" width="47" height="47" transform="rotate(90 863 481)" fill="black" fill-opacity="0.33"/>
<rect x="1055" y="433" width="47" height="47" transform="rotate(90 1055 433)" fill="black" fill-opacity="0.33"/>
<rect x="1055" y="673" width="47" height="47" transform="rotate(90 1055 673)" fill="black" fill-opacity="0.33"/>
<rect x="1247" y="721" width="47" height="47" transform="rotate(90 1247 721)" fill="black" fill-opacity="0.33"/>
<rect x="1343" y="673" width="47" height="47" transform="rotate(90 1343 673)" fill="black" fill-opacity="0.33"/>
<rect x="1439" y="673" width="47" height="47" transform="rotate(90 1439 673)" fill="black" fill-opacity="0.33"/>
<rect x="1391" y="769" width="47" height="47" transform="rotate(90 1391 769)" fill="black" fill-opacity="0.33"/>
<rect x="1823" y="1" width="47" height="47" transform="rotate(90 1823 1)" fill="black" fill-opacity="0.33"/>
<rect x="1439" y="529" width="47" height="47" transform="rotate(90 1439 529)" fill="black" fill-opacity="0.33"/>
<rect x="1487" y="577" width="47" height="47" transform="rotate(90 1487 577)" fill="black" fill-opacity="0.33"/>
<rect x="1152" y="625" width="47" height="47" fill="black" fill-opacity="0.33"/>
<rect x="1152" y="769" width="47" height="47" fill="black" fill-opacity="0.33"/>
<rect x="1536" y="0.999878" width="47" height="47" fill="black" fill-opacity="0.33"/>
<rect x="1248" y="577" width="47" height="47" fill="black" fill-opacity="0.33"/>
<rect x="1296" y="529" width="47" height="47" fill="black" fill-opacity="0.33"/>
<rect x="1776" y="336" width="47" height="47" transform="rotate(-180 1776 336)" fill="black" fill-opacity="0.33"/>
<rect x="1728" y="288" width="47" height="47" transform="rotate(-180 1728 288)" fill="black" fill-opacity="0.33"/>
<rect x="1680" y="192" width="47" height="47" transform="rotate(-180 1680 192)" fill="black" fill-opacity="0.33"/>
<rect x="1776" y="144" width="47" height="47" transform="rotate(-180 1776 144)" fill="black" fill-opacity="0.33"/>
<rect x="1535" y="144" width="47" height="47" transform="rotate(-180 1535 144)" fill="black" fill-opacity="0.33"/>
<rect x="1487" y="336" width="47" height="47" transform="rotate(-180 1487 336)" fill="black" fill-opacity="0.33"/>
<rect x="1535" y="432" width="47" height="47" transform="rotate(-180 1535 432)" fill="black" fill-opacity="0.33"/>
<rect x="1535" y="528" width="47" height="47" transform="rotate(-180 1535 528)" fill="black" fill-opacity="0.33"/>
<rect x="1439" y="480" width="47" height="47" transform="rotate(-180 1439 480)" fill="black" fill-opacity="0.33"/>
<rect x="1392" y="576" width="47" height="47" transform="rotate(-180 1392 576)" fill="black" fill-opacity="0.33"/>
<rect x="1679" y="528" width="47" height="47" transform="rotate(-180 1679 528)" fill="black" fill-opacity="0.33"/>
<rect x="1775" y="480" width="47" height="47" transform="rotate(-180 1775 480)" fill="black" fill-opacity="0.33"/>
<rect x="1823" y="576" width="47" height="47" transform="rotate(-180 1823 576)" fill="black" fill-opacity="0.33"/>
<rect x="1631" y="576" width="47" height="47" transform="rotate(-180 1631 576)" fill="black" fill-opacity="0.33"/>
<rect x="1583" y="241" width="47" height="47" transform="rotate(90 1583 241)" fill="black" fill-opacity="0.33"/>
<rect x="1439" y="241" width="47" height="47" transform="rotate(90 1439 241)" fill="black" fill-opacity="0.33"/>
<rect x="1391" y="289" width="47" height="47" transform="rotate(90 1391 289)" fill="black" fill-opacity="0.33"/>
<rect x="1631" y="337" width="47" height="47" transform="rotate(90 1631 337)" fill="black" fill-opacity="0.33"/>
<rect x="1679" y="385" width="47" height="47" transform="rotate(90 1679 385)" fill="black" fill-opacity="0.33"/>
<rect y="721" width="47" height="47" fill="black" fill-opacity="0.33"/>
<rect x="288" y="48.9999" width="47" height="47" fill="black" fill-opacity="0.33"/>
<rect x="528" y="48.9999" width="47" height="47" fill="black" fill-opacity="0.33"/>
<rect x="240" y="673" width="47" height="47" fill="black" fill-opacity="0.33"/>
<rect x="192" y="481" width="47" height="47" fill="black" fill-opacity="0.33"/>
<rect x="289" y="529" width="47" height="47" fill="black" fill-opacity="0.33"/>
<rect x="336" y="433" width="47" height="47" fill="black" fill-opacity="0.33"/>
<rect x="48" y="481" width="47" height="47" fill="black" fill-opacity="0.33"/>
<rect x="96" y="433" width="47" height="47" fill="black" fill-opacity="0.33"/>
<rect x="336" y="720" width="47" height="47" transform="rotate(-90 336 720)" fill="black" fill-opacity="0.33"/>
<rect x="48" y="624" width="47" height="47" transform="rotate(-90 48 624)" fill="black" fill-opacity="0.33"/>
<rect x="671" y="481" width="47" height="47" transform="rotate(90 671 481)" fill="black" fill-opacity="0.33"/>
<rect x="623" y="529" width="47" height="47" transform="rotate(90 623 529)" fill="black" fill-opacity="0.33"/>
<rect x="527" y="577" width="47" height="47" transform="rotate(90 527 577)" fill="black" fill-opacity="0.33"/>
<rect x="479" y="481" width="47" height="47" transform="rotate(90 479 481)" fill="black" fill-opacity="0.33"/>
<rect x="623" y="433" width="47" height="47" transform="rotate(90 623 433)" fill="black" fill-opacity="0.33"/>
<rect x="479" y="721" width="47" height="47" transform="rotate(90 479 721)" fill="black" fill-opacity="0.33"/>
<rect x="671" y="769" width="47" height="47" transform="rotate(90 671 769)" fill="black" fill-opacity="0.33"/>
<rect x="767" y="721" width="47" height="47" transform="rotate(90 767 721)" fill="black" fill-opacity="0.33"/>
<rect x="863" y="721" width="47" height="47" transform="rotate(90 863 721)" fill="black" fill-opacity="0.33"/>
<rect x="1151" y="0.999878" width="47" height="47" transform="rotate(90 1151 0.999878)" fill="black" fill-opacity="0.33"/>
<rect x="1247" y="48.9999" width="47" height="47" transform="rotate(90 1247 48.9999)" fill="black" fill-opacity="0.33"/>
<rect x="863" y="577" width="47" height="47" transform="rotate(90 863 577)" fill="black" fill-opacity="0.33"/>
<rect x="911" y="625" width="47" height="47" transform="rotate(90 911 625)" fill="black" fill-opacity="0.33"/>
<rect x="1007" y="721" width="47" height="47" transform="rotate(90 1007 721)" fill="black" fill-opacity="0.33"/>
<rect x="576" y="673" width="47" height="47" fill="black" fill-opacity="0.33"/>
<rect x="960" y="48.9999" width="47" height="47" fill="black" fill-opacity="0.33"/>
<rect x="672" y="625" width="47" height="47" fill="black" fill-opacity="0.33"/>
<rect x="720" y="577" width="47" height="47" fill="black" fill-opacity="0.33"/>
<rect x="1631" y="720" width="47" height="47" transform="rotate(-180 1631 720)" fill="black" fill-opacity="0.33"/>
<rect x="1679" y="816" width="47" height="47" transform="rotate(-180 1679 816)" fill="black" fill-opacity="0.33"/>
<rect x="1679" y="912" width="47" height="47" transform="rotate(-180 1679 912)" fill="black" fill-opacity="0.33"/>
<rect x="1583" y="864" width="47" height="47" transform="rotate(-180 1583 864)" fill="black" fill-opacity="0.33"/>
<rect x="1535" y="960" width="47" height="47" transform="rotate(-180 1535 960)" fill="black" fill-opacity="0.33"/>
<rect x="1823" y="912" width="47" height="47" transform="rotate(-180 1823 912)" fill="black" fill-opacity="0.33"/>
<rect x="1775" y="960" width="47" height="47" transform="rotate(-180 1775 960)" fill="black" fill-opacity="0.33"/>
<rect x="1727" y="625" width="47" height="47" transform="rotate(90 1727 625)" fill="black" fill-opacity="0.33"/>
<rect x="1583" y="625" width="47" height="47" transform="rotate(90 1583 625)" fill="black" fill-opacity="0.33"/>
<rect x="1535" y="673" width="47" height="47" transform="rotate(90 1535 673)" fill="black" fill-opacity="0.33"/>
<rect x="1775" y="721" width="47" height="47" transform="rotate(90 1775 721)" fill="black" fill-opacity="0.33"/>
<rect x="1823" y="769" width="47" height="47" transform="rotate(90 1823 769)" fill="black" fill-opacity="0.33"/>
<rect x="528" y="1200" width="47" height="47" transform="rotate(-90 528 1200)" fill="black" fill-opacity="0.33"/>
<rect x="720" y="1152" width="47" height="47" transform="rotate(-90 720 1152)" fill="black" fill-opacity="0.33"/>
<rect x="816" y="1104" width="47" height="47" transform="rotate(-90 816 1104)" fill="black" fill-opacity="0.33"/>
<rect x="960" y="1152" width="47" height="47" transform="rotate(-90 960 1152)" fill="black" fill-opacity="0.33"/>
<rect x="1104" y="1200" width="47" height="47" transform="rotate(-90 1104 1200)" fill="black" fill-opacity="0.33"/>
<rect x="1056" y="1152" width="47" height="47" transform="rotate(-90 1056 1152)" fill="black" fill-opacity="0.33"/>
<rect x="864" y="1200" width="47" height="47" transform="rotate(-90 864 1200)" fill="black" fill-opacity="0.33"/>
<rect x="864" y="960" width="47" height="47" transform="rotate(-90 864 960)" fill="black" fill-opacity="0.33"/>
<rect x="672" y="912" width="47" height="47" transform="rotate(-90 672 912)" fill="black" fill-opacity="0.33"/>
<rect x="576" y="960" width="47" height="47" transform="rotate(-90 576 960)" fill="black" fill-opacity="0.33"/>
<rect x="480" y="960" width="47" height="47" transform="rotate(-90 480 960)" fill="black" fill-opacity="0.33"/>
<rect x="288" y="1536" width="47" height="47" transform="rotate(-90 288 1536)" fill="black" fill-opacity="0.33"/>
<rect x="480" y="1104" width="47" height="47" transform="rotate(-90 480 1104)" fill="black" fill-opacity="0.33"/>
<rect x="432" y="1056" width="47" height="47" transform="rotate(-90 432 1056)" fill="black" fill-opacity="0.33"/>
<rect x="767" y="1008" width="47" height="47" transform="rotate(-180 767 1008)" fill="black" fill-opacity="0.33"/>
<rect x="767" y="864" width="47" height="47" transform="rotate(-180 767 864)" fill="black" fill-opacity="0.33"/>
<rect x="575" y="1536" width="47" height="47" transform="rotate(-180 575 1536)" fill="black" fill-opacity="0.33"/>
<rect x="671" y="1056" width="47" height="47" transform="rotate(-180 671 1056)" fill="black" fill-opacity="0.33"/>
<rect x="623" y="1104" width="47" height="47" transform="rotate(-180 623 1104)" fill="black" fill-opacity="0.33"/>
<rect x="335" y="1201" width="47" height="47" fill="black" fill-opacity="0.33"/>
<rect x="383" y="1249" width="47" height="47" fill="black" fill-opacity="0.33"/>
<rect x="431" y="1345" width="47" height="47" fill="black" fill-opacity="0.33"/>
<rect x="335" y="1393" width="47" height="47" fill="black" fill-opacity="0.33"/>
<rect x="576" y="1393" width="47" height="47" fill="black" fill-opacity="0.33"/>
<rect x="624" y="1201" width="47" height="47" fill="black" fill-opacity="0.33"/>
<rect x="576" y="1105" width="47" height="47" fill="black" fill-opacity="0.33"/>
<rect x="672" y="1057" width="47" height="47" fill="black" fill-opacity="0.33"/>
<rect x="336" y="1057" width="47" height="47" fill="black" fill-opacity="0.33"/>
<rect x="288" y="961" width="47" height="47" fill="black" fill-opacity="0.33"/>
<rect x="480" y="961" width="47" height="47" fill="black" fill-opacity="0.33"/>
<rect x="528" y="1296" width="47" height="47" transform="rotate(-90 528 1296)" fill="black" fill-opacity="0.33"/>
<rect x="672" y="1296" width="47" height="47" transform="rotate(-90 672 1296)" fill="black" fill-opacity="0.33"/>
<rect x="720" y="1248" width="47" height="47" transform="rotate(-90 720 1248)" fill="black" fill-opacity="0.33"/>
<rect x="480" y="1200" width="47" height="47" transform="rotate(-90 480 1200)" fill="black" fill-opacity="0.33"/>
<rect x="432" y="1152" width="47" height="47" transform="rotate(-90 432 1152)" fill="black" fill-opacity="0.33"/>
<rect x="1967" y="1104" width="47" height="47" transform="rotate(-180 1967 1104)" fill="black" fill-opacity="0.33"/>
<rect x="1967" y="960" width="47" height="47" transform="rotate(-180 1967 960)" fill="black" fill-opacity="0.33"/>
<rect x="1919" y="912" width="47" height="47" transform="rotate(-180 1919 912)" fill="black" fill-opacity="0.33"/>
<rect x="1727" y="1536" width="47" height="47" transform="rotate(-180 1727 1536)" fill="black" fill-opacity="0.33"/>
<rect x="1583" y="1488" width="47" height="47" transform="rotate(-180 1583 1488)" fill="black" fill-opacity="0.33"/>
<rect x="1679" y="960" width="47" height="47" transform="rotate(-180 1679 960)" fill="black" fill-opacity="0.33"/>
<rect x="1727" y="1056" width="47" height="47" transform="rotate(-180 1727 1056)" fill="black" fill-opacity="0.33"/>
<rect x="1727" y="1152" width="47" height="47" transform="rotate(-180 1727 1152)" fill="black" fill-opacity="0.33"/>
<rect x="1583" y="1200" width="47" height="47" transform="rotate(-180 1583 1200)" fill="black" fill-opacity="0.33"/>
<rect x="1871" y="1152" width="47" height="47" transform="rotate(-180 1871 1152)" fill="black" fill-opacity="0.33"/>
<rect x="1823" y="1200" width="47" height="47" transform="rotate(-180 1823 1200)" fill="black" fill-opacity="0.33"/>
<rect x="1775" y="865" width="47" height="47" transform="rotate(90 1775 865)" fill="black" fill-opacity="0.33"/>
<rect x="1631" y="865" width="47" height="47" transform="rotate(90 1631 865)" fill="black" fill-opacity="0.33"/>
<rect x="1583" y="913" width="47" height="47" transform="rotate(90 1583 913)" fill="black" fill-opacity="0.33"/>
<rect x="1823" y="961" width="47" height="47" transform="rotate(90 1823 961)" fill="black" fill-opacity="0.33"/>
<rect x="1871" y="1009" width="47" height="47" transform="rotate(90 1871 1009)" fill="black" fill-opacity="0.33"/>
<rect x="1248" y="1152" width="47" height="47" transform="rotate(-90 1248 1152)" fill="black" fill-opacity="0.33"/>
<rect x="1296" y="1104" width="47" height="47" transform="rotate(-90 1296 1104)" fill="black" fill-opacity="0.33"/>
<rect x="1392" y="1056" width="47" height="47" transform="rotate(-90 1392 1056)" fill="black" fill-opacity="0.33"/>
<rect x="1296" y="1200" width="47" height="47" transform="rotate(-90 1296 1200)" fill="black" fill-opacity="0.33"/>
<rect x="1440" y="912" width="47" height="47" transform="rotate(-90 1440 912)" fill="black" fill-opacity="0.33"/>
<rect x="1248" y="864" width="47" height="47" transform="rotate(-90 1248 864)" fill="black" fill-opacity="0.33"/>
<rect x="1152" y="912" width="47" height="47" transform="rotate(-90 1152 912)" fill="black" fill-opacity="0.33"/>
<rect x="1056" y="912" width="47" height="47" transform="rotate(-90 1056 912)" fill="black" fill-opacity="0.33"/>
<rect x="960" y="1536" width="47" height="47" transform="rotate(-90 960 1536)" fill="black" fill-opacity="0.33"/>
<rect x="864" y="1488" width="47" height="47" transform="rotate(-90 864 1488)" fill="black" fill-opacity="0.33"/>
<rect x="1056" y="1056" width="47" height="47" transform="rotate(-90 1056 1056)" fill="black" fill-opacity="0.33"/>
<rect x="1008" y="1008" width="47" height="47" transform="rotate(-90 1008 1008)" fill="black" fill-opacity="0.33"/>
<rect x="912" y="912" width="47" height="47" transform="rotate(-90 912 912)" fill="black" fill-opacity="0.33"/>
<rect x="1343" y="960" width="47" height="47" transform="rotate(-180 1343 960)" fill="black" fill-opacity="0.33"/>
<rect x="1199" y="1536" width="47" height="47" transform="rotate(-180 1199 1536)" fill="black" fill-opacity="0.33"/>
<rect x="1151" y="1488" width="47" height="47" transform="rotate(-180 1151 1488)" fill="black" fill-opacity="0.33"/>
<rect x="1247" y="1008" width="47" height="47" transform="rotate(-180 1247 1008)" fill="black" fill-opacity="0.33"/>
<rect x="1199" y="1056" width="47" height="47" transform="rotate(-180 1199 1056)" fill="black" fill-opacity="0.33"/>
<rect x="480" y="817" width="47" height="47" fill="black" fill-opacity="0.33"/>
<rect x="432" y="625" width="47" height="47" fill="black" fill-opacity="0.33"/>
<rect x="528" y="673" width="47" height="47" fill="black" fill-opacity="0.33"/>
<rect x="576" y="577" width="47" height="47" fill="black" fill-opacity="0.33"/>
<rect x="336" y="577" width="47" height="47" fill="black" fill-opacity="0.33"/>
<rect x="528" y="912" width="47" height="47" transform="rotate(-90 528 912)" fill="black" fill-opacity="0.33"/>
<rect x="576" y="864" width="47" height="47" transform="rotate(-90 576 864)" fill="black" fill-opacity="0.33"/>
<rect x="336" y="816" width="47" height="47" transform="rotate(-90 336 816)" fill="black" fill-opacity="0.33"/>
</svg>
