<svg fill="none" xmlns="http://www.w3.org/2000/svg" viewBox="11 7 32 32"> <rect width="32" height="32" transform="translate(11 7)" fill="white"></rect> <rect x="43" y="7" width="32" height="0.08" transform="rotate(90 43 7)" fill="#D9D9D9"></rect> <rect x="37.6797" y="7" width="32" height="0.08" transform="rotate(90 37.6797 7)" fill="#D9D9D9"></rect> <rect x="32.3604" y="7" width="32" height="0.08" transform="rotate(90 32.3604 7)" fill="#D9D9D9"></rect> <rect x="27.04" y="7" width="32" height="0.08" transform="rotate(90 27.04 7)" fill="#D9D9D9"></rect> <rect x="21.7197" y="7" width="32" height="0.08" transform="rotate(90 21.7197 7)" fill="#D9D9D9"></rect> <rect x="16.4004" y="7" width="32" height="0.08" transform="rotate(90 16.4004 7)" fill="#D9D9D9"></rect> <rect x="11.0801" y="7" width="32" height="0.08" transform="rotate(90 11.0801 7)" fill="#D9D9D9"></rect> <rect x="11" y="7" width="32" height="0.08" fill="#D9D9D9"></rect> <rect x="11" y="12.32" width="32" height="0.08" fill="#D9D9D9"></rect> <rect x="11" y="17.64" width="32" height="0.08" fill="#D9D9D9"></rect> <rect x="11" y="22.96" width="32" height="0.08" fill="#D9D9D9"></rect> <rect x="11" y="28.28" width="32" height="0.08" fill="#D9D9D9"></rect> <rect x="11" y="33.6" width="32" height="0.08" fill="#D9D9D9"></rect> <rect x="11" y="38.92" width="32" height="0.08" fill="#D9D9D9"></rect> <circle cx="27.04" cy="23.04" r="14" stroke="#D9D9D9" stroke-width="0.08"></circle> <g filter="url(#filter0_dd_104_60)"> <path fill-rule="evenodd" clip-rule="evenodd" d="M23.5117 14.2795C25.2955 13.5288 27.3273 14.3462 28.2229 16.0619C28.3544 16.3139 28.4798 16.5751 28.5983 16.8446C28.6804 17.0314 28.7466 17.2173 28.7978 17.4017H28.8286C29.4279 18.9465 29.7987 20.7238 29.7987 22.5786L18 22.5785C18 20.6515 18.6056 18.8659 19.637 17.4017H19.6499C19.7142 17.2983 19.7857 17.1952 19.8646 17.0927C20.8097 15.8653 22.0643 14.8886 23.5117 14.2795ZM23.5117 30.8776C25.2955 31.6283 27.3273 30.8109 28.2229 29.0952C28.3544 28.8432 28.4798 28.582 28.5983 28.3125C28.6804 28.1257 28.7466 27.9398 28.7978 27.7554H28.8286C29.4279 26.2106 29.7987 24.4333 29.7987 22.5786L18 22.5786C18 24.5056 18.6056 26.2912 19.637 27.7554H19.6499C19.7142 27.8588 19.7857 27.9619 19.8646 28.0644C20.8097 29.2918 22.0643 30.2685 23.5117 30.8776Z" fill="#7F56D9"></path> </g> <g filter="url(#filter1_dd_104_60)"> <path fill-rule="evenodd" clip-rule="evenodd" d="M31.2998 14.6704C34.0972 16.1948 35.9962 19.1602 35.9996 22.5694H36V22.5877H36C35.9966 25.9969 34.0976 28.9623 31.3002 30.4867C32.6161 27.726 33.1919 25.4676 33.1919 22.5877H33.1921V22.5694H33.1915C33.1915 19.6895 32.6157 17.431 31.2998 14.6704Z" fill="#9E77ED"></path> </g> <defs> <filter id="filter0_dd_104_60" x="0" y="0" width="47.7988" height="53.1571" filterUnits="userSpaceOnUse" color-interpolation-filters="sRGB"> <feFlood flood-opacity="0" result="BackgroundImageFix"></feFlood> <feColorMatrix in="SourceAlpha" type="matrix" values="0 0 0 0 0 0 0 0 0 0 0 0 0 0 0 0 0 0 127 0" result="hardAlpha"></feColorMatrix> <feOffset dy="1"></feOffset> <feGaussianBlur stdDeviation="2"></feGaussianBlur> <feComposite in2="hardAlpha" operator="out"></feComposite> <feColorMatrix type="matrix" values="0 0 0 0 0.0627451 0 0 0 0 0.0941176 0 0 0 0 0.156863 0 0 0 0.25 0"></feColorMatrix> <feBlend mode="normal" in2="BackgroundImageFix" result="effect1_dropShadow_104_60"></feBlend> <feColorMatrix in="SourceAlpha" type="matrix" values="0 0 0 0 0 0 0 0 0 0 0 0 0 0 0 0 0 0 127 0" result="hardAlpha"></feColorMatrix> <feOffset dy="4"></feOffset> <feGaussianBlur stdDeviation="9"></feGaussianBlur> <feComposite in2="hardAlpha" operator="out"></feComposite> <feColorMatrix type="matrix" values="0 0 0 0 0 0 0 0 0 0 0 0 0 0 0 0 0 0 0.25 0"></feColorMatrix> <feBlend mode="normal" in2="effect1_dropShadow_104_60" result="effect2_dropShadow_104_60"></feBlend> <feBlend mode="normal" in="SourceGraphic" in2="effect2_dropShadow_104_60" result="shape"></feBlend> </filter> <filter id="filter1_dd_104_60" x="13.2998" y="0.67041" width="40.7002" height="51.8163" filterUnits="userSpaceOnUse" color-interpolation-filters="sRGB"> <feFlood flood-opacity="0" result="BackgroundImageFix"></feFlood> <feColorMatrix in="SourceAlpha" type="matrix" values="0 0 0 0 0 0 0 0 0 0 0 0 0 0 0 0 0 0 127 0" result="hardAlpha"></feColorMatrix> <feOffset dy="1"></feOffset> <feGaussianBlur stdDeviation="2"></feGaussianBlur> <feComposite in2="hardAlpha" operator="out"></feComposite> <feColorMatrix type="matrix" values="0 0 0 0 0.0627451 0 0 0 0 0.0941176 0 0 0 0 0.156863 0 0 0 0.25 0"></feColorMatrix> <feBlend mode="normal" in2="BackgroundImageFix" result="effect1_dropShadow_104_60"></feBlend> <feColorMatrix in="SourceAlpha" type="matrix" values="0 0 0 0 0 0 0 0 0 0 0 0 0 0 0 0 0 0 127 0" result="hardAlpha"></feColorMatrix> <feOffset dy="4"></feOffset> <feGaussianBlur stdDeviation="9"></feGaussianBlur> <feComposite in2="hardAlpha" operator="out"></feComposite> <feColorMatrix type="matrix" values="0 0 0 0 0 0 0 0 0 0 0 0 0 0 0 0 0 0 0.25 0"></feColorMatrix> <feBlend mode="normal" in2="effect1_dropShadow_104_60" result="effect2_dropShadow_104_60"></feBlend> <feBlend mode="normal" in="SourceGraphic" in2="effect2_dropShadow_104_60" result="shape"></feBlend> </filter> </defs> </svg>