<svg width="932" height="932" viewBox="0 0 932 932" fill="none" xmlns="http://www.w3.org/2000/svg">
<rect x="432.412" y="407.825" width="95" height="95" rx="19.5" transform="rotate(15 432.412 407.825)" stroke="black"/>
<rect x="398.471" y="349.037" width="191" height="191" rx="19.5" transform="rotate(15 398.471 349.037)" stroke="black"/>
<rect x="364.53" y="290.249" width="287" height="287" rx="19.5" transform="rotate(15 364.53 290.249)" stroke="black"/>
<rect x="330.589" y="231.461" width="383" height="383" rx="19.5" transform="rotate(15 330.589 231.461)" stroke="black"/>
<rect x="296.648" y="172.673" width="479" height="479" rx="19.5" transform="rotate(15 296.648 172.673)" stroke="black"/>
<rect x="262.707" y="113.886" width="575" height="575" rx="19.5" transform="rotate(15 262.707 113.886)" stroke="black"/>
<rect x="194.825" y="-3.68987" width="767" height="767" rx="19.5" transform="rotate(15 194.825 -3.68987)" stroke="black"/>
<rect x="228.766" y="55.0982" width="671" height="671" rx="19.5" transform="rotate(15 228.766 55.0982)" stroke="black"/>
</svg>
