<svg width="984" height="972" viewBox="0 0 984 972" fill="none" xmlns="http://www.w3.org/2000/svg">
<path fill-rule="evenodd" clip-rule="evenodd" d="M404.989 1.67016C441.307 -4.81097 478.176 9.29811 500.79 38.4467C535.994 83.8229 567.472 139.857 591.967 203C610.568 250.947 625.143 302.994 634.267 357.586C641.213 399.144 645 442.177 645 486.001C645 529.823 641.213 572.857 634.267 614.415C625.143 669.007 610.568 721.053 591.967 769.001C567.472 832.144 535.994 888.178 500.79 933.554C478.176 962.703 441.307 976.812 404.989 970.331C252.033 943.035 123.555 845.057 54.5457 711.387C38.6204 680.54 25.8621 647.792 16.7006 613.573L16.6536 613.397C5.79106 572.764 0 530.058 0 486C0 441.942 5.79106 399.237 16.6536 358.604L16.7006 358.427C25.8621 324.209 38.6204 291.461 54.5457 260.614C123.555 126.943 252.033 28.9654 404.989 1.67016Z" fill="#fff"/>
<path fill-rule="evenodd" clip-rule="evenodd" d="M727.093 53.6958C880.01 137.03 983.815 299.134 984 485.5V485.5V486.5C983.815 672.866 880.01 834.971 727.093 918.305C799.027 767.393 830.5 643.932 830.5 486.5V485.5C830.5 328.068 799.027 204.607 727.093 53.6958Z" fill="#fff"/>
</svg>
